<svg width="256" height="256" viewBox="0 0 256 256" fill="none" xmlns="http://www.w3.org/2000/svg">
<g clip-path="url(#clip0_114_94)">
<rect width="256" height="256" rx="66.5" fill="#2E2E36"/>
<mask id="mask0_114_94" style="mask-type:alpha" maskUnits="userSpaceOnUse" x="0" y="0" width="256" height="256">
<rect width="256" height="256" rx="66.5" fill="#D9D9D9"/>
</mask>
<g mask="url(#mask0_114_94)">
<rect x="20.0002" y="50" width="215.812" height="107.906" rx="40" fill="#F5F5F7"/>
<rect x="38.7039" y="69.4231" width="178.405" height="69.7794" rx="20" fill="#5246FF"/>
<rect x="115.677" y="157.906" width="23.7394" height="15.8262" fill="#F5F5F7"/>
<rect x="179.151" y="210.122" width="19.4231" height="41.7237" transform="rotate(-14.2213 179.151 210.122)" fill="#424242"/>
<path d="M189.883 237.828L202.06 234.743" stroke="#737373" stroke-width="2" stroke-linecap="round"/>
<path d="M185.642 221.093L197.818 218.007" stroke="#737373" stroke-width="2" stroke-linecap="round"/>
<path d="M187.762 229.46L199.939 226.375" stroke="#737373" stroke-width="2" stroke-linecap="round"/>
<circle cx="186.439" cy="197.885" r="15.1069" transform="rotate(-14.2213 186.439 197.885)" fill="#737373"/>
<circle cx="201.461" cy="257.158" r="15.1069" transform="rotate(-14.2213 201.461 257.158)" fill="#737373"/>
<rect width="19.4231" height="41.7237" transform="matrix(-0.969354 -0.245667 -0.245667 0.969354 76.7559 210.079)" fill="#424242"/>
<path d="M66.0234 237.786L53.847 234.7" stroke="#737373" stroke-width="2" stroke-linecap="round"/>
<path d="M70.2649 221.05L58.0884 217.964" stroke="#737373" stroke-width="2" stroke-linecap="round"/>
<path d="M68.1443 229.418L55.9678 226.332" stroke="#737373" stroke-width="2" stroke-linecap="round"/>
<circle cx="15.1069" cy="15.1069" r="15.1069" transform="matrix(-0.969354 -0.245667 -0.245667 0.969354 87.8228 186.91)" fill="#737373"/>
<circle cx="15.1069" cy="15.1069" r="15.1069" transform="matrix(-0.969354 -0.245667 -0.245667 0.969354 72.801 246.183)" fill="#737373"/>
<rect x="76.8308" y="173.732" width="102.151" height="197.828" rx="20" fill="#F5F5F7"/>
<circle cx="88.5207" cy="97.6585" r="13.1286" fill="white"/>
<circle cx="166.933" cy="97.6585" r="13.1286" fill="white"/>
<path d="M127.903 123.746C133.635 123.746 139.049 121.263 142.718 116.95C144.217 115.191 146.898 114.967 148.679 116.416C150.478 117.882 150.725 120.486 149.226 122.246C143.935 128.455 136.157 132.009 127.903 132.009C119.649 132.009 111.871 128.455 106.58 122.246C105.098 120.486 105.327 117.882 107.126 116.416C108.908 114.967 111.589 115.191 113.088 116.95C116.756 121.28 122.171 123.746 127.903 123.746Z" fill="white"/>
</g>
</g>
<defs>
<clipPath id="clip0_114_94">
<rect width="256" height="256" rx="66.5" fill="white"/>
</clipPath>
</defs>
</svg>
