<svg width="1092" height="187" viewBox="0 0 1092 187" fill="none" xmlns="http://www.w3.org/2000/svg">
<mask id="path-1-outside-1_140_43" maskUnits="userSpaceOnUse" x="0" y="0" width="1092" height="187" fill="black">
<rect fill="white" width="1092" height="187"/>
<path d="M377.986 110.951C368.704 110.951 361.32 118.543 361.526 127.876C361.732 137.208 369.452 144.8 378.734 144.8C388.016 144.8 395.4 137.208 395.194 127.876C394.988 118.543 387.268 110.951 377.986 110.951ZM378.626 139.896C378.089 139.896 377.56 139.86 377.041 139.792C374.797 139.494 372.734 138.575 371.035 137.212C370.389 136.694 369.796 136.112 369.265 135.476C367.848 133.78 366.875 131.697 366.535 129.414C366.46 128.911 366.415 128.397 366.404 127.876C366.397 127.557 366.402 127.241 366.419 126.929C366.555 124.479 367.426 122.235 368.818 120.418C369.322 119.759 369.895 119.156 370.526 118.62C372.309 117.105 374.557 116.12 377.041 115.901C377.387 115.871 377.739 115.855 378.094 115.855C378.573 115.855 379.047 115.883 379.512 115.938C381.924 116.224 384.134 117.227 385.917 118.73C386.55 119.263 387.129 119.859 387.645 120.508C389.077 122.309 390.019 124.519 390.259 126.929C390.29 127.241 390.309 127.557 390.316 127.876C390.328 128.397 390.306 128.911 390.253 129.414C389.997 131.851 389.011 134.059 387.514 135.814C386.993 136.424 386.411 136.979 385.775 137.47C384.023 138.825 381.87 139.689 379.512 139.863C379.22 139.885 378.924 139.896 378.626 139.896Z"/>
<path d="M375.293 129.414L376.529 128.172L375.293 126.929H366.419C366.402 127.241 366.397 127.557 366.404 127.876C366.415 128.397 366.46 128.911 366.535 129.414H375.293Z"/>
<path d="M377.041 126.929V125.214L370.526 118.62C369.895 119.156 369.322 119.759 368.818 120.418L375.293 126.929H377.041Z"/>
<path d="M379.512 115.938C379.047 115.883 378.573 115.855 378.094 115.855C377.739 115.855 377.387 115.871 377.041 115.901V125.214L378.251 126.439L379.512 125.171V115.938Z"/>
<path d="M381.26 126.929L387.645 120.508C387.129 119.859 386.55 119.263 385.917 118.73L379.512 125.171V126.929H381.26Z"/>
<path d="M390.253 129.414C390.306 128.911 390.328 128.397 390.316 127.876C390.309 127.557 390.29 127.241 390.259 126.929H381.26L379.993 128.202L381.191 129.414H390.253Z"/>
<path d="M385.775 137.47C386.411 136.979 386.993 136.424 387.514 135.814L381.191 129.414H379.512V131.172L385.775 137.47Z"/>
<path d="M377.041 139.792C377.56 139.86 378.089 139.896 378.626 139.896C378.924 139.896 379.22 139.885 379.512 139.863V131.172L378.276 129.929L377.041 131.172V139.792Z"/>
<path d="M369.265 135.476C369.796 136.112 370.389 136.694 371.035 137.212L377.041 131.172V129.414H375.293L369.265 135.476Z"/>
<path d="M376.529 128.172L375.293 129.414H377.041V128.686L376.529 128.172Z"/>
<path d="M375.293 126.929L376.529 128.172L377.041 127.657V126.929H375.293Z"/>
<path d="M377.041 125.214V126.929H377.764L378.251 126.439L377.041 125.214Z"/>
<path d="M379.512 125.171L378.251 126.439L378.735 126.929H379.512V125.171Z"/>
<path d="M381.26 126.929H379.512V127.715L379.993 128.202L381.26 126.929Z"/>
<path d="M381.191 129.414L379.993 128.202L379.512 128.686V129.414H381.191Z"/>
<path d="M379.512 131.172V129.414H378.788L378.276 129.929L379.512 131.172Z"/>
<path d="M377.041 131.172L378.276 129.929L377.764 129.414H377.041V131.172Z"/>
<path d="M378.788 129.414H377.764L378.276 129.929L378.788 129.414Z"/>
<path d="M379.512 128.686L378.788 129.414H379.512V128.686Z"/>
<path d="M379.512 127.715V128.686L379.993 128.202L379.512 127.715Z"/>
<path d="M377.041 127.657V128.686L377.764 129.414H378.788L379.512 128.686V127.715L378.735 126.929H377.764L377.041 127.657Z"/>
<path d="M378.735 126.929L379.512 127.715V126.929H378.735Z"/>
<path d="M377.764 126.929H378.735L378.251 126.439L377.764 126.929Z"/>
<path d="M377.041 126.929V127.657L377.764 126.929H377.041Z"/>
<path d="M376.529 128.172L377.041 128.686V127.657L376.529 128.172Z"/>
<path d="M377.041 128.686V129.414H377.764L377.041 128.686Z"/>
<path d="M381.273 128.139C381.273 129.708 380.008 130.979 378.448 130.979C376.888 130.979 375.624 129.708 375.624 128.139C375.624 126.57 376.888 125.298 378.448 125.298C380.008 125.298 381.273 126.57 381.273 128.139Z"/>
<path d="M377.041 119.828H379.865V127.82C379.865 128.112 379.63 128.349 379.339 128.349H377.566C377.276 128.349 377.041 128.112 377.041 127.82V119.828Z"/>
<path d="M338.8 12.5778C338.8 6.73583 343.509 2 349.319 2H407.171C412.98 2 417.69 6.73583 417.69 12.5778V31.0889C417.69 36.9308 412.98 41.6667 407.171 41.6667H349.319C343.509 41.6667 338.8 36.9308 338.8 31.0889V12.5778Z"/>
<path d="M345.637 14.4289C345.637 11.5079 347.992 9.14 350.896 9.14H405.593C408.498 9.14 410.852 11.5079 410.852 14.4289V29.5022C410.852 32.4232 408.498 34.7911 405.593 34.7911H350.896C347.992 34.7911 345.637 32.4232 345.637 29.5022V14.4289Z"/>
<path d="M373.774 41.6667H382.452V47.4844H373.774V41.6667Z"/>
<path d="M396.977 60.8612L403.859 59.1071L407.606 73.9749L400.724 75.7289L396.977 60.8612Z"/>
<path d="M401.789 81.141L408.881 80.8044L409.6 96.1252L402.508 96.4617L401.789 81.141Z"/>
<path fill-rule="evenodd" clip-rule="evenodd" d="M413.495 103.437C413.41 104.223 413.129 105.666 412.957 106.555L408.834 106.025C409.134 104.225 409.951 101.538 408.816 100.036C407.65 98.4915 405.198 98.4402 403.961 99.9294C402.868 101.244 403.348 104.122 403.541 105.809L399.331 106.062C399.232 105.162 399.151 103.656 399.13 102.866C398.829 91.586 414.709 92.1927 413.495 103.437Z"/>
<path d="M404.994 54.9986C405.743 57.9717 403.954 60.9926 400.998 61.7461C398.041 62.4995 395.037 60.7002 394.288 57.7272C393.539 54.7541 395.328 51.7332 398.285 50.9798C401.241 50.2263 404.245 52.0256 404.994 54.9986Z"/>
<path d="M410.485 76.7876C411.235 79.7606 409.445 82.7815 406.489 83.535C403.533 84.2884 400.529 82.4891 399.779 79.5161C399.03 76.5431 400.819 73.5222 403.776 72.7687C406.732 72.0152 409.736 73.8145 410.485 76.7876Z"/>
<path d="M359.547 60.8457L352.665 59.0916L348.918 73.9594L355.8 75.7134L359.547 60.8457Z"/>
<path d="M354.735 81.1255L347.643 80.789L346.924 96.1097L354.016 96.4463L354.735 81.1255Z"/>
<path fill-rule="evenodd" clip-rule="evenodd" d="M343.029 103.422C343.114 104.208 343.395 105.651 343.566 106.54L347.69 106.01C347.39 104.209 346.573 101.523 347.708 100.02C348.874 98.476 351.326 98.4247 352.563 99.9139C353.656 101.229 353.176 104.107 352.983 105.794L357.193 106.046C357.292 105.146 357.373 103.641 357.394 102.85C357.695 91.5705 341.815 92.1772 343.029 103.422Z"/>
<path d="M351.53 54.9832C350.78 57.9562 352.57 60.9771 355.526 61.7306C358.482 62.484 361.486 60.6847 362.236 57.7117C362.985 54.7387 361.196 51.7177 358.239 50.9643C355.283 50.2108 352.279 52.0101 351.53 54.9832Z"/>
<path d="M346.039 76.7721C345.289 79.7451 347.079 82.766 350.035 83.5195C352.991 84.273 355.995 82.4737 356.745 79.5006C357.494 76.5276 355.705 73.5067 352.748 72.7532C349.792 71.9997 346.788 73.799 346.039 76.7721Z"/>
<path d="M359.574 52.7733C359.574 49.8524 361.929 47.4844 364.834 47.4844H391.656C394.561 47.4844 396.915 49.8524 396.915 52.7733V114.918C396.915 117.839 394.561 120.207 391.656 120.207H364.834C361.929 120.207 359.574 117.839 359.574 114.918V52.7733Z"/>
<path d="M368.515 19.5856C368.515 22.2875 366.396 24.4778 363.782 24.4778C361.168 24.4778 359.048 22.2875 359.048 19.5856C359.048 16.8837 361.168 14.6933 363.782 14.6933C366.396 14.6933 368.515 16.8837 368.515 19.5856Z"/>
<path d="M397.178 19.5856C397.178 22.2875 395.059 24.4778 392.445 24.4778C389.831 24.4778 387.712 22.2875 387.712 19.5856C387.712 16.8837 389.831 14.6933 392.445 14.6933C395.059 14.6933 397.178 16.8837 397.178 19.5856Z"/>
<path d="M378.243 29.1094C380.339 29.1094 382.318 28.1964 383.659 26.6112C384.207 25.9644 385.187 25.882 385.838 26.4146C386.496 26.9536 386.586 27.911 386.038 28.5578C384.104 30.8405 381.261 32.1467 378.243 32.1467C375.226 32.1467 372.383 30.8405 370.449 28.5578C369.907 27.911 369.991 26.9536 370.649 26.4146C371.3 25.882 372.28 25.9644 372.828 26.6112C374.169 28.2027 376.148 29.1094 378.243 29.1094Z"/>
<path d="M2 145V4.99995H51L75.2 127H78.8L103 4.99995H152V145H126.4V24.4H122.8L98.8 145H55.2L31.2 24.4H27.6V145H2Z"/>
<path d="M179.167 145V45.8H204.367V145H179.167ZM191.767 34.2C187.234 34.2 183.367 32.7333 180.167 29.8C177.101 26.8666 175.567 23 175.567 18.2C175.567 13.4 177.101 9.53329 180.167 6.59995C183.367 3.66662 187.234 2.19995 191.767 2.19995C196.434 2.19995 200.301 3.66662 203.367 6.59995C206.434 9.53329 207.967 13.4 207.967 18.2C207.967 23 206.434 26.8666 203.367 29.8C200.301 32.7333 196.434 34.2 191.767 34.2Z"/>
<path d="M232.292 145V45.8H257.092V58.8H260.692C262.292 55.3333 265.292 52.0666 269.692 49C274.092 45.8 280.759 44.2 289.692 44.2C297.426 44.2 304.159 46 309.892 49.6C315.759 53.0666 320.292 57.9333 323.492 64.2C326.692 70.3333 328.292 77.5333 328.292 85.8V145H303.092V87.8C303.092 80.3333 301.226 74.7333 297.492 71C293.892 67.2666 288.692 65.4 281.892 65.4C274.159 65.4 268.159 68 263.892 73.2C259.626 78.2666 257.492 85.4 257.492 94.6V145H232.292Z"/>
<path d="M454.641 145V121.8H473.041V28.2H454.641V4.99995H512.241C531.041 4.99995 545.307 9.79995 555.041 19.4C564.907 28.8666 569.841 43 569.841 61.8V88.2C569.841 107 564.907 121.2 555.041 130.8C545.307 140.267 531.041 145 512.241 145H454.641ZM499.441 121H512.641C523.307 121 531.107 118.2 536.041 112.6C540.974 107 543.441 99.1333 543.441 89V61C543.441 50.7333 540.974 42.8666 536.041 37.4C531.107 31.8 523.307 29 512.641 29H499.441V121Z"/>
<path d="M637.844 147.8C627.977 147.8 619.244 145.733 611.644 141.6C604.177 137.333 598.31 131.4 594.044 123.8C589.91 116.067 587.844 107 587.844 96.6V94.2C587.844 83.8 589.91 74.8 594.044 67.2C598.177 59.4666 603.977 53.5333 611.444 49.4C618.91 45.1333 627.577 43 637.444 43C647.177 43 655.644 45.2 662.844 49.6C670.044 53.8666 675.644 59.8666 679.644 67.6C683.644 75.2 685.644 84.0666 685.644 94.2V102.8H613.444C613.71 109.6 616.244 115.133 621.044 119.4C625.844 123.667 631.71 125.8 638.644 125.8C645.71 125.8 650.91 124.267 654.244 121.2C657.577 118.133 660.11 114.733 661.844 111L682.444 121.8C680.577 125.267 677.844 129.067 674.244 133.2C670.777 137.2 666.11 140.667 660.244 143.6C654.377 146.4 646.91 147.8 637.844 147.8ZM613.644 84H660.044C659.51 78.2666 657.177 73.6666 653.044 70.2C649.044 66.7333 643.777 65 637.244 65C630.444 65 625.044 66.7333 621.044 70.2C617.044 73.6666 614.577 78.2666 613.644 84Z"/>
<path d="M749.273 147.8C736.34 147.8 725.74 145 717.473 139.4C709.207 133.8 704.207 125.8 702.473 115.4L725.673 109.4C726.607 114.067 728.14 117.733 730.273 120.4C732.54 123.067 735.273 125 738.473 126.2C741.807 127.267 745.407 127.8 749.273 127.8C755.14 127.8 759.473 126.8 762.273 124.8C765.073 122.667 766.473 120.067 766.473 117C766.473 113.933 765.14 111.6 762.473 110C759.807 108.267 755.54 106.867 749.673 105.8L744.073 104.8C737.14 103.467 730.807 101.667 725.073 99.4C719.34 97 714.74 93.7333 711.273 89.6C707.807 85.4666 706.073 80.1333 706.073 73.6C706.073 63.7333 709.673 56.2 716.873 51C724.073 45.6666 733.54 43 745.273 43C756.34 43 765.54 45.4666 772.873 50.4C780.207 55.3333 785.007 61.8 787.273 69.8L763.873 77C762.807 71.9333 760.607 68.3333 757.273 66.2C754.073 64.0666 750.073 63 745.273 63C740.473 63 736.807 63.8666 734.273 65.6C731.74 67.2 730.473 69.4666 730.473 72.4C730.473 75.6 731.807 78 734.473 79.6C737.14 81.0666 740.74 82.2 745.273 83L750.873 84C758.34 85.3333 765.073 87.1333 771.073 89.4C777.207 91.5333 782.007 94.6666 785.473 98.8C789.073 102.8 790.873 108.267 790.873 115.2C790.873 125.6 787.073 133.667 779.473 139.4C772.007 145 761.94 147.8 749.273 147.8Z"/>
<path d="M812.956 145V45.8H838.156V145H812.956ZM825.556 34.2C821.023 34.2 817.156 32.7333 813.956 29.8C810.89 26.8666 809.356 23 809.356 18.2C809.356 13.4 810.89 9.53329 813.956 6.59995C817.156 3.66662 821.023 2.19995 825.556 2.19995C830.223 2.19995 834.09 3.66662 837.156 6.59995C840.223 9.53329 841.756 13.4 841.756 18.2C841.756 23 840.223 26.8666 837.156 29.8C834.09 32.7333 830.223 34.2 825.556 34.2Z"/>
<path d="M861.281 95.8V92.6C861.281 82.2 863.348 73.3333 867.481 66C871.615 58.5333 877.081 52.8666 883.881 49C890.815 45 898.348 43 906.481 43C915.548 43 922.415 44.6 927.081 47.8C931.748 51 935.148 54.3333 937.281 57.8H940.881V45.8H965.681V162.6C965.681 169.4 963.681 174.8 959.681 178.8C955.681 182.933 950.348 185 943.681 185H877.281V163H934.881C938.615 163 940.481 161 940.481 157V131.2H936.881C935.548 133.333 933.681 135.533 931.281 137.8C928.881 139.933 925.681 141.733 921.681 143.2C917.681 144.667 912.615 145.4 906.481 145.4C898.348 145.4 890.815 143.467 883.881 139.6C877.081 135.6 871.615 129.933 867.481 122.6C863.348 115.133 861.281 106.2 861.281 95.8ZM913.681 123.4C921.415 123.4 927.881 120.933 933.081 116C938.281 111.067 940.881 104.133 940.881 95.2V93.2C940.881 84.1333 938.281 77.2 933.081 72.4C928.015 67.4666 921.548 65 913.681 65C905.948 65 899.481 67.4666 894.281 72.4C889.081 77.2 886.481 84.1333 886.481 93.2V95.2C886.481 104.133 889.081 111.067 894.281 116C899.481 120.933 905.948 123.4 913.681 123.4Z"/>
<path d="M993.62 145V45.8H1018.42V58.8H1022.02C1023.62 55.3333 1026.62 52.0666 1031.02 49C1035.42 45.8 1042.09 44.2 1051.02 44.2C1058.75 44.2 1065.49 46 1071.22 49.6C1077.09 53.0666 1081.62 57.9333 1084.82 64.2C1088.02 70.3333 1089.62 77.5333 1089.62 85.8V145H1064.42V87.8C1064.42 80.3333 1062.55 74.7333 1058.82 71C1055.22 67.2666 1050.02 65.4 1043.22 65.4C1035.49 65.4 1029.49 68 1025.22 73.2C1020.95 78.2666 1018.82 85.4 1018.82 94.6V145H993.62Z"/>
</mask>
<path d="M377.986 110.951C368.704 110.951 361.32 118.543 361.526 127.876C361.732 137.208 369.452 144.8 378.734 144.8C388.016 144.8 395.4 137.208 395.194 127.876C394.988 118.543 387.268 110.951 377.986 110.951ZM378.626 139.896C378.089 139.896 377.56 139.86 377.041 139.792C374.797 139.494 372.734 138.575 371.035 137.212C370.389 136.694 369.796 136.112 369.265 135.476C367.848 133.78 366.875 131.697 366.535 129.414C366.46 128.911 366.415 128.397 366.404 127.876C366.397 127.557 366.402 127.241 366.419 126.929C366.555 124.479 367.426 122.235 368.818 120.418C369.322 119.759 369.895 119.156 370.526 118.62C372.309 117.105 374.557 116.12 377.041 115.901C377.387 115.871 377.739 115.855 378.094 115.855C378.573 115.855 379.047 115.883 379.512 115.938C381.924 116.224 384.134 117.227 385.917 118.73C386.55 119.263 387.129 119.859 387.645 120.508C389.077 122.309 390.019 124.519 390.259 126.929C390.29 127.241 390.309 127.557 390.316 127.876C390.328 128.397 390.306 128.911 390.253 129.414C389.997 131.851 389.011 134.059 387.514 135.814C386.993 136.424 386.411 136.979 385.775 137.47C384.023 138.825 381.87 139.689 379.512 139.863C379.22 139.885 378.924 139.896 378.626 139.896Z" fill="#424242"/>
<path d="M375.293 129.414L376.529 128.172L375.293 126.929H366.419C366.402 127.241 366.397 127.557 366.404 127.876C366.415 128.397 366.46 128.911 366.535 129.414H375.293Z" fill="#424242"/>
<path d="M377.041 126.929V125.214L370.526 118.62C369.895 119.156 369.322 119.759 368.818 120.418L375.293 126.929H377.041Z" fill="#424242"/>
<path d="M379.512 115.938C379.047 115.883 378.573 115.855 378.094 115.855C377.739 115.855 377.387 115.871 377.041 115.901V125.214L378.251 126.439L379.512 125.171V115.938Z" fill="#424242"/>
<path d="M381.26 126.929L387.645 120.508C387.129 119.859 386.55 119.263 385.917 118.73L379.512 125.171V126.929H381.26Z" fill="#424242"/>
<path d="M390.253 129.414C390.306 128.911 390.328 128.397 390.316 127.876C390.309 127.557 390.29 127.241 390.259 126.929H381.26L379.993 128.202L381.191 129.414H390.253Z" fill="#424242"/>
<path d="M385.775 137.47C386.411 136.979 386.993 136.424 387.514 135.814L381.191 129.414H379.512V131.172L385.775 137.47Z" fill="#424242"/>
<path d="M377.041 139.792C377.56 139.86 378.089 139.896 378.626 139.896C378.924 139.896 379.22 139.885 379.512 139.863V131.172L378.276 129.929L377.041 131.172V139.792Z" fill="#424242"/>
<path d="M369.265 135.476C369.796 136.112 370.389 136.694 371.035 137.212L377.041 131.172V129.414H375.293L369.265 135.476Z" fill="#424242"/>
<path d="M376.529 128.172L375.293 129.414H377.041V128.686L376.529 128.172Z" fill="#424242"/>
<path d="M375.293 126.929L376.529 128.172L377.041 127.657V126.929H375.293Z" fill="#424242"/>
<path d="M377.041 125.214V126.929H377.764L378.251 126.439L377.041 125.214Z" fill="#424242"/>
<path d="M379.512 125.171L378.251 126.439L378.735 126.929H379.512V125.171Z" fill="#424242"/>
<path d="M381.26 126.929H379.512V127.715L379.993 128.202L381.26 126.929Z" fill="#424242"/>
<path d="M381.191 129.414L379.993 128.202L379.512 128.686V129.414H381.191Z" fill="#424242"/>
<path d="M379.512 131.172V129.414H378.788L378.276 129.929L379.512 131.172Z" fill="#424242"/>
<path d="M377.041 131.172L378.276 129.929L377.764 129.414H377.041V131.172Z" fill="#424242"/>
<path d="M378.788 129.414H377.764L378.276 129.929L378.788 129.414Z" fill="#424242"/>
<path d="M379.512 128.686L378.788 129.414H379.512V128.686Z" fill="#424242"/>
<path d="M379.512 127.715V128.686L379.993 128.202L379.512 127.715Z" fill="#424242"/>
<path d="M377.041 127.657V128.686L377.764 129.414H378.788L379.512 128.686V127.715L378.735 126.929H377.764L377.041 127.657Z" fill="#424242"/>
<path d="M378.735 126.929L379.512 127.715V126.929H378.735Z" fill="#424242"/>
<path d="M377.764 126.929H378.735L378.251 126.439L377.764 126.929Z" fill="#424242"/>
<path d="M377.041 126.929V127.657L377.764 126.929H377.041Z" fill="#424242"/>
<path d="M376.529 128.172L377.041 128.686V127.657L376.529 128.172Z" fill="#424242"/>
<path d="M377.041 128.686V129.414H377.764L377.041 128.686Z" fill="#424242"/>
<path d="M381.273 128.139C381.273 129.708 380.008 130.979 378.448 130.979C376.888 130.979 375.624 129.708 375.624 128.139C375.624 126.57 376.888 125.298 378.448 125.298C380.008 125.298 381.273 126.57 381.273 128.139Z" fill="#D9D9D9"/>
<path d="M377.041 119.828H379.865V127.82C379.865 128.112 379.63 128.349 379.339 128.349H377.566C377.276 128.349 377.041 128.112 377.041 127.82V119.828Z" fill="#D9D9D9"/>
<path d="M338.8 12.5778C338.8 6.73583 343.509 2 349.319 2H407.171C412.98 2 417.69 6.73583 417.69 12.5778V31.0889C417.69 36.9308 412.98 41.6667 407.171 41.6667H349.319C343.509 41.6667 338.8 36.9308 338.8 31.0889V12.5778Z" fill="#F5F5F7"/>
<path d="M345.637 14.4289C345.637 11.5079 347.992 9.14 350.896 9.14H405.593C408.498 9.14 410.852 11.5079 410.852 14.4289V29.5022C410.852 32.4232 408.498 34.7911 405.593 34.7911H350.896C347.992 34.7911 345.637 32.4232 345.637 29.5022V14.4289Z" fill="#5246FF"/>
<path d="M373.774 41.6667H382.452V47.4844H373.774V41.6667Z" fill="#F5F5F7"/>
<path d="M396.977 60.8612L403.859 59.1071L407.606 73.9749L400.724 75.7289L396.977 60.8612Z" fill="#424242"/>
<path d="M401.789 81.141L408.881 80.8044L409.6 96.1252L402.508 96.4617L401.789 81.141Z" fill="#424242"/>
<path fill-rule="evenodd" clip-rule="evenodd" d="M413.495 103.437C413.41 104.223 413.129 105.666 412.957 106.555L408.834 106.025C409.134 104.225 409.951 101.538 408.816 100.036C407.65 98.4915 405.198 98.4402 403.961 99.9294C402.868 101.244 403.348 104.122 403.541 105.809L399.331 106.062C399.232 105.162 399.151 103.656 399.13 102.866C398.829 91.586 414.709 92.1927 413.495 103.437Z" fill="#737373"/>
<path d="M404.994 54.9986C405.743 57.9717 403.954 60.9926 400.998 61.7461C398.041 62.4995 395.037 60.7002 394.288 57.7272C393.539 54.7541 395.328 51.7332 398.285 50.9798C401.241 50.2263 404.245 52.0256 404.994 54.9986Z" fill="#737373"/>
<path d="M410.485 76.7876C411.235 79.7606 409.445 82.7815 406.489 83.535C403.533 84.2884 400.529 82.4891 399.779 79.5161C399.03 76.5431 400.819 73.5222 403.776 72.7687C406.732 72.0152 409.736 73.8145 410.485 76.7876Z" fill="#737373"/>
<path d="M359.547 60.8457L352.665 59.0916L348.918 73.9594L355.8 75.7134L359.547 60.8457Z" fill="#424242"/>
<path d="M354.735 81.1255L347.643 80.789L346.924 96.1097L354.016 96.4463L354.735 81.1255Z" fill="#424242"/>
<path fill-rule="evenodd" clip-rule="evenodd" d="M343.029 103.422C343.114 104.208 343.395 105.651 343.566 106.54L347.69 106.01C347.39 104.209 346.573 101.523 347.708 100.02C348.874 98.476 351.326 98.4247 352.563 99.9139C353.656 101.229 353.176 104.107 352.983 105.794L357.193 106.046C357.292 105.146 357.373 103.641 357.394 102.85C357.695 91.5705 341.815 92.1772 343.029 103.422Z" fill="#737373"/>
<path d="M351.53 54.9832C350.78 57.9562 352.57 60.9771 355.526 61.7306C358.482 62.484 361.486 60.6847 362.236 57.7117C362.985 54.7387 361.196 51.7177 358.239 50.9643C355.283 50.2108 352.279 52.0101 351.53 54.9832Z" fill="#737373"/>
<path d="M346.039 76.7721C345.289 79.7451 347.079 82.766 350.035 83.5195C352.991 84.273 355.995 82.4737 356.745 79.5006C357.494 76.5276 355.705 73.5067 352.748 72.7532C349.792 71.9997 346.788 73.799 346.039 76.7721Z" fill="#737373"/>
<path d="M359.574 52.7733C359.574 49.8524 361.929 47.4844 364.834 47.4844H391.656C394.561 47.4844 396.915 49.8524 396.915 52.7733V114.918C396.915 117.839 394.561 120.207 391.656 120.207H364.834C361.929 120.207 359.574 117.839 359.574 114.918V52.7733Z" fill="#F5F5F7"/>
<path d="M368.515 19.5856C368.515 22.2875 366.396 24.4778 363.782 24.4778C361.168 24.4778 359.048 22.2875 359.048 19.5856C359.048 16.8837 361.168 14.6933 363.782 14.6933C366.396 14.6933 368.515 16.8837 368.515 19.5856Z" fill="white"/>
<path d="M397.178 19.5856C397.178 22.2875 395.059 24.4778 392.445 24.4778C389.831 24.4778 387.712 22.2875 387.712 19.5856C387.712 16.8837 389.831 14.6933 392.445 14.6933C395.059 14.6933 397.178 16.8837 397.178 19.5856Z" fill="white"/>
<path d="M378.243 29.1094C380.339 29.1094 382.318 28.1964 383.659 26.6112C384.207 25.9644 385.187 25.882 385.838 26.4146C386.496 26.9536 386.586 27.911 386.038 28.5578C384.104 30.8405 381.261 32.1467 378.243 32.1467C375.226 32.1467 372.383 30.8405 370.449 28.5578C369.907 27.911 369.991 26.9536 370.649 26.4146C371.3 25.882 372.28 25.9644 372.828 26.6112C374.169 28.2027 376.148 29.1094 378.243 29.1094Z" fill="white"/>
<path d="M2 145V4.99995H51L75.2 127H78.8L103 4.99995H152V145H126.4V24.4H122.8L98.8 145H55.2L31.2 24.4H27.6V145H2Z" fill="white"/>
<path d="M179.167 145V45.8H204.367V145H179.167ZM191.767 34.2C187.234 34.2 183.367 32.7333 180.167 29.8C177.101 26.8666 175.567 23 175.567 18.2C175.567 13.4 177.101 9.53329 180.167 6.59995C183.367 3.66662 187.234 2.19995 191.767 2.19995C196.434 2.19995 200.301 3.66662 203.367 6.59995C206.434 9.53329 207.967 13.4 207.967 18.2C207.967 23 206.434 26.8666 203.367 29.8C200.301 32.7333 196.434 34.2 191.767 34.2Z" fill="white"/>
<path d="M232.292 145V45.8H257.092V58.8H260.692C262.292 55.3333 265.292 52.0666 269.692 49C274.092 45.8 280.759 44.2 289.692 44.2C297.426 44.2 304.159 46 309.892 49.6C315.759 53.0666 320.292 57.9333 323.492 64.2C326.692 70.3333 328.292 77.5333 328.292 85.8V145H303.092V87.8C303.092 80.3333 301.226 74.7333 297.492 71C293.892 67.2666 288.692 65.4 281.892 65.4C274.159 65.4 268.159 68 263.892 73.2C259.626 78.2666 257.492 85.4 257.492 94.6V145H232.292Z" fill="white"/>
<path d="M454.641 145V121.8H473.041V28.2H454.641V4.99995H512.241C531.041 4.99995 545.307 9.79995 555.041 19.4C564.907 28.8666 569.841 43 569.841 61.8V88.2C569.841 107 564.907 121.2 555.041 130.8C545.307 140.267 531.041 145 512.241 145H454.641ZM499.441 121H512.641C523.307 121 531.107 118.2 536.041 112.6C540.974 107 543.441 99.1333 543.441 89V61C543.441 50.7333 540.974 42.8666 536.041 37.4C531.107 31.8 523.307 29 512.641 29H499.441V121Z" fill="white"/>
<path d="M637.844 147.8C627.977 147.8 619.244 145.733 611.644 141.6C604.177 137.333 598.31 131.4 594.044 123.8C589.91 116.067 587.844 107 587.844 96.6V94.2C587.844 83.8 589.91 74.8 594.044 67.2C598.177 59.4666 603.977 53.5333 611.444 49.4C618.91 45.1333 627.577 43 637.444 43C647.177 43 655.644 45.2 662.844 49.6C670.044 53.8666 675.644 59.8666 679.644 67.6C683.644 75.2 685.644 84.0666 685.644 94.2V102.8H613.444C613.71 109.6 616.244 115.133 621.044 119.4C625.844 123.667 631.71 125.8 638.644 125.8C645.71 125.8 650.91 124.267 654.244 121.2C657.577 118.133 660.11 114.733 661.844 111L682.444 121.8C680.577 125.267 677.844 129.067 674.244 133.2C670.777 137.2 666.11 140.667 660.244 143.6C654.377 146.4 646.91 147.8 637.844 147.8ZM613.644 84H660.044C659.51 78.2666 657.177 73.6666 653.044 70.2C649.044 66.7333 643.777 65 637.244 65C630.444 65 625.044 66.7333 621.044 70.2C617.044 73.6666 614.577 78.2666 613.644 84Z" fill="white"/>
<path d="M749.273 147.8C736.34 147.8 725.74 145 717.473 139.4C709.207 133.8 704.207 125.8 702.473 115.4L725.673 109.4C726.607 114.067 728.14 117.733 730.273 120.4C732.54 123.067 735.273 125 738.473 126.2C741.807 127.267 745.407 127.8 749.273 127.8C755.14 127.8 759.473 126.8 762.273 124.8C765.073 122.667 766.473 120.067 766.473 117C766.473 113.933 765.14 111.6 762.473 110C759.807 108.267 755.54 106.867 749.673 105.8L744.073 104.8C737.14 103.467 730.807 101.667 725.073 99.4C719.34 97 714.74 93.7333 711.273 89.6C707.807 85.4666 706.073 80.1333 706.073 73.6C706.073 63.7333 709.673 56.2 716.873 51C724.073 45.6666 733.54 43 745.273 43C756.34 43 765.54 45.4666 772.873 50.4C780.207 55.3333 785.007 61.8 787.273 69.8L763.873 77C762.807 71.9333 760.607 68.3333 757.273 66.2C754.073 64.0666 750.073 63 745.273 63C740.473 63 736.807 63.8666 734.273 65.6C731.74 67.2 730.473 69.4666 730.473 72.4C730.473 75.6 731.807 78 734.473 79.6C737.14 81.0666 740.74 82.2 745.273 83L750.873 84C758.34 85.3333 765.073 87.1333 771.073 89.4C777.207 91.5333 782.007 94.6666 785.473 98.8C789.073 102.8 790.873 108.267 790.873 115.2C790.873 125.6 787.073 133.667 779.473 139.4C772.007 145 761.94 147.8 749.273 147.8Z" fill="white"/>
<path d="M812.956 145V45.8H838.156V145H812.956ZM825.556 34.2C821.023 34.2 817.156 32.7333 813.956 29.8C810.89 26.8666 809.356 23 809.356 18.2C809.356 13.4 810.89 9.53329 813.956 6.59995C817.156 3.66662 821.023 2.19995 825.556 2.19995C830.223 2.19995 834.09 3.66662 837.156 6.59995C840.223 9.53329 841.756 13.4 841.756 18.2C841.756 23 840.223 26.8666 837.156 29.8C834.09 32.7333 830.223 34.2 825.556 34.2Z" fill="white"/>
<path d="M861.281 95.8V92.6C861.281 82.2 863.348 73.3333 867.481 66C871.615 58.5333 877.081 52.8666 883.881 49C890.815 45 898.348 43 906.481 43C915.548 43 922.415 44.6 927.081 47.8C931.748 51 935.148 54.3333 937.281 57.8H940.881V45.8H965.681V162.6C965.681 169.4 963.681 174.8 959.681 178.8C955.681 182.933 950.348 185 943.681 185H877.281V163H934.881C938.615 163 940.481 161 940.481 157V131.2H936.881C935.548 133.333 933.681 135.533 931.281 137.8C928.881 139.933 925.681 141.733 921.681 143.2C917.681 144.667 912.615 145.4 906.481 145.4C898.348 145.4 890.815 143.467 883.881 139.6C877.081 135.6 871.615 129.933 867.481 122.6C863.348 115.133 861.281 106.2 861.281 95.8ZM913.681 123.4C921.415 123.4 927.881 120.933 933.081 116C938.281 111.067 940.881 104.133 940.881 95.2V93.2C940.881 84.1333 938.281 77.2 933.081 72.4C928.015 67.4666 921.548 65 913.681 65C905.948 65 899.481 67.4666 894.281 72.4C889.081 77.2 886.481 84.1333 886.481 93.2V95.2C886.481 104.133 889.081 111.067 894.281 116C899.481 120.933 905.948 123.4 913.681 123.4Z" fill="white"/>
<path d="M993.62 145V45.8H1018.42V58.8H1022.02C1023.62 55.3333 1026.62 52.0666 1031.02 49C1035.42 45.8 1042.09 44.2 1051.02 44.2C1058.75 44.2 1065.49 46 1071.22 49.6C1077.09 53.0666 1081.62 57.9333 1084.82 64.2C1088.02 70.3333 1089.62 77.5333 1089.62 85.8V145H1064.42V87.8C1064.42 80.3333 1062.55 74.7333 1058.82 71C1055.22 67.2666 1050.02 65.4 1043.22 65.4C1035.49 65.4 1029.49 68 1025.22 73.2C1020.95 78.2666 1018.82 85.4 1018.82 94.6V145H993.62Z" fill="white"/>
<path d="M366.404 127.876L367.404 127.853L366.404 127.876ZM390.316 127.876L389.317 127.898L390.316 127.876ZM375.293 129.414L374.584 128.709L372.888 130.414H375.293V129.414ZM375.293 126.929V125.929H372.888L374.584 127.634L375.293 126.929ZM377.041 125.214L377.752 124.511L376.041 122.779V125.214H377.041ZM379.512 125.171H380.512V122.748L378.803 124.466L379.512 125.171ZM381.26 126.929L381.969 127.634L383.664 125.929H381.26V126.929ZM381.191 129.414V130.414H383.585L381.902 128.712L381.191 129.414ZM379.512 131.172L378.803 131.877L380.512 133.596V131.172H379.512ZM377.041 131.172H376.041V133.596L377.75 131.877L377.041 131.172ZM371.035 137.212L371.66 136.432C371.066 135.955 370.521 135.42 370.033 134.835L369.265 135.476L368.497 136.117C369.071 136.804 369.711 137.432 370.409 137.992L371.035 137.212ZM378.626 139.896V138.896C378.133 138.896 377.648 138.863 377.172 138.8L377.041 139.792L376.909 140.783C377.472 140.858 378.045 140.896 378.626 140.896V139.896ZM379.512 139.863L379.438 138.866C379.171 138.886 378.9 138.896 378.626 138.896V139.896V140.896C378.949 140.896 379.269 140.884 379.586 140.861L379.512 139.863ZM387.514 135.814L386.753 135.165C386.277 135.723 385.744 136.23 385.164 136.679L385.775 137.47L386.387 138.262C387.077 137.728 387.709 137.125 388.275 136.463L387.514 135.814ZM390.316 127.876L389.317 127.898C389.327 128.377 389.307 128.848 389.259 129.31L390.253 129.414L391.248 129.519C391.305 128.973 391.329 128.417 391.316 127.853L390.316 127.876ZM390.259 126.929L389.264 127.028C389.292 127.315 389.31 127.605 389.317 127.898L390.316 127.876L391.316 127.853C391.308 127.509 391.288 127.168 391.254 126.83L390.259 126.929ZM385.917 118.73L385.273 119.495C385.855 119.985 386.388 120.533 386.862 121.13L387.645 120.508L388.428 119.886C387.871 119.185 387.245 118.541 386.562 117.965L385.917 118.73ZM378.094 115.855V116.855C378.534 116.855 378.968 116.881 379.395 116.932L379.512 115.938L379.63 114.945C379.125 114.886 378.613 114.855 378.094 114.855V115.855ZM377.041 115.901L377.128 116.897C377.446 116.869 377.768 116.855 378.094 116.855V115.855V114.855C377.71 114.855 377.329 114.872 376.953 114.905L377.041 115.901ZM368.818 120.418L369.612 121.026C370.073 120.423 370.597 119.872 371.173 119.382L370.526 118.62L369.878 117.858C369.193 118.44 368.571 119.095 368.024 119.809L368.818 120.418ZM366.404 127.876L367.404 127.853C367.397 127.561 367.402 127.271 367.418 126.984L366.419 126.929L365.421 126.874C365.402 127.212 365.396 127.553 365.404 127.898L366.404 127.876ZM366.535 129.414L367.524 129.267C367.455 128.804 367.414 128.333 367.404 127.853L366.404 127.876L365.404 127.898C365.416 128.461 365.464 129.017 365.546 129.562L366.535 129.414ZM375.293 129.414L376.002 130.12L377.238 128.877L376.529 128.172L375.82 127.467L374.584 128.709L375.293 129.414ZM376.529 128.172L377.238 127.467L376.002 126.224L375.293 126.929L374.584 127.634L375.82 128.877L376.529 128.172ZM377.041 126.929H378.041V125.214H377.041H376.041V126.929H377.041ZM375.293 126.929V127.929H377.041V126.929V125.929H375.293V126.929ZM377.041 125.214L376.329 125.917L377.54 127.142L378.251 126.439L378.963 125.736L377.752 124.511L377.041 125.214ZM378.251 126.439L378.96 127.144L380.221 125.877L379.512 125.171L378.803 124.466L377.542 125.734L378.251 126.439ZM379.512 125.171H378.512V126.929H379.512H380.512V125.171H379.512ZM379.512 126.929V127.929H381.26V126.929V125.929H379.512V126.929ZM381.26 126.929L380.551 126.224L379.284 127.497L379.993 128.202L380.702 128.907L381.969 127.634L381.26 126.929ZM379.993 128.202L379.282 128.905L380.48 130.117L381.191 129.414L381.902 128.712L380.705 127.5L379.993 128.202ZM381.191 129.414V128.414H379.512V129.414V130.414H381.191V129.414ZM379.512 129.414H378.512V131.172H379.512H380.512V129.414H379.512ZM379.512 131.172L380.221 130.467L378.985 129.224L378.276 129.929L377.567 130.634L378.803 131.877L379.512 131.172ZM378.276 129.929L377.567 129.224L376.331 130.467L377.041 131.172L377.75 131.877L378.985 130.634L378.276 129.929ZM377.041 131.172H378.041V129.414H377.041H376.041V131.172H377.041ZM377.041 129.414V128.414H375.293V129.414V130.414H377.041V129.414ZM377.041 129.414H378.041V128.686H377.041H376.041V129.414H377.041ZM377.041 128.686L377.75 127.981L377.238 127.467L376.529 128.172L375.82 128.877L376.331 129.392L377.041 128.686ZM376.529 128.172L377.238 128.877L377.75 128.362L377.041 127.657L376.331 126.952L375.82 127.467L376.529 128.172ZM377.041 127.657H378.041V126.929H377.041H376.041V127.657H377.041ZM377.041 128.686H378.041V127.657H377.041H376.041V128.686H377.041ZM378.735 126.929V125.929H377.764V126.929V127.929H378.735V126.929ZM377.764 126.929L377.055 126.224L376.331 126.952L377.041 127.657L377.75 128.362L378.474 127.634L377.764 126.929ZM377.041 128.686L376.331 129.392L377.055 130.12L377.764 129.414L378.473 128.709L377.75 127.981L377.041 128.686ZM377.764 129.414V130.414H378.788V129.414V128.414H377.764V129.414ZM378.788 129.414L379.497 130.12L380.221 129.392L379.512 128.686L378.803 127.981L378.079 128.709L378.788 129.414ZM379.512 128.686H380.512V127.715H379.512H378.512V128.686H379.512ZM379.512 127.715L380.223 127.012L379.447 126.226L378.735 126.929L378.024 127.632L378.801 128.418L379.512 127.715ZM379.512 126.929H378.512V127.715H379.512H380.512V126.929H379.512ZM379.512 128.686H378.512V129.414H379.512H380.512V128.686H379.512ZM377.041 126.929V127.929H377.764V126.929V125.929H377.041V126.929ZM378.735 126.929V127.929H379.512V126.929V125.929H378.735V126.929ZM378.276 129.929L378.985 129.224L378.473 128.709L377.764 129.414L377.055 130.12L377.567 130.634L378.276 129.929ZM379.512 129.414V128.414H378.788V129.414V130.414H379.512V129.414ZM377.764 129.414V128.414H377.041V129.414V130.414H377.764V129.414ZM379.993 128.202L379.284 127.497L378.803 127.981L379.512 128.686L380.221 129.392L380.702 128.907L379.993 128.202ZM378.788 129.414L378.079 128.709L377.567 129.224L378.276 129.929L378.985 130.634L379.497 130.12L378.788 129.414ZM377.764 126.929L378.474 127.634L378.96 127.144L378.251 126.439L377.542 125.734L377.055 126.224L377.764 126.929ZM378.251 126.439L377.54 127.142L378.024 127.632L378.735 126.929L379.447 126.226L378.963 125.736L378.251 126.439ZM379.512 127.715L378.801 128.418L379.282 128.905L379.993 128.202L380.705 127.5L380.223 127.012L379.512 127.715ZM400.9 71.0463L401.147 72.0153L405.598 70.8809L405.351 69.9119L405.104 68.9429L400.653 70.0773L400.9 71.0463ZM399.35 64.8941L399.597 65.8632L404.048 64.7288L403.801 63.7597L403.554 62.7907L399.103 63.9251L399.35 64.8941ZM400.125 67.9702L400.372 68.9392L404.823 67.8049L404.576 66.8358L404.329 65.8668L399.878 67.0012L400.125 67.9702ZM403.61 91.9089L403.658 92.9077L408.245 92.6901L408.197 91.6912L408.15 90.6923L403.563 90.91L403.61 91.9089ZM403.313 85.5692L403.36 86.5681L407.947 86.3504L407.9 85.3516L407.852 84.3527L403.266 84.5704L403.313 85.5692ZM403.462 88.7391L403.509 89.7379L408.096 89.5203L408.048 88.5214L408.001 87.5225L403.414 87.7402L403.462 88.7391ZM412.957 106.555L413.085 105.564L411.145 105.314L411.017 106.306L410.889 107.298L412.83 107.547L412.957 106.555ZM401.452 105.934L401.392 104.936L399.271 105.064L399.331 106.062L399.391 107.06L401.513 106.932L401.452 105.934ZM355.624 71.0308L355.871 70.0618L351.42 68.9274L351.173 69.8964L350.926 70.8655L355.377 71.9999L355.624 71.0308ZM357.174 64.8787L357.421 63.9096L352.97 62.7752L352.723 63.7443L352.476 64.7133L356.927 65.8477L357.174 64.8787ZM356.399 67.9548L356.646 66.9857L352.195 65.8513L351.948 66.8204L351.701 67.7894L356.152 68.9238L356.399 67.9548ZM352.913 91.8934L352.961 90.8945L348.374 90.6768L348.327 91.6757L348.279 92.6746L352.866 92.8923L352.913 91.8934ZM353.211 85.5538L353.258 84.5549L348.672 84.3372L348.624 85.3361L348.577 86.335L353.164 86.5526L353.211 85.5538ZM353.062 88.7236L353.11 87.7247L348.523 87.507L348.475 88.5059L348.428 89.5048L353.015 89.7224L353.062 88.7236ZM343.566 106.54L343.694 107.532L345.635 107.282L345.507 106.29L345.379 105.298L343.439 105.548L343.566 106.54ZM355.071 105.919L355.011 106.917L357.133 107.044L357.193 106.046L357.253 105.048L355.131 104.92L355.071 105.919ZM369.265 135.476L367.73 136.758L369.136 138.442L370.683 136.887L369.265 135.476ZM371.035 137.212L369.616 135.801L368.047 137.38L369.783 138.772L371.035 137.212ZM377.041 139.792L376.778 141.774L379.041 142.074V139.792H377.041ZM379.512 139.863H377.512V142.017L379.659 141.858L379.512 139.863ZM385.775 137.47L386.999 139.053L388.791 137.667L387.194 136.06L385.775 137.47ZM387.514 135.814L386.091 137.22L387.622 138.769L389.035 137.112L387.514 135.814ZM390.253 129.414L392.242 129.623L392.474 127.414H390.253V129.414ZM390.259 126.929V128.929H392.468L392.249 126.731L390.259 126.929ZM387.645 120.508L389.211 119.263L387.812 117.503L386.227 119.098L387.645 120.508ZM385.917 118.73L387.336 120.14L388.867 118.6L387.206 117.2L385.917 118.73ZM379.512 115.938L379.747 113.952L377.512 113.688V115.938H379.512ZM377.041 115.901H379.041V113.717L376.865 113.909L377.041 115.901ZM370.526 118.62L369.231 117.096L367.588 118.492L369.103 120.026L370.526 118.62ZM368.818 120.418L370.236 119.007L368.622 117.384L367.23 119.201L368.818 120.418ZM366.419 126.929L364.422 126.818L364.306 128.929H366.419V126.929ZM366.535 129.414V127.414H364.214L364.557 129.71L366.535 129.414ZM375.293 129.414L376.711 130.825L380.102 127.414H375.293V129.414ZM375.293 126.929V128.929H380.102L376.711 125.519L375.293 126.929ZM377.041 125.214L375.618 126.619L379.041 130.084V125.214H377.041ZM379.512 125.171H377.512V130.019L380.93 126.582L379.512 125.171ZM381.26 126.929L379.842 125.519L376.45 128.929H381.26V126.929ZM381.191 129.414V127.414H376.403L379.768 130.82L381.191 129.414ZM379.512 131.172L380.93 129.762L377.512 126.324V131.172H379.512ZM377.041 131.172H379.041V126.324L375.622 129.762L377.041 131.172ZM377.041 119.828V117.828H375.041V119.828H377.041ZM379.865 119.828H381.865V117.828H379.865V119.828ZM377.041 127.82L375.041 127.82L377.041 127.82ZM379.865 127.82L377.865 127.82L379.865 127.82ZM373.774 41.6667V39.6667H371.774V41.6667H373.774ZM382.452 41.6667H384.452V39.6667H382.452V41.6667ZM382.452 47.4844V49.4844H384.452V47.4844H382.452ZM373.774 47.4844H371.774V49.4844H373.774V47.4844ZM396.977 60.8612L396.483 58.9231L394.55 59.4157L395.038 61.3499L396.977 60.8612ZM403.859 59.1071L405.799 58.6184L405.309 56.6738L403.365 57.1691L403.859 59.1071ZM407.606 73.9749L408.1 75.9129L410.033 75.4203L409.546 73.4861L407.606 73.9749ZM400.724 75.7289L398.784 76.2177L399.274 78.1622L401.218 77.667L400.724 75.7289ZM401.789 81.141L401.694 79.1433L399.697 79.238L399.791 81.2348L401.789 81.141ZM408.881 80.8044L410.879 80.7107L410.785 78.7118L408.786 78.8067L408.881 80.8044ZM409.6 96.1252L409.695 98.1229L411.692 98.0282L411.598 96.0314L409.6 96.1252ZM402.508 96.4617L400.51 96.5555L400.604 98.5544L402.603 98.4595L402.508 96.4617ZM413.495 103.437L411.507 103.223L411.507 103.223L413.495 103.437ZM412.957 106.555L412.702 108.539L414.565 108.779L414.921 106.934L412.957 106.555ZM408.834 106.025L406.861 105.697L406.52 107.744L408.579 108.009L408.834 106.025ZM408.816 100.036L410.412 98.8304L410.412 98.8304L408.816 100.036ZM403.961 99.9294L405.499 101.208L405.499 101.208L403.961 99.9294ZM403.541 105.809L403.661 107.806L405.768 107.68L405.528 105.582L403.541 105.809ZM399.331 106.062L397.343 106.281L397.552 108.172L399.451 108.058L399.331 106.062ZM399.13 102.866L401.129 102.813L401.129 102.813L399.13 102.866ZM359.547 60.8457L361.486 61.3345L361.974 59.4003L360.041 58.9077L359.547 60.8457ZM352.665 59.0916L353.158 57.1536L351.215 56.6583L350.725 58.6029L352.665 59.0916ZM348.918 73.9594L346.978 73.4706L346.491 75.4048L348.424 75.8974L348.918 73.9594ZM355.8 75.7134L355.306 77.6515L357.249 78.1467L357.739 76.2022L355.8 75.7134ZM354.735 81.1255L356.733 81.2193L356.826 79.2226L354.83 79.1278L354.735 81.1255ZM347.643 80.789L347.738 78.7912L345.739 78.6963L345.645 80.6952L347.643 80.789ZM346.924 96.1097L344.926 96.0159L344.832 98.0127L346.829 98.1074L346.924 96.1097ZM354.016 96.4463L353.921 98.444L355.92 98.5389L356.014 96.54L354.016 96.4463ZM343.029 103.422L345.017 103.207L345.017 103.207L343.029 103.422ZM343.566 106.54L341.603 106.919L341.959 108.763L343.821 108.524L343.566 106.54ZM347.69 106.01L347.945 107.993L350.004 107.729L349.663 105.681L347.69 106.01ZM347.708 100.02L346.112 98.8149L346.111 98.815L347.708 100.02ZM352.563 99.9139L351.025 101.192L351.025 101.192L352.563 99.9139ZM352.983 105.794L350.996 105.566L350.755 107.664L352.863 107.79L352.983 105.794ZM357.193 106.046L357.073 108.043L358.972 108.156L359.181 106.265L357.193 106.046ZM357.394 102.85L355.395 102.797L355.395 102.797L357.394 102.85ZM383.659 26.6112L382.133 25.3183L382.132 25.3195L383.659 26.6112ZM372.828 26.6112L374.357 25.3225L374.354 25.3183L372.828 26.6112ZM370.649 26.4146L369.382 24.8665L369.381 24.8678L370.649 26.4146ZM370.449 28.5578L368.915 29.8418L368.923 29.8507L370.449 28.5578ZM386.038 28.5578L387.564 29.8507L387.564 29.8507L386.038 28.5578ZM385.838 26.4146L387.106 24.8678L387.104 24.8665L385.838 26.4146ZM2 145H0V147H2V145ZM2 4.99995V2.99995H0V4.99995H2ZM51 4.99995L52.9618 4.61081L52.6422 2.99995H51V4.99995ZM75.2 127L73.2382 127.389L73.5578 129H75.2V127ZM78.8 127V129H80.4422L80.7618 127.389L78.8 127ZM103 4.99995V2.99995H101.358L101.038 4.61081L103 4.99995ZM152 4.99995H154V2.99995H152V4.99995ZM152 145V147H154V145H152ZM126.4 145H124.4V147H126.4V145ZM126.4 24.4H128.4V22.4H126.4V24.4ZM122.8 24.4V22.4H121.159L120.838 24.0096L122.8 24.4ZM98.8 145V147H100.441L100.762 145.39L98.8 145ZM55.2 145L53.2385 145.39L53.5588 147H55.2V145ZM31.2 24.4L33.1615 24.0096L32.8412 22.4H31.2V24.4ZM27.6 24.4V22.4H25.6V24.4H27.6ZM27.6 145V147H29.6V145H27.6ZM179.167 145H177.167V147H179.167V145ZM179.167 45.8V43.8H177.167V45.8H179.167ZM204.367 45.8H206.367V43.8H204.367V45.8ZM204.367 145V147H206.367V145H204.367ZM180.167 29.8L178.785 31.2452L178.8 31.2599L178.816 31.2743L180.167 29.8ZM180.167 6.59995L178.816 5.12565L178.8 5.13999L178.785 5.15467L180.167 6.59995ZM232.292 145H230.292V147H232.292V145ZM232.292 45.8V43.8H230.292V45.8H232.292ZM257.092 45.8H259.092V43.8H257.092V45.8ZM257.092 58.8H255.092V60.8H257.092V58.8ZM260.692 58.8V60.8H261.972L262.508 59.6381L260.692 58.8ZM269.692 49L270.836 50.6408L270.852 50.6293L270.869 50.6174L269.692 49ZM309.892 49.6L308.829 51.2937L308.851 51.3081L308.875 51.3218L309.892 49.6ZM323.492 64.2L321.711 65.1095L321.715 65.1173L321.719 65.1251L323.492 64.2ZM328.292 145V147H330.292V145H328.292ZM303.092 145H301.092V147H303.092V145ZM297.492 71L296.052 72.3882L296.065 72.4013L296.078 72.4142L297.492 71ZM263.892 73.2L265.422 74.4882L265.43 74.4785L265.438 74.4686L263.892 73.2ZM257.492 145V147H259.492V145H257.492ZM454.641 145H452.641V147H454.641V145ZM454.641 121.8V119.8H452.641V121.8H454.641ZM473.041 121.8V123.8H475.041V121.8H473.041ZM473.041 28.2H475.041V26.2H473.041V28.2ZM454.641 28.2H452.641V30.2H454.641V28.2ZM454.641 4.99995V2.99995H452.641V4.99995H454.641ZM555.041 19.4L553.636 20.8239L553.646 20.8336L553.656 20.8431L555.041 19.4ZM555.041 130.8L556.435 132.234L556.435 132.233L555.041 130.8ZM499.441 121H497.441V123H499.441V121ZM536.041 112.6L537.541 113.922L537.541 113.922L536.041 112.6ZM536.041 37.4L534.54 38.722L534.548 38.731L534.556 38.7399L536.041 37.4ZM499.441 29V27H497.441V29H499.441ZM611.644 141.6L610.651 143.336L610.67 143.347L610.688 143.357L611.644 141.6ZM594.044 123.8L592.28 124.743L592.29 124.761L592.3 124.779L594.044 123.8ZM594.044 67.2L595.801 68.1555L595.804 68.1491L595.808 68.1427L594.044 67.2ZM611.444 49.4L612.412 51.1497L612.424 51.1432L612.436 51.1364L611.444 49.4ZM662.844 49.6L661.801 51.3065L661.812 51.3136L661.824 51.3205L662.844 49.6ZM679.644 67.6L677.867 68.5188L677.871 68.5251L677.874 68.5314L679.644 67.6ZM685.644 102.8V104.8H687.644V102.8H685.644ZM613.444 102.8V100.8H611.364L611.445 102.878L613.444 102.8ZM661.844 111L662.772 109.229L660.914 108.254L660.03 110.158L661.844 111ZM682.444 121.8L684.205 122.748L685.163 120.968L683.372 120.029L682.444 121.8ZM674.244 133.2L672.736 131.886L672.732 131.89L674.244 133.2ZM660.244 143.6L661.105 145.405L661.122 145.397L661.138 145.389L660.244 143.6ZM613.644 84L611.67 83.6786L611.292 86H613.644V84ZM660.044 84V86H662.238L662.035 83.8147L660.044 84ZM653.044 70.2L651.734 71.7113L651.746 71.7219L651.759 71.7323L653.044 70.2ZM717.473 139.4L718.595 137.744L718.595 137.744L717.473 139.4ZM702.473 115.4L701.973 113.464L700.2 113.922L700.501 115.729L702.473 115.4ZM725.673 109.4L727.635 109.008L727.22 106.934L725.173 107.464L725.673 109.4ZM730.273 120.4L728.712 121.649L728.73 121.673L728.75 121.695L730.273 120.4ZM738.473 126.2L737.771 128.073L737.817 128.09L737.864 128.105L738.473 126.2ZM762.273 124.8L763.436 126.427L763.461 126.41L763.486 126.391L762.273 124.8ZM762.473 110L761.383 111.677L761.414 111.696L761.444 111.715L762.473 110ZM749.673 105.8L750.031 103.832L750.025 103.831L749.673 105.8ZM744.073 104.8L743.696 106.764L743.709 106.766L743.722 106.769L744.073 104.8ZM725.073 99.4L724.301 101.245L724.32 101.253L724.338 101.26L725.073 99.4ZM711.273 89.6L709.741 90.8852L709.741 90.8852L711.273 89.6ZM716.873 51L718.044 52.6213L718.054 52.6142L718.064 52.6071L716.873 51ZM772.873 50.4L771.757 52.0594L771.757 52.0594L772.873 50.4ZM787.273 69.8L787.862 71.7115L789.731 71.1364L789.198 69.2548L787.273 69.8ZM763.873 77L761.916 77.412L762.368 79.5558L764.462 78.9115L763.873 77ZM757.273 66.2L756.164 67.8641L756.18 67.8744L756.195 67.8845L757.273 66.2ZM734.273 65.6L735.341 67.2909L735.372 67.2713L735.403 67.2506L734.273 65.6ZM734.473 79.6L733.444 81.3149L733.477 81.3343L733.51 81.3524L734.473 79.6ZM745.273 83L745.625 81.0311L745.621 81.0304L745.273 83ZM750.873 84L750.522 85.9688L750.522 85.9688L750.873 84ZM771.073 89.4L770.367 91.2709L770.391 91.2803L770.416 91.2889L771.073 89.4ZM785.473 98.8L783.941 100.085L783.964 100.112L783.987 100.138L785.473 98.8ZM779.473 139.4L780.673 141L780.678 140.997L779.473 139.4ZM812.956 145H810.956V147H812.956V145ZM812.956 45.8V43.8H810.956V45.8H812.956ZM838.156 45.8H840.156V43.8H838.156V45.8ZM838.156 145V147H840.156V145H838.156ZM813.956 29.8L812.574 31.2452L812.589 31.2599L812.605 31.2743L813.956 29.8ZM813.956 6.59995L812.605 5.12565L812.589 5.13999L812.574 5.15467L813.956 6.59995ZM867.481 66L869.224 66.982L869.227 66.9753L869.231 66.9686L867.481 66ZM883.881 49L884.87 50.7386L884.881 50.7323L883.881 49ZM927.081 47.8L928.212 46.1505L928.212 46.1505L927.081 47.8ZM937.281 57.8L935.578 58.8482L936.164 59.8H937.281V57.8ZM940.881 57.8V59.8H942.881V57.8H940.881ZM940.881 45.8V43.8H938.881V45.8H940.881ZM965.681 45.8H967.681V43.8H965.681V45.8ZM959.681 178.8L958.267 177.386L958.255 177.397L958.244 177.409L959.681 178.8ZM877.281 185H875.281V187H877.281V185ZM877.281 163V161H875.281V163H877.281ZM940.481 131.2H942.481V129.2H940.481V131.2ZM936.881 131.2V129.2H935.773L935.185 130.14L936.881 131.2ZM931.281 137.8L932.61 139.295L932.633 139.275L932.654 139.254L931.281 137.8ZM921.681 143.2L922.37 145.078L922.37 145.078L921.681 143.2ZM883.881 139.6L882.867 141.324L882.887 141.335L882.907 141.347L883.881 139.6ZM867.481 122.6L865.731 123.569L865.735 123.575L865.739 123.582L867.481 122.6ZM933.081 116L931.705 114.549L931.705 114.549L933.081 116ZM933.081 72.4L931.686 73.8329L931.705 73.8515L931.725 73.8696L933.081 72.4ZM894.281 72.4L895.638 73.8696L895.648 73.8603L895.658 73.8509L894.281 72.4ZM894.281 116L895.658 114.549L895.658 114.549L894.281 116ZM993.62 145H991.62V147H993.62V145ZM993.62 45.8V43.8H991.62V45.8H993.62ZM1018.42 45.8H1020.42V43.8H1018.42V45.8ZM1018.42 58.8H1016.42V60.8H1018.42V58.8ZM1022.02 58.8V60.8H1023.3L1023.84 59.6381L1022.02 58.8ZM1031.02 49L1032.16 50.6408L1032.18 50.6293L1032.2 50.6174L1031.02 49ZM1071.22 49.6L1070.16 51.2937L1070.18 51.3081L1070.2 51.3218L1071.22 49.6ZM1084.82 64.2L1083.04 65.1095L1083.04 65.1173L1083.05 65.1251L1084.82 64.2ZM1089.62 145V147H1091.62V145H1089.62ZM1064.42 145H1062.42V147H1064.42V145ZM1058.82 71L1057.38 72.3882L1057.39 72.4013L1057.41 72.4142L1058.82 71ZM1025.22 73.2L1026.75 74.4882L1026.76 74.4785L1026.77 74.4686L1025.22 73.2ZM1018.82 145V147H1020.82V145H1018.82ZM377.986 110.951V108.951C367.571 108.951 359.296 117.477 359.527 127.92L361.526 127.876L363.526 127.831C363.344 119.61 369.837 112.951 377.986 112.951V110.951ZM361.526 127.876L359.527 127.92C359.757 138.329 368.354 146.8 378.734 146.8V144.8V142.8C370.549 142.8 363.708 136.087 363.526 127.831L361.526 127.876ZM378.734 144.8V146.8C389.149 146.8 397.424 138.274 397.194 127.831L395.194 127.876L393.195 127.92C393.376 136.141 386.883 142.8 378.734 142.8V144.8ZM395.194 127.876L397.194 127.831C396.964 117.422 388.366 108.951 377.986 108.951V110.951V112.951C386.171 112.951 393.012 119.664 393.195 127.92L395.194 127.876ZM377.041 139.792L377.303 137.809C375.436 137.561 373.712 136.795 372.286 135.651L371.035 137.212L369.783 138.772C371.756 140.354 374.157 141.427 376.778 141.774L377.041 139.792ZM385.775 137.47L384.552 135.888C383.103 137.009 381.322 137.724 379.365 137.869L379.512 139.863L379.659 141.858C382.418 141.654 384.943 140.642 386.999 139.053L385.775 137.47ZM390.253 129.414L388.264 129.206C388.051 131.232 387.233 133.062 385.992 134.516L387.514 135.814L389.035 137.112C390.789 135.056 391.943 132.47 392.242 129.623L390.253 129.414ZM387.645 120.508L386.079 121.752C387.281 123.265 388.068 125.115 388.269 127.127L390.259 126.929L392.249 126.731C391.97 123.924 390.872 121.354 389.211 119.263L387.645 120.508ZM379.512 115.938L379.277 117.925C381.285 118.162 383.131 118.998 384.629 120.26L385.917 118.73L387.206 117.2C385.136 115.457 382.564 114.286 379.747 113.952L379.512 115.938ZM370.526 118.62L371.821 120.144C373.297 118.89 375.156 118.075 377.216 117.893L377.041 115.901L376.865 113.909C373.958 114.165 371.321 115.32 369.231 117.096L370.526 118.62ZM366.419 126.929L368.416 127.04C368.529 124.999 369.253 123.139 370.406 121.634L368.818 120.418L367.23 119.201C365.599 121.332 364.581 123.959 364.422 126.818L366.419 126.929ZM369.265 135.476L370.8 134.195C369.61 132.769 368.797 131.026 368.513 129.119L366.535 129.414L364.557 129.71C364.953 132.369 366.086 134.79 367.73 136.758L369.265 135.476ZM375.293 126.929V124.929H366.419V126.929V128.929H375.293V126.929ZM366.535 129.414V131.414H375.293V129.414V127.414H366.535V129.414ZM375.293 126.929L376.711 125.519L370.236 119.007L368.818 120.418L367.4 121.828L373.875 128.339L375.293 126.929ZM369.265 135.476L370.683 136.887L376.711 130.825L375.293 129.414L373.875 128.004L367.847 134.066L369.265 135.476ZM377.041 125.214L378.463 123.808L371.949 117.215L370.526 118.62L369.103 120.026L375.618 126.619L377.041 125.214ZM377.041 125.214H379.041V115.901H377.041H375.041V125.214H377.041ZM379.512 125.171H381.512V115.938H379.512H377.512V125.171H379.512ZM379.512 125.171L380.93 126.582L387.336 120.14L385.917 118.73L384.499 117.32L378.094 123.761L379.512 125.171ZM381.26 126.929L382.678 128.339L389.063 121.918L387.645 120.508L386.227 119.098L379.842 125.519L381.26 126.929ZM381.26 126.929V128.929H390.259V126.929V124.929H381.26V126.929ZM381.191 129.414V131.414H390.253V129.414V127.414H381.191V129.414ZM381.191 129.414L379.768 130.82L386.091 137.22L387.514 135.814L388.937 134.408L382.614 128.009L381.191 129.414ZM379.512 131.172L378.094 132.582L384.357 138.881L385.775 137.47L387.194 136.06L380.93 129.762L379.512 131.172ZM379.512 131.172H377.512V139.863H379.512H381.512V131.172H379.512ZM377.041 131.172H375.041V139.792H377.041H379.041V131.172H377.041ZM377.041 131.172L375.622 129.762L369.616 135.801L371.035 137.212L372.453 138.622L378.459 132.582L377.041 131.172ZM381.273 128.139L379.273 128.139C379.273 128.614 378.893 128.979 378.448 128.979V130.979V132.979C381.123 132.979 383.273 130.802 383.273 128.139L381.273 128.139ZM378.448 130.979V128.979C378.003 128.979 377.624 128.614 377.624 128.139L375.624 128.139L373.624 128.139C373.624 130.802 375.773 132.979 378.448 132.979V130.979ZM375.624 128.139L377.624 128.139C377.624 127.664 378.003 127.298 378.448 127.298V125.298V123.298C375.773 123.298 373.624 125.476 373.624 128.139L375.624 128.139ZM378.448 125.298V127.298C378.893 127.298 379.273 127.664 379.273 128.139L381.273 128.139L383.273 128.139C383.273 125.476 381.123 123.298 378.448 123.298V125.298ZM377.041 119.828V121.828H379.865V119.828V117.828H377.041V119.828ZM379.865 119.828H377.865V127.82H379.865H381.865V119.828H379.865ZM379.339 128.349V126.349H377.566V128.349V130.349H379.339V128.349ZM377.041 127.82H379.041V119.828H377.041H375.041V127.82H377.041ZM377.566 128.349V126.349C378.391 126.349 379.041 127.018 379.041 127.82L377.041 127.82L375.041 127.82C375.041 129.206 376.161 130.349 377.566 130.349V128.349ZM379.865 127.82L377.865 127.82C377.865 127.018 378.515 126.349 379.339 126.349V128.349V130.349C380.745 130.349 381.865 129.206 381.865 127.82L379.865 127.82ZM349.319 2V4H407.171V2V0H349.319V2ZM417.69 12.5778H415.69V31.0889H417.69H419.69V12.5778H417.69ZM407.171 41.6667V39.6667H349.319V41.6667V43.6667H407.171V41.6667ZM338.8 31.0889H340.8V12.5778H338.8H336.8V31.0889H338.8ZM349.319 41.6667V39.6667C344.625 39.6667 340.8 35.8369 340.8 31.0889H338.8H336.8C336.8 38.0248 342.394 43.6667 349.319 43.6667V41.6667ZM417.69 31.0889H415.69C415.69 35.8369 411.865 39.6667 407.171 39.6667V41.6667V43.6667C414.095 43.6667 419.69 38.0248 419.69 31.0889H417.69ZM407.171 2V4C411.865 4 415.69 7.82981 415.69 12.5778H417.69H419.69C419.69 5.64186 414.095 0 407.171 0V2ZM349.319 2V0C342.394 0 336.8 5.64185 336.8 12.5778H338.8H340.8C340.8 7.82981 344.625 4 349.319 4V2ZM350.896 9.14V11.14H405.593V9.14V7.14H350.896V9.14ZM410.852 14.4289H408.852V29.5022H410.852H412.852V14.4289H410.852ZM405.593 34.7911V32.7911H350.896V34.7911V36.7911H405.593V34.7911ZM345.637 29.5022H347.637V14.4289H345.637H343.637V29.5022H345.637ZM350.896 34.7911V32.7911C349.107 32.7911 347.637 31.3292 347.637 29.5022H345.637H343.637C343.637 33.5172 346.877 36.7911 350.896 36.7911V34.7911ZM410.852 29.5022H408.852C408.852 31.3292 407.383 32.7911 405.593 32.7911V34.7911V36.7911C409.613 36.7911 412.852 33.5172 412.852 29.5022H410.852ZM405.593 9.14V11.14C407.383 11.14 408.852 12.6019 408.852 14.4289H410.852H412.852C412.852 10.4139 409.613 7.14 405.593 7.14V9.14ZM350.896 9.14V7.14C346.877 7.14 343.637 10.4139 343.637 14.4289H345.637H347.637C347.637 12.6019 349.107 11.14 350.896 11.14V9.14ZM373.774 41.6667V43.6667H382.452V41.6667V39.6667H373.774V41.6667ZM382.452 41.6667H380.452V47.4844H382.452H384.452V41.6667H382.452ZM382.452 47.4844V45.4844H373.774V47.4844V49.4844H382.452V47.4844ZM373.774 47.4844H375.774V41.6667H373.774H371.774V47.4844H373.774ZM396.977 60.8612L397.471 62.7992L404.353 61.0452L403.859 59.1071L403.365 57.1691L396.483 58.9231L396.977 60.8612ZM403.859 59.1071L401.92 59.5959L405.667 74.4636L407.606 73.9749L409.546 73.4861L405.799 58.6184L403.859 59.1071ZM407.606 73.9749L407.112 72.0368L400.23 73.7909L400.724 75.7289L401.218 77.667L408.1 75.9129L407.606 73.9749ZM400.724 75.7289L402.663 75.2402L398.916 60.3724L396.977 60.8612L395.038 61.3499L398.784 76.2177L400.724 75.7289ZM401.789 81.141L401.884 83.1388L408.976 82.8022L408.881 80.8044L408.786 78.8067L401.694 79.1433L401.789 81.141ZM408.881 80.8044L406.883 80.8982L407.602 96.2189L409.6 96.1252L411.598 96.0314L410.879 80.7107L408.881 80.8044ZM409.6 96.1252L409.505 94.1274L402.413 94.464L402.508 96.4617L402.603 98.4595L409.695 98.1229L409.6 96.1252ZM402.508 96.4617L404.506 96.368L403.787 81.0473L401.789 81.141L399.791 81.2348L400.51 96.5555L402.508 96.4617ZM413.495 103.437L411.507 103.223C411.433 103.904 411.174 105.241 410.994 106.176L412.957 106.555L414.921 106.934C415.084 106.091 415.387 104.543 415.484 103.652L413.495 103.437ZM412.957 106.555L413.212 104.572L409.089 104.042L408.834 106.025L408.579 108.009L412.702 108.539L412.957 106.555ZM408.834 106.025L410.807 106.354C410.916 105.696 411.248 104.263 411.355 103.102C411.464 101.914 411.454 100.209 410.412 98.8304L408.816 100.036L407.22 101.241C407.314 101.365 407.462 101.755 407.371 102.735C407.278 103.744 407.051 104.554 406.861 105.697L408.834 106.025ZM408.816 100.036L410.412 98.8304C408.465 96.2515 404.479 96.1759 402.423 98.6512L403.961 99.9294L405.499 101.208C405.917 100.704 406.835 100.731 407.22 101.241L408.816 100.036ZM403.961 99.9294L402.423 98.651C401.385 99.8997 401.261 101.599 401.269 102.743C401.277 103.979 401.468 105.285 401.554 106.037L403.541 105.809L405.528 105.582C405.421 104.647 405.275 103.67 405.269 102.716C405.266 102.254 405.298 101.879 405.361 101.595C405.391 101.456 405.424 101.359 405.453 101.293C405.481 101.229 405.5 101.206 405.499 101.208L403.961 99.9294ZM403.541 105.809L403.422 103.813L399.212 104.065L399.331 106.062L399.451 108.058L403.661 107.806L403.541 105.809ZM399.331 106.062L401.319 105.843C401.228 105.017 401.149 103.571 401.129 102.813L399.13 102.866L397.13 102.919C397.152 103.742 397.236 105.306 397.343 106.281L399.331 106.062ZM399.13 102.866L401.129 102.813C401.067 100.49 401.826 98.9843 402.794 98.0665C403.792 97.1203 405.17 96.6486 406.577 96.7034C407.984 96.7582 409.317 97.3353 410.233 98.3545C411.121 99.3433 411.757 100.905 411.507 103.223L413.495 103.437L415.484 103.652C415.84 100.347 414.947 97.6164 413.208 95.6814C411.497 93.7768 409.106 92.7989 406.733 92.7064C404.359 92.614 401.899 93.4028 400.042 95.164C398.155 96.9535 397.042 99.6015 397.13 102.919L399.13 102.866ZM404.994 54.9986L403.055 55.4874C403.537 57.4003 402.383 59.3291 400.504 59.808L400.998 61.7461L401.492 63.6841C405.525 62.6561 407.95 58.543 406.934 54.5099L404.994 54.9986ZM400.998 61.7461L400.504 59.808C398.629 60.2859 396.709 59.1474 396.227 57.2384L394.288 57.7272L392.349 58.2159C393.366 62.253 397.454 64.7132 401.492 63.6841L400.998 61.7461ZM394.288 57.7272L396.227 57.2384C395.745 55.3255 396.899 53.3967 398.778 52.9178L398.285 50.9798L397.791 49.0417C393.757 50.0697 391.332 54.1828 392.349 58.2159L394.288 57.7272ZM398.285 50.9798L398.778 52.9178C400.653 52.44 402.574 53.5784 403.055 55.4874L404.994 54.9986L406.934 54.5099C405.916 50.4728 401.828 48.0126 397.791 49.0417L398.285 50.9798ZM410.485 76.7876L408.546 77.2763C409.028 79.1893 407.874 81.118 405.995 81.5969L406.489 83.535L406.983 85.473C411.017 84.445 413.441 80.3319 412.425 76.2988L410.485 76.7876ZM406.489 83.535L405.995 81.5969C404.12 82.0748 402.2 80.9363 401.719 79.0273L399.779 79.5161L397.84 80.0048C398.857 84.0419 402.945 86.5021 406.983 85.473L406.489 83.535ZM399.779 79.5161L401.719 79.0273C401.237 77.1144 402.39 75.1856 404.27 74.7067L403.776 72.7687L403.282 70.8306C399.248 71.8587 396.823 75.9718 397.84 80.0048L399.779 79.5161ZM403.776 72.7687L404.27 74.7067C406.145 74.2289 408.065 75.3673 408.546 77.2763L410.485 76.7876L412.425 76.2988C411.407 72.2617 407.32 69.8016 403.282 70.8306L403.776 72.7687ZM359.547 60.8457L360.041 58.9077L353.158 57.1536L352.665 59.0916L352.171 61.0297L359.053 62.7838L359.547 60.8457ZM352.665 59.0916L350.725 58.6029L346.978 73.4706L348.918 73.9594L350.857 74.4481L354.604 59.5804L352.665 59.0916ZM348.918 73.9594L348.424 75.8974L355.306 77.6515L355.8 75.7134L356.294 73.7754L349.412 72.0213L348.918 73.9594ZM355.8 75.7134L357.739 76.2022L361.486 61.3345L359.547 60.8457L357.608 60.357L353.861 75.2247L355.8 75.7134ZM354.735 81.1255L354.83 79.1278L347.738 78.7912L347.643 80.789L347.548 82.7867L354.64 83.1233L354.735 81.1255ZM347.643 80.789L345.645 80.6952L344.926 96.0159L346.924 96.1097L348.922 96.2034L349.641 80.8827L347.643 80.789ZM346.924 96.1097L346.829 98.1074L353.921 98.444L354.016 96.4463L354.111 94.4485L347.019 94.1119L346.924 96.1097ZM354.016 96.4463L356.014 96.54L356.733 81.2193L354.735 81.1255L352.737 81.0318L352.018 96.3525L354.016 96.4463ZM343.029 103.422L341.04 103.636C341.136 104.527 341.44 106.076 341.603 106.919L343.566 106.54L345.53 106.161C345.35 105.225 345.091 103.888 345.017 103.207L343.029 103.422ZM343.566 106.54L343.821 108.524L347.945 107.993L347.69 106.01L347.435 104.026L343.311 104.556L343.566 106.54ZM347.69 106.01L349.663 105.681C349.473 104.538 349.245 103.728 349.152 102.72C349.062 101.739 349.21 101.349 349.304 101.225L347.708 100.02L346.111 98.815C345.07 100.194 345.06 101.898 345.169 103.087C345.276 104.247 345.608 105.681 345.717 106.338L347.69 106.01ZM347.708 100.02L349.304 101.226C349.688 100.716 350.607 100.689 351.025 101.192L352.563 99.9139L354.101 98.6357C352.044 96.1604 348.059 96.236 346.112 98.8149L347.708 100.02ZM352.563 99.9139L351.025 101.192C351.024 101.191 351.043 101.213 351.071 101.278C351.1 101.343 351.133 101.441 351.163 101.579C351.226 101.864 351.258 102.238 351.255 102.7C351.249 103.655 351.103 104.631 350.996 105.566L352.983 105.794L354.97 106.022C355.056 105.269 355.247 103.963 355.255 102.728C355.263 101.584 355.139 99.8842 354.101 98.6355L352.563 99.9139ZM352.983 105.794L352.863 107.79L357.073 108.043L357.193 106.046L357.312 104.05L353.102 103.798L352.983 105.794ZM357.193 106.046L359.181 106.265C359.288 105.291 359.372 103.726 359.394 102.904L357.394 102.85L355.395 102.797C355.375 103.556 355.296 105.001 355.205 105.827L357.193 106.046ZM357.394 102.85L359.394 102.904C359.482 99.5861 358.369 96.938 356.482 95.1485C354.625 93.3873 352.164 92.5985 349.791 92.691C347.418 92.7834 345.027 93.7613 343.316 95.6659C341.577 97.6009 340.684 100.332 341.04 103.636L343.029 103.422L345.017 103.207C344.767 100.889 345.403 99.3278 346.291 98.3391C347.207 97.3198 348.54 96.7427 349.947 96.6879C351.354 96.6331 352.732 97.1048 353.729 98.051C354.697 98.9689 355.457 100.475 355.395 102.797L357.394 102.85ZM351.53 54.9832L349.59 54.4944C348.574 58.5275 350.998 62.6406 355.032 63.6686L355.526 61.7306L356.02 59.7925C354.141 59.3136 352.987 57.3849 353.469 55.4719L351.53 54.9832ZM355.526 61.7306L355.032 63.6686C359.07 64.6977 363.158 62.2375 364.175 58.2005L362.236 57.7117L360.296 57.223C359.815 59.1319 357.895 60.2704 356.02 59.7925L355.526 61.7306ZM362.236 57.7117L364.175 58.2005C365.192 54.1674 362.767 50.0543 358.733 49.0262L358.239 50.9643L357.745 52.9023C359.625 53.3812 360.778 55.31 360.296 57.223L362.236 57.7117ZM358.239 50.9643L358.733 49.0262C354.695 47.9972 350.608 50.4573 349.59 54.4944L351.53 54.9832L353.469 55.4719C353.95 53.5629 355.87 52.4245 357.745 52.9023L358.239 50.9643ZM346.039 76.7721L344.099 76.2833C343.083 80.3164 345.507 84.4295 349.541 85.4575L350.035 83.5195L350.529 81.5815C348.65 81.1025 347.496 79.1738 347.978 77.2608L346.039 76.7721ZM350.035 83.5195L349.541 85.4575C353.579 86.4866 357.667 84.0264 358.684 79.9894L356.745 79.5006L354.805 79.0119C354.324 80.9209 352.404 82.0593 350.529 81.5815L350.035 83.5195ZM356.745 79.5006L358.684 79.9894C359.7 75.9563 357.276 71.8432 353.242 70.8152L352.748 72.7532L352.254 74.6913C354.133 75.1702 355.287 77.0989 354.805 79.0119L356.745 79.5006ZM352.748 72.7532L353.242 70.8152C349.204 69.7861 345.117 72.2463 344.099 76.2833L346.039 76.7721L347.978 77.2608C348.459 75.3518 350.379 74.2134 352.254 74.6913L352.748 72.7532ZM364.834 47.4844V49.4844H391.656V47.4844V45.4844H364.834V47.4844ZM396.915 52.7733H394.915V114.918H396.915H398.915V52.7733H396.915ZM391.656 120.207V118.207H364.834V120.207V122.207H391.656V120.207ZM359.574 114.918H361.574V52.7733H359.574H357.574V114.918H359.574ZM364.834 120.207V118.207C363.044 118.207 361.574 116.745 361.574 114.918H359.574H357.574C357.574 118.933 360.814 122.207 364.834 122.207V120.207ZM396.915 114.918H394.915C394.915 116.745 393.446 118.207 391.656 118.207V120.207V122.207C395.676 122.207 398.915 118.933 398.915 114.918H396.915ZM391.656 47.4844V49.4844C393.446 49.4844 394.915 50.9463 394.915 52.7733H396.915H398.915C398.915 48.7584 395.676 45.4844 391.656 45.4844V47.4844ZM364.834 47.4844V45.4844C360.814 45.4844 357.574 48.7584 357.574 52.7733H359.574H361.574C361.574 50.9463 363.044 49.4844 364.834 49.4844V47.4844ZM368.515 19.5856H366.515C366.515 21.2456 365.23 22.4778 363.782 22.4778V24.4778V26.4778C367.562 26.4778 370.515 23.3293 370.515 19.5856H368.515ZM363.782 24.4778V22.4778C362.334 22.4778 361.048 21.2456 361.048 19.5856H359.048H357.048C357.048 23.3293 360.001 26.4778 363.782 26.4778V24.4778ZM359.048 19.5856H361.048C361.048 17.9255 362.334 16.6933 363.782 16.6933V14.6933V12.6933C360.001 12.6933 357.048 15.8418 357.048 19.5856H359.048ZM363.782 14.6933V16.6933C365.23 16.6933 366.515 17.9255 366.515 19.5856H368.515H370.515C370.515 15.8418 367.562 12.6933 363.782 12.6933V14.6933ZM397.178 19.5856H395.178C395.178 21.2456 393.893 22.4778 392.445 22.4778V24.4778V26.4778C396.225 26.4778 399.178 23.3293 399.178 19.5856H397.178ZM392.445 24.4778V22.4778C390.997 22.4778 389.712 21.2456 389.712 19.5856H387.712H385.712C385.712 23.3293 388.664 26.4778 392.445 26.4778V24.4778ZM387.712 19.5856H389.712C389.712 17.9255 390.997 16.6933 392.445 16.6933V14.6933V12.6933C388.664 12.6933 385.712 15.8418 385.712 19.5856H387.712ZM392.445 14.6933V16.6933C393.893 16.6933 395.178 17.9255 395.178 19.5856H397.178H399.178C399.178 15.8418 396.225 12.6933 392.445 12.6933V14.6933ZM383.659 26.6112L382.132 25.3195C381.175 26.4507 379.757 27.1094 378.243 27.1094V29.1094V31.1094C380.921 31.1094 383.461 29.942 385.186 27.9029L383.659 26.6112ZM378.243 29.1094V27.1094C376.727 27.1094 375.311 26.4545 374.357 25.3225L372.828 26.6112L371.298 27.8999C373.027 29.9509 375.57 31.1094 378.243 31.1094V29.1094ZM372.828 26.6112L374.354 25.3183C373.093 23.8304 370.869 23.6503 369.382 24.8665L370.649 26.4146L371.915 27.9627C371.815 28.0448 371.698 28.0714 371.601 28.0629C371.503 28.0542 371.388 28.0058 371.302 27.9041L372.828 26.6112ZM370.649 26.4146L369.381 24.8678C367.856 26.1177 367.665 28.3486 368.915 29.8418L370.449 28.5578L371.982 27.2738C372.15 27.4735 372.126 27.7894 371.917 27.9615L370.649 26.4146ZM370.449 28.5578L368.923 29.8507C371.242 32.5878 374.646 34.1467 378.243 34.1467V32.1467V30.1467C375.806 30.1467 373.524 29.0931 371.975 27.2649L370.449 28.5578ZM378.243 32.1467V34.1467C381.841 34.1467 385.245 32.5878 387.564 29.8507L386.038 28.5578L384.512 27.2649C382.963 29.0931 380.681 30.1467 378.243 30.1467V32.1467ZM386.038 28.5578L387.564 29.8507C388.841 28.3438 388.62 26.1086 387.106 24.8678L385.838 26.4146L384.57 27.9615C384.372 27.7985 384.331 27.4783 384.512 27.2649L386.038 28.5578ZM385.838 26.4146L387.104 24.8665C385.618 23.6503 383.394 23.8304 382.133 25.3183L383.659 26.6112L385.185 27.9041C385.099 28.0058 384.984 28.0542 384.886 28.0629C384.789 28.0714 384.672 28.0448 384.572 27.9627L385.838 26.4146ZM2 145H4V4.99995H2H0V145H2ZM2 4.99995V6.99995H51V4.99995V2.99995H2V4.99995ZM51 4.99995L49.0382 5.38909L73.2382 127.389L75.2 127L77.1618 126.611L52.9618 4.61081L51 4.99995ZM75.2 127V129H78.8V127V125H75.2V127ZM78.8 127L80.7618 127.389L104.962 5.38909L103 4.99995L101.038 4.61081L76.8382 126.611L78.8 127ZM103 4.99995V6.99995H152V4.99995V2.99995H103V4.99995ZM152 4.99995H150V145H152H154V4.99995H152ZM152 145V143H126.4V145V147H152V145ZM126.4 145H128.4V24.4H126.4H124.4V145H126.4ZM126.4 24.4V22.4H122.8V24.4V26.4H126.4V24.4ZM122.8 24.4L120.838 24.0096L96.8385 144.61L98.8 145L100.762 145.39L124.762 24.7903L122.8 24.4ZM98.8 145V143H55.2V145V147H98.8V145ZM55.2 145L57.1615 144.61L33.1615 24.0096L31.2 24.4L29.2385 24.7903L53.2385 145.39L55.2 145ZM31.2 24.4V22.4H27.6V24.4V26.4H31.2V24.4ZM27.6 24.4H25.6V145H27.6H29.6V24.4H27.6ZM27.6 145V143H2V145V147H27.6V145ZM179.167 145H181.167V45.8H179.167H177.167V145H179.167ZM179.167 45.8V47.8H204.367V45.8V43.8H179.167V45.8ZM204.367 45.8H202.367V145H204.367H206.367V45.8H204.367ZM204.367 145V143H179.167V145V147H204.367V145ZM191.767 34.2V32.2C187.71 32.2 184.332 30.9047 181.519 28.3256L180.167 29.8L178.816 31.2743C182.402 34.5618 186.758 36.2 191.767 36.2V34.2ZM180.167 29.8L181.55 28.3547C178.931 25.8497 177.567 22.5326 177.567 18.2H175.567H173.567C173.567 23.4673 175.27 27.8836 178.785 31.2452L180.167 29.8ZM175.567 18.2H177.567C177.567 13.8673 178.931 10.5502 181.55 8.04524L180.167 6.59995L178.785 5.15467C175.27 8.51636 173.567 12.9326 173.567 18.2H175.567ZM180.167 6.59995L181.519 8.07426C184.332 5.49517 187.71 4.19995 191.767 4.19995V2.19995V0.199951C186.758 0.199951 182.402 1.83807 178.816 5.12565L180.167 6.59995ZM191.767 2.19995V4.19995C195.975 4.19995 199.329 5.50484 201.985 8.04524L203.367 6.59995L204.75 5.15467C201.272 1.82839 196.893 0.199951 191.767 0.199951V2.19995ZM203.367 6.59995L201.985 8.04524C204.604 10.5502 205.967 13.8673 205.967 18.2H207.967H209.967C209.967 12.9326 208.264 8.51636 204.75 5.15467L203.367 6.59995ZM207.967 18.2H205.967C205.967 22.5326 204.604 25.8497 201.985 28.3547L203.367 29.8L204.75 31.2452C208.264 27.8836 209.967 23.4673 209.967 18.2H207.967ZM203.367 29.8L201.985 28.3547C199.329 30.8951 195.975 32.2 191.767 32.2V34.2V36.2C196.893 36.2 201.272 34.5715 204.75 31.2452L203.367 29.8ZM232.292 145H234.292V45.8H232.292H230.292V145H232.292ZM232.292 45.8V47.8H257.092V45.8V43.8H232.292V45.8ZM257.092 45.8H255.092V58.8H257.092H259.092V45.8H257.092ZM257.092 58.8V60.8H260.692V58.8V56.8H257.092V58.8ZM260.692 58.8L262.508 59.6381C263.911 56.5987 266.615 53.5824 270.836 50.6408L269.692 49L268.549 47.3592C263.969 50.5508 260.673 54.0679 258.876 57.9618L260.692 58.8ZM269.692 49L270.869 50.6174C274.77 47.7802 280.934 46.2 289.692 46.2V44.2V42.2C280.584 42.2 273.415 43.8197 268.516 47.3825L269.692 49ZM289.692 44.2V46.2C297.104 46.2 303.457 47.9211 308.829 51.2937L309.892 49.6L310.956 47.9062C304.86 44.0788 297.747 42.2 289.692 42.2V44.2ZM309.892 49.6L308.875 51.3218C314.404 54.5891 318.677 59.1689 321.711 65.1095L323.492 64.2L325.273 63.2904C321.907 56.6976 317.114 51.5442 310.91 47.8781L309.892 49.6ZM323.492 64.2L321.719 65.1251C324.744 70.9222 326.292 77.793 326.292 85.8H328.292H330.292C330.292 77.2736 328.641 69.7444 325.265 63.2748L323.492 64.2ZM328.292 85.8H326.292V145H328.292H330.292V85.8H328.292ZM328.292 145V143H303.092V145V147H328.292V145ZM303.092 145H305.092V87.8H303.092H301.092V145H303.092ZM303.092 87.8H305.092C305.092 80.025 303.147 73.8264 298.906 69.5857L297.492 71L296.078 72.4142C299.304 75.6401 301.092 80.6416 301.092 87.8H303.092ZM297.492 71L298.932 69.6117C294.848 65.3763 289.059 63.4 281.892 63.4V65.4V67.4C288.326 67.4 292.937 69.1569 296.052 72.3882L297.492 71ZM281.892 65.4V63.4C273.66 63.4 267.052 66.1959 262.346 71.9313L263.892 73.2L265.438 74.4686C269.266 69.804 274.657 67.4 281.892 67.4V65.4ZM263.892 73.2L262.362 71.9117C257.692 77.4573 255.492 85.1106 255.492 94.6H257.492H259.492C259.492 85.6893 261.559 79.076 265.422 74.4882L263.892 73.2ZM257.492 94.6H255.492V145H257.492H259.492V94.6H257.492ZM257.492 145V143H232.292V145V147H257.492V145ZM454.641 145H456.641V121.8H454.641H452.641V145H454.641ZM454.641 121.8V123.8H473.041V121.8V119.8H454.641V121.8ZM473.041 121.8H475.041V28.2H473.041H471.041V121.8H473.041ZM473.041 28.2V26.2H454.641V28.2V30.2H473.041V28.2ZM454.641 28.2H456.641V4.99995H454.641H452.641V28.2H454.641ZM454.641 4.99995V6.99995H512.241V4.99995V2.99995H454.641V4.99995ZM512.241 4.99995V6.99995C530.716 6.99995 544.399 11.7135 553.636 20.8239L555.041 19.4L556.445 17.976C546.215 7.88636 531.365 2.99995 512.241 2.99995V4.99995ZM555.041 19.4L553.656 20.8431C563 29.8085 567.841 43.3347 567.841 61.8H569.841H571.841C571.841 42.6652 566.814 27.9248 556.425 17.9568L555.041 19.4ZM569.841 61.8H567.841V88.2H569.841H571.841V61.8H569.841ZM569.841 88.2H567.841C567.841 106.663 563.001 120.264 553.646 129.367L555.041 130.8L556.435 132.233C566.814 122.136 571.841 107.337 571.841 88.2H569.841ZM555.041 130.8L553.646 129.366C544.41 138.349 530.723 143 512.241 143V145V147C531.358 147 546.204 142.184 556.435 132.234L555.041 130.8ZM512.241 145V143H454.641V145V147H512.241V145ZM499.441 121V123H512.641V121V119H499.441V121ZM512.641 121V123C523.628 123 532.088 120.112 537.541 113.922L536.041 112.6L534.54 111.278C530.127 116.288 522.986 119 512.641 119V121ZM536.041 112.6L537.541 113.922C542.896 107.844 545.441 99.4446 545.441 89H543.441H541.441C541.441 98.822 539.052 106.156 534.54 111.278L536.041 112.6ZM543.441 89H545.441V61H543.441H541.441V89H543.441ZM543.441 61H545.441C545.441 50.4337 542.901 42.0172 537.525 36.06L536.041 37.4L534.556 38.7399C539.047 43.7161 541.441 51.0329 541.441 61H543.441ZM536.041 37.4L537.541 36.0779C532.088 29.8876 523.628 27 512.641 27V29V31C522.986 31 530.127 33.7123 534.54 38.722L536.041 37.4ZM512.641 29V27H499.441V29V31H512.641V29ZM499.441 29H497.441V121H499.441H501.441V29H499.441ZM637.844 147.8V145.8C628.263 145.8 619.867 143.796 612.599 139.843L611.644 141.6L610.688 143.357C618.62 147.671 627.691 149.8 637.844 149.8V147.8ZM611.644 141.6L612.636 139.863C605.488 135.779 599.88 130.109 595.788 122.821L594.044 123.8L592.3 124.779C596.741 132.69 602.866 138.888 610.651 143.336L611.644 141.6ZM594.044 123.8L595.808 122.857C591.856 115.463 589.844 106.732 589.844 96.6H587.844H585.844C585.844 107.268 587.965 116.67 592.28 124.743L594.044 123.8ZM587.844 96.6H589.844V94.2H587.844H585.844V96.6H587.844ZM587.844 94.2H589.844C589.844 84.0666 591.856 75.4084 595.801 68.1555L594.044 67.2L592.287 66.2444C587.965 74.1915 585.844 83.5333 585.844 94.2H587.844ZM594.044 67.2L595.808 68.1427C599.764 60.7395 605.293 55.091 612.412 51.1497L611.444 49.4L610.475 47.6502C602.661 51.9756 596.59 58.1937 592.28 66.2572L594.044 67.2ZM611.444 49.4L612.436 51.1364C619.558 47.0665 627.873 45 637.444 45V43V41C627.281 41 618.262 43.2 610.451 47.6635L611.444 49.4ZM637.444 43V45C646.867 45 654.961 47.1264 661.801 51.3065L662.844 49.6L663.887 47.8934C656.327 43.2736 647.488 41 637.444 41V43ZM662.844 49.6L661.824 51.3205C668.688 55.3882 674.032 61.1042 677.867 68.5188L679.644 67.6L681.42 66.6811C677.255 58.629 671.399 52.345 663.863 47.8794L662.844 49.6ZM679.644 67.6L677.874 68.5314C681.698 75.7967 683.644 84.3329 683.644 94.2H685.644H687.644C687.644 83.8004 685.59 74.6032 681.414 66.6685L679.644 67.6ZM685.644 94.2H683.644V102.8H685.644H687.644V94.2H685.644ZM685.644 102.8V100.8H613.444V102.8V104.8H685.644V102.8ZM613.444 102.8L611.445 102.878C611.732 110.186 614.482 116.243 619.715 120.895L621.044 119.4L622.372 117.905C618.005 114.023 615.689 109.014 615.442 102.722L613.444 102.8ZM621.044 119.4L619.715 120.895C624.912 125.514 631.263 127.8 638.644 127.8V125.8V123.8C632.158 123.8 626.776 121.819 622.372 117.905L621.044 119.4ZM638.644 125.8V127.8C645.942 127.8 651.736 126.225 655.598 122.672L654.244 121.2L652.89 119.728C650.085 122.308 645.479 123.8 638.644 123.8V125.8ZM654.244 121.2L655.598 122.672C659.105 119.445 661.803 115.836 663.658 111.842L661.844 111L660.03 110.158C658.418 113.63 656.049 116.821 652.89 119.728L654.244 121.2ZM661.844 111L660.915 112.771L681.515 123.571L682.444 121.8L683.372 120.029L662.772 109.229L661.844 111ZM682.444 121.8L680.683 120.852C678.908 124.148 676.273 127.825 672.736 131.886L674.244 133.2L675.752 134.514C679.415 130.308 682.246 126.385 684.205 122.748L682.444 121.8ZM674.244 133.2L672.732 131.89C669.474 135.65 665.035 138.968 659.349 141.811L660.244 143.6L661.138 145.389C667.186 142.365 672.08 138.75 675.755 134.51L674.244 133.2ZM660.244 143.6L659.382 141.795C653.869 144.426 646.723 145.8 637.844 145.8V147.8V149.8C647.098 149.8 654.885 148.374 661.105 145.405L660.244 143.6ZM613.644 84V86H660.044V84V82H613.644V84ZM660.044 84L662.035 83.8147C661.457 77.5959 658.895 72.4972 654.329 68.6676L653.044 70.2L651.759 71.7323C655.459 74.8361 657.564 78.9373 658.052 84.1852L660.044 84ZM653.044 70.2L654.354 68.6886C649.91 64.8377 644.141 63 637.244 63V65V67C643.413 67 648.177 68.6289 651.734 71.7113L653.044 70.2ZM637.244 65V63C630.103 63 624.191 64.8256 619.734 68.6886L621.044 70.2L622.354 71.7113C625.896 68.641 630.785 67 637.244 67V65ZM621.044 70.2L619.734 68.6886C615.345 72.4925 612.67 77.5313 611.67 83.6786L613.644 84L615.618 84.3213C616.484 79.002 618.743 74.8408 622.354 71.7113L621.044 70.2ZM749.273 147.8V145.8C736.623 145.8 726.445 143.062 718.595 137.744L717.473 139.4L716.352 141.056C725.035 146.938 736.057 149.8 749.273 149.8V147.8ZM717.473 139.4L718.595 137.744C710.81 132.47 706.095 124.965 704.446 115.071L702.473 115.4L700.501 115.729C702.318 126.635 707.604 135.13 716.352 141.056L717.473 139.4ZM702.473 115.4L702.974 117.336L726.174 111.336L725.673 109.4L725.173 107.464L701.973 113.464L702.473 115.4ZM725.673 109.4L723.712 109.792C724.685 114.656 726.316 118.654 728.712 121.649L730.273 120.4L731.835 119.151C729.964 116.812 728.529 113.477 727.635 109.008L725.673 109.4ZM730.273 120.4L728.75 121.695C731.231 124.615 734.245 126.75 737.771 128.073L738.473 126.2L739.176 124.327C736.302 123.25 733.849 121.519 731.797 119.105L730.273 120.4ZM738.473 126.2L737.864 128.105C741.414 129.241 745.221 129.8 749.273 129.8V127.8V125.8C745.592 125.8 742.2 125.292 739.083 124.295L738.473 126.2ZM749.273 127.8V129.8C755.294 129.8 760.132 128.788 763.436 126.427L762.273 124.8L761.111 123.172C758.815 124.812 754.987 125.8 749.273 125.8V127.8ZM762.273 124.8L763.486 126.391C766.699 123.943 768.473 120.789 768.473 117H766.473H764.473C764.473 119.345 763.448 121.39 761.061 123.209L762.273 124.8ZM766.473 117H768.473C768.473 113.219 766.761 110.24 763.502 108.285L762.473 110L761.444 111.715C763.519 112.96 764.473 114.648 764.473 117H766.473ZM762.473 110L763.563 108.323C760.556 106.368 755.971 104.912 750.031 103.832L749.673 105.8L749.316 107.768C755.11 108.821 759.057 110.165 761.383 111.677L762.473 110ZM749.673 105.8L750.025 103.831L744.425 102.831L744.073 104.8L743.722 106.769L749.322 107.769L749.673 105.8ZM744.073 104.8L744.451 102.836C737.623 101.523 731.411 99.7549 725.809 97.54L725.073 99.4L724.338 101.26C730.202 103.578 736.657 105.41 743.696 106.764L744.073 104.8ZM725.073 99.4L725.846 97.5551C720.362 95.2595 716.038 92.1687 712.806 88.3147L711.273 89.6L709.741 90.8852C713.442 95.2979 718.318 98.7404 724.301 101.245L725.073 99.4ZM711.273 89.6L712.806 88.3147C709.701 84.6134 708.073 79.7664 708.073 73.6H706.073H704.073C704.073 80.5001 705.912 86.3198 709.741 90.8852L711.273 89.6ZM706.073 73.6H708.073C708.073 64.2929 711.429 57.3994 718.044 52.6213L716.873 51L715.702 49.3786C707.918 55.0005 704.073 63.1736 704.073 73.6H706.073ZM716.873 51L718.064 52.6071C724.826 47.5978 733.836 45 745.273 45V43V41C733.244 41 723.32 43.7354 715.683 49.3928L716.873 51ZM745.273 43V45C756.043 45 764.828 47.3982 771.757 52.0594L772.873 50.4L773.99 48.7405C766.252 43.535 756.637 41 745.273 41V43ZM772.873 50.4L771.757 52.0594C778.725 56.7466 783.22 62.8305 785.349 70.3452L787.273 69.8L789.198 69.2548C786.794 60.7694 781.689 53.92 773.99 48.7405L772.873 50.4ZM787.273 69.8L786.685 67.8884L763.285 75.0884L763.873 77L764.462 78.9115L787.862 71.7115L787.273 69.8ZM763.873 77L765.831 76.5879C764.689 71.1652 762.264 67.0192 758.352 64.5154L757.273 66.2L756.195 67.8845C758.95 69.6474 760.925 72.7014 761.916 77.412L763.873 77ZM757.273 66.2L758.383 64.5359C754.781 62.1347 750.37 61 745.273 61V63V65C749.777 65 753.366 65.9985 756.164 67.8641L757.273 66.2ZM745.273 63V61C740.281 61 736.149 61.8932 733.144 63.9493L734.273 65.6L735.403 67.2506C737.464 65.8401 740.666 65 745.273 65V63ZM734.273 65.6L733.205 63.909C730.107 65.8659 728.473 68.7627 728.473 72.4H730.473H732.473C732.473 70.1706 733.373 68.5341 735.341 67.2909L734.273 65.6ZM730.473 72.4H728.473C728.473 76.2775 730.154 79.3408 733.444 81.3149L734.473 79.6L735.502 77.885C733.459 76.6591 732.473 74.9224 732.473 72.4H730.473ZM734.473 79.6L733.51 81.3524C736.44 82.9642 740.276 84.1489 744.926 84.9695L745.273 83L745.621 81.0304C741.205 80.251 737.84 79.169 735.437 77.8475L734.473 79.6ZM745.273 83L744.922 84.9688L750.522 85.9688L750.873 84L751.225 82.0311L745.625 81.0311L745.273 83ZM750.873 84L750.522 85.9688C757.889 87.2843 764.5 89.0547 770.367 91.2709L771.073 89.4L771.78 87.529C765.647 85.2118 758.792 83.3823 751.225 82.0311L750.873 84ZM771.073 89.4L770.416 91.2889C776.278 93.3279 780.75 96.2799 783.941 100.085L785.473 98.8L787.006 97.5147C783.264 93.0533 778.135 89.7386 771.73 87.511L771.073 89.4ZM785.473 98.8L783.987 100.138C787.17 103.675 788.873 108.614 788.873 115.2H790.873H792.873C792.873 107.919 790.977 101.925 786.96 97.462L785.473 98.8ZM790.873 115.2H788.873C788.873 125.039 785.317 132.487 778.269 137.803L779.473 139.4L780.678 140.997C788.83 134.847 792.873 126.16 792.873 115.2H790.873ZM779.473 139.4L778.273 137.8C771.258 143.062 761.66 145.8 749.273 145.8V147.8V149.8C762.22 149.8 772.756 146.938 780.673 141L779.473 139.4ZM812.956 145H814.956V45.8H812.956H810.956V145H812.956ZM812.956 45.8V47.8H838.156V45.8V43.8H812.956V45.8ZM838.156 45.8H836.156V145H838.156H840.156V45.8H838.156ZM838.156 145V143H812.956V145V147H838.156V145ZM825.556 34.2V32.2C821.499 32.2 818.121 30.9047 815.308 28.3256L813.956 29.8L812.605 31.2743C816.191 34.5618 820.547 36.2 825.556 36.2V34.2ZM813.956 29.8L815.339 28.3547C812.72 25.8497 811.356 22.5327 811.356 18.2H809.356H807.356C807.356 23.4673 809.059 27.8835 812.574 31.2452L813.956 29.8ZM809.356 18.2H811.356C811.356 13.8673 812.72 10.5502 815.339 8.04524L813.956 6.59995L812.574 5.15467C809.059 8.51636 807.356 12.9327 807.356 18.2H809.356ZM813.956 6.59995L815.308 8.07426C818.121 5.49517 821.499 4.19995 825.556 4.19995V2.19995V0.199951C820.547 0.199951 816.191 1.83807 812.605 5.12565L813.956 6.59995ZM825.556 2.19995V4.19995C829.764 4.19995 833.118 5.50484 835.774 8.04524L837.156 6.59995L838.539 5.15467C835.061 1.8284 830.682 0.199951 825.556 0.199951V2.19995ZM837.156 6.59995L835.774 8.04524C838.393 10.5502 839.756 13.8673 839.756 18.2H841.756H843.756C843.756 12.9327 842.053 8.51636 838.539 5.15467L837.156 6.59995ZM841.756 18.2H839.756C839.756 22.5327 838.393 25.8497 835.774 28.3547L837.156 29.8L838.539 31.2452C842.053 27.8835 843.756 23.4673 843.756 18.2H841.756ZM837.156 29.8L835.774 28.3547C833.118 30.8951 829.764 32.2 825.556 32.2V34.2V36.2C830.682 36.2 835.061 34.5715 838.539 31.2452L837.156 29.8ZM861.281 95.8H863.281V92.6H861.281H859.281V95.8H861.281ZM861.281 92.6H863.281C863.281 82.4638 865.295 73.9527 869.224 66.982L867.481 66L865.739 65.0179C861.401 72.7139 859.281 81.9361 859.281 92.6H861.281ZM867.481 66L869.231 66.9686C873.203 59.7934 878.418 54.407 884.87 50.7385L883.881 49L882.893 47.2614C875.744 51.3262 870.026 57.2732 865.731 65.0313L867.481 66ZM883.881 49L884.881 50.7323C891.505 46.9106 898.693 45 906.481 45V43V41C898.003 41 890.124 43.0893 882.882 47.2676L883.881 49ZM906.481 43V45C915.367 45 921.762 46.5777 925.95 49.4494L927.081 47.8L928.212 46.1505C923.067 42.6222 915.729 41 906.481 41V43ZM927.081 47.8L925.95 49.4494C930.47 52.5489 933.637 55.6935 935.578 58.8482L937.281 57.8L938.985 56.7518C936.659 52.9731 933.026 49.451 928.212 46.1505L927.081 47.8ZM937.281 57.8V59.8H940.881V57.8V55.8H937.281V57.8ZM940.881 57.8H942.881V45.8H940.881H938.881V57.8H940.881ZM940.881 45.8V47.8H965.681V45.8V43.8H940.881V45.8ZM965.681 45.8H963.681V162.6H965.681H967.681V45.8H965.681ZM965.681 162.6H963.681C963.681 168.984 961.818 173.835 958.267 177.386L959.681 178.8L961.095 180.214C965.545 175.765 967.681 169.816 967.681 162.6H965.681ZM959.681 178.8L958.244 177.409C954.681 181.091 949.9 183 943.681 183V185V187C950.796 187 956.681 184.776 961.118 180.191L959.681 178.8ZM943.681 185V183H877.281V185V187H943.681V185ZM877.281 185H879.281V163H877.281H875.281V185H877.281ZM877.281 163V165H934.881V163V161H877.281V163ZM934.881 163V165C937.093 165 939.109 164.401 940.543 162.865C941.953 161.354 942.481 159.275 942.481 157H940.481H938.481C938.481 158.725 938.076 159.646 937.619 160.135C937.187 160.599 936.403 161 934.881 161V163ZM940.481 157H942.481V131.2H940.481H938.481V157H940.481ZM940.481 131.2V129.2H936.881V131.2V133.2H940.481V131.2ZM936.881 131.2L935.185 130.14C933.965 132.092 932.22 134.162 929.908 136.346L931.281 137.8L932.654 139.254C935.142 136.904 937.131 134.575 938.577 132.26L936.881 131.2ZM931.281 137.8L929.953 136.305C927.79 138.227 924.83 139.915 920.993 141.322L921.681 143.2L922.37 145.078C926.533 143.551 929.972 141.639 932.61 139.295L931.281 137.8ZM921.681 143.2L920.993 141.322C917.287 142.681 912.474 143.4 906.481 143.4V145.4V147.4C912.755 147.4 918.075 146.652 922.37 145.078L921.681 143.2ZM906.481 145.4V143.4C898.68 143.4 891.483 141.55 884.855 137.853L883.881 139.6L882.907 141.347C890.146 145.384 898.016 147.4 906.481 147.4V145.4ZM883.881 139.6L884.895 137.876C878.42 134.067 873.196 128.665 869.224 121.618L867.481 122.6L865.739 123.582C870.033 131.201 875.743 137.133 882.867 141.324L883.881 139.6ZM867.481 122.6L869.231 121.631C865.294 114.519 863.281 105.935 863.281 95.8H861.281H859.281C859.281 106.465 861.402 115.747 865.731 123.569L867.481 122.6ZM913.681 123.4V125.4C921.883 125.4 928.855 122.766 934.458 117.451L933.081 116L931.705 114.549C926.907 119.1 920.947 121.4 913.681 121.4V123.4ZM933.081 116L934.458 117.451C940.149 112.051 942.881 104.538 942.881 95.2H940.881H938.881C938.881 103.729 936.413 110.082 931.705 114.549L933.081 116ZM940.881 95.2H942.881V93.2H940.881H938.881V95.2H940.881ZM940.881 93.2H942.881C942.881 83.7416 940.156 76.2088 934.438 70.9303L933.081 72.4L931.725 73.8696C936.406 78.1911 938.881 84.525 938.881 93.2H940.881ZM933.081 72.4L934.476 70.967C928.993 65.6278 922.005 63 913.681 63V65V67C921.091 67 927.036 69.3054 931.686 73.8329L933.081 72.4ZM913.681 65V63C905.48 63 898.507 65.6338 892.905 70.949L894.281 72.4L895.658 73.8509C900.455 69.2994 906.416 67 913.681 67V65ZM894.281 72.4L892.925 70.9303C887.206 76.2088 884.481 83.7416 884.481 93.2H886.481H888.481C888.481 84.5249 890.956 78.1911 895.638 73.8696L894.281 72.4ZM886.481 93.2H884.481V95.2H886.481H888.481V93.2H886.481ZM886.481 95.2H884.481C884.481 104.538 887.213 112.051 892.905 117.451L894.281 116L895.658 114.549C890.949 110.082 888.481 103.729 888.481 95.2H886.481ZM894.281 116L892.905 117.451C898.507 122.766 905.48 125.4 913.681 125.4V123.4V121.4C906.416 121.4 900.455 119.1 895.658 114.549L894.281 116ZM993.62 145H995.62V45.8H993.62H991.62V145H993.62ZM993.62 45.8V47.8H1018.42V45.8V43.8H993.62V45.8ZM1018.42 45.8H1016.42V58.8H1018.42H1020.42V45.8H1018.42ZM1018.42 58.8V60.8H1022.02V58.8V56.8H1018.42V58.8ZM1022.02 58.8L1023.84 59.6381C1025.24 56.5987 1027.94 53.5824 1032.16 50.6408L1031.02 49L1029.88 47.3592C1025.3 50.5508 1022 54.0679 1020.2 57.9618L1022.02 58.8ZM1031.02 49L1032.2 50.6174C1036.1 47.7802 1042.26 46.2 1051.02 46.2V44.2V42.2C1041.91 42.2 1034.74 43.8197 1029.84 47.3825L1031.02 49ZM1051.02 44.2V46.2C1058.43 46.2 1064.79 47.9211 1070.16 51.2937L1071.22 49.6L1072.28 47.9062C1066.19 44.0788 1059.08 42.2 1051.02 42.2V44.2ZM1071.22 49.6L1070.2 51.3218C1075.73 54.5891 1080.01 59.1689 1083.04 65.1095L1084.82 64.2L1086.6 63.2904C1083.24 56.6976 1078.44 51.5442 1072.24 47.8781L1071.22 49.6ZM1084.82 64.2L1083.05 65.1251C1086.07 70.9222 1087.62 77.793 1087.62 85.8H1089.62H1091.62C1091.62 77.2736 1089.97 69.7444 1086.59 63.2748L1084.82 64.2ZM1089.62 85.8H1087.62V145H1089.62H1091.62V85.8H1089.62ZM1089.62 145V143H1064.42V145V147H1089.62V145ZM1064.42 145H1066.42V87.8H1064.42H1062.42V145H1064.42ZM1064.42 87.8H1066.42C1066.42 80.025 1064.48 73.8264 1060.23 69.5857L1058.82 71L1057.41 72.4142C1060.63 75.6401 1062.42 80.6416 1062.42 87.8H1064.42ZM1058.82 71L1060.26 69.6117C1056.18 65.3763 1050.39 63.4 1043.22 63.4V65.4V67.4C1049.65 67.4 1054.26 69.1569 1057.38 72.3882L1058.82 71ZM1043.22 65.4V63.4C1034.99 63.4 1028.38 66.1959 1023.67 71.9313L1025.22 73.2L1026.77 74.4686C1030.59 69.804 1035.99 67.4 1043.22 67.4V65.4ZM1025.22 73.2L1023.69 71.9117C1019.02 77.4573 1016.82 85.1106 1016.82 94.6H1018.82H1020.82C1020.82 85.6893 1022.89 79.076 1026.75 74.4882L1025.22 73.2ZM1018.82 94.6H1016.82V145H1018.82H1020.82V94.6H1018.82ZM1018.82 145V143H993.62V145V147H1018.82V145Z" fill="black" mask="url(#path-1-outside-1_140_43)"/>
</svg>
