<svg width="871" height="394" viewBox="0 0 871 394" fill="none" xmlns="http://www.w3.org/2000/svg">
<mask id="path-1-outside-1_140_45" maskUnits="userSpaceOnUse" x="0" y="0" width="871" height="394" fill="black">
<rect fill="white" width="871" height="394"/>
<path d="M98.3639 269.037C75.5375 269.037 57.3792 287.645 57.8864 310.518C58.3935 333.392 77.3769 352 100.203 352C123.029 352 141.188 333.392 140.68 310.518C140.173 287.645 121.19 269.037 98.3639 269.037ZM99.9368 339.98C98.6171 339.98 97.3159 339.893 96.0385 339.725C90.5204 338.995 85.4484 336.742 81.269 333.401C79.6814 332.132 78.2227 330.706 76.9171 329.148C73.4338 324.989 71.0411 319.885 70.2036 314.29C70.0188 313.055 69.9097 311.796 69.8813 310.518C69.864 309.738 69.8772 308.964 69.9197 308.198C70.2534 302.194 72.3948 296.694 75.8179 292.239C77.0581 290.625 78.4665 289.148 80.0181 287.834C84.4028 284.12 89.9312 281.706 96.0385 281.17C96.8917 281.095 97.7561 281.056 98.6304 281.056C99.8083 281.056 100.972 281.126 102.116 281.261C108.048 281.96 113.482 284.42 117.868 288.103C119.424 289.41 120.848 290.87 122.116 292.46C125.637 296.875 127.954 302.293 128.544 308.198C128.621 308.964 128.668 309.738 128.685 310.518C128.714 311.796 128.661 313.055 128.53 314.29C127.901 320.262 125.476 325.675 121.794 329.975C120.513 331.471 119.081 332.832 117.519 334.035C113.209 337.355 107.916 339.474 102.116 339.901C101.397 339.954 100.67 339.98 99.9368 339.98Z"/>
<path d="M91.7408 314.29L94.7798 311.244L91.7408 308.198H69.9197C69.8772 308.964 69.864 309.738 69.8813 310.518C69.9097 311.796 70.0188 313.055 70.2036 314.29H91.7408Z"/>
<path d="M96.0385 308.198V303.994L80.0181 287.834C78.4665 289.148 77.0581 290.625 75.8179 292.239L91.7408 308.198H96.0385Z"/>
<path d="M102.116 281.261C100.972 281.126 99.8083 281.056 98.6304 281.056C97.7561 281.056 96.8917 281.095 96.0385 281.17V303.994L99.0162 306.998L102.116 303.891V281.261Z"/>
<path d="M106.414 308.198L122.116 292.46C120.848 290.87 119.424 289.41 117.868 288.103L102.116 303.891V308.198H106.414Z"/>
<path d="M128.53 314.29C128.661 313.055 128.714 311.796 128.685 310.518C128.668 309.738 128.621 308.964 128.544 308.198H106.414L103.3 311.32L106.245 314.29H128.53Z"/>
<path d="M117.519 334.035C119.081 332.832 120.513 331.471 121.794 329.975L106.245 314.29H102.116V318.598L117.519 334.035Z"/>
<path d="M96.0385 339.725C97.3159 339.893 98.6171 339.98 99.9368 339.98C100.67 339.98 101.397 339.954 102.116 339.901L102.116 318.598L99.0774 315.552L96.0385 318.598V339.725Z"/>
<path d="M76.9171 329.148C78.2227 330.706 79.6814 332.132 81.269 333.401L96.0385 318.598V314.29H91.7408L76.9171 329.148Z"/>
<path d="M94.7798 311.244L91.7408 314.29H96.0385V312.506L94.7798 311.244Z"/>
<path d="M91.7408 308.198L94.7798 311.244L96.0385 309.983V308.198H91.7408Z"/>
<path d="M96.0385 303.994V308.198H97.8187L99.0162 306.998L96.0385 303.994Z"/>
<path d="M102.116 303.891L99.0162 306.998L100.206 308.198H102.116V303.891Z"/>
<path d="M106.414 308.198H102.116V310.125L103.3 311.32L106.414 308.198Z"/>
<path d="M106.245 314.29L103.3 311.32L102.116 312.506V314.29H106.245Z"/>
<path d="M102.116 318.598V314.29H100.336L99.0774 315.552L102.116 318.598Z"/>
<path d="M96.0385 318.598L99.0774 315.552L97.8187 314.29H96.0385V318.598Z"/>
<path d="M100.336 314.29H97.8187L99.0774 315.552L100.336 314.29Z"/>
<path d="M102.116 312.506L100.336 314.29H102.116V312.506Z"/>
<path d="M102.116 310.125V312.506L103.3 311.32L102.116 310.125Z"/>
<path d="M96.0385 309.983V312.506L97.8187 314.29H100.336L102.116 312.506V310.125L100.206 308.198H97.8187L96.0385 309.983Z"/>
<path d="M100.206 308.198L102.116 310.125V308.198H100.206Z"/>
<path d="M97.8187 308.198H100.206L99.0162 306.998L97.8187 308.198Z"/>
<path d="M96.0385 308.198V309.983L97.8187 308.198H96.0385Z"/>
<path d="M94.7798 311.244L96.0385 312.506V309.983L94.7798 311.244Z"/>
<path d="M96.0385 312.506V314.29H97.8187L96.0385 312.506Z"/>
<path d="M106.446 311.164C106.446 315.009 103.336 318.126 99.5002 318.126C95.6639 318.126 92.554 315.009 92.554 311.164C92.554 307.319 95.6639 304.202 99.5002 304.202C103.336 304.202 106.446 307.319 106.446 311.164Z"/>
<path d="M96.0385 290.793H102.985V310.383C102.985 311.099 102.406 311.679 101.691 311.679H97.3319C96.6176 311.679 96.0385 311.099 96.0385 310.383V290.793Z"/>
<path d="M2 27.9259C2 13.6074 13.5809 2 27.8667 2H170.133C184.419 2 196 13.6074 196 27.9259V73.2963C196 87.6148 184.419 99.2222 170.133 99.2222H27.8667C13.5809 99.2222 2 87.6148 2 73.2963V27.9259Z"/>
<path d="M18.8133 32.463C18.8133 25.3037 24.6038 19.5 31.7467 19.5H166.253C173.396 19.5 179.187 25.3037 179.187 32.463V69.4074C179.187 76.5667 173.396 82.3704 166.253 82.3704H31.7467C24.6038 82.3704 18.8133 76.5667 18.8133 69.4074V32.463Z"/>
<path d="M88.0067 99.2222H109.347V113.481H88.0067V99.2222Z"/>
<path d="M145.065 146.268L161.99 141.968L171.204 178.409L154.279 182.708L145.065 146.268Z"/>
<path d="M156.898 195.973L174.339 195.148L176.107 232.699L158.666 233.524L156.898 195.973Z"/>
<path fill-rule="evenodd" clip-rule="evenodd" d="M185.685 250.621C185.477 252.548 184.785 256.083 184.363 258.263L174.223 256.964C174.96 252.55 176.97 245.966 174.18 242.284C171.312 238.499 165.282 238.373 162.239 242.023C159.552 245.245 160.732 252.299 161.207 256.435L150.855 257.053C150.611 254.847 150.41 251.158 150.358 249.221C149.62 221.574 188.671 223.061 185.685 250.621Z"/>
<path d="M164.78 131.899C166.623 139.185 162.223 146.59 154.953 148.436C147.682 150.283 140.295 145.873 138.453 138.586C136.61 131.299 141.01 123.895 148.28 122.048C155.551 120.202 162.938 124.612 164.78 131.899Z"/>
<path d="M178.284 185.303C180.126 192.59 175.726 199.994 168.456 201.841C161.186 203.687 153.799 199.277 151.956 191.99C150.114 184.704 154.514 177.299 161.784 175.453C169.054 173.606 176.441 178.016 178.284 185.303Z"/>
<path d="M53.0195 146.23L36.0946 141.93L26.8804 178.371L43.8053 182.67L53.0195 146.23Z"/>
<path d="M41.1862 195.935L23.7456 195.11L21.9775 232.661L39.4181 233.486L41.1862 195.935Z"/>
<path fill-rule="evenodd" clip-rule="evenodd" d="M12.3989 250.583C12.6075 252.51 13.2993 256.045 13.7213 258.225L23.8617 256.926C23.1247 252.512 21.1145 245.928 23.9047 242.246C26.7726 238.461 32.802 238.335 35.8449 241.985C38.5322 245.208 37.3521 252.261 36.8769 256.397L47.2297 257.015C47.4736 254.809 47.6742 251.12 47.7257 249.183C48.4643 221.536 9.4135 223.023 12.3989 250.583Z"/>
<path d="M33.3039 131.861C31.4614 139.148 35.8614 146.552 43.1316 148.398C50.4018 150.245 57.789 145.835 59.6316 138.548C61.4741 131.261 57.0741 123.857 49.8039 122.01C42.5337 120.164 35.1464 124.574 33.3039 131.861Z"/>
<path d="M19.8004 185.265C17.9579 192.552 22.3579 199.956 29.6281 201.803C36.8982 203.649 44.2855 199.239 46.1281 191.953C47.9706 184.666 43.5706 177.261 36.3004 175.415C29.0302 173.568 21.6429 177.978 19.8004 185.265Z"/>
<path d="M53.0867 126.444C53.0867 119.285 58.8771 113.481 66.02 113.481H131.98C139.123 113.481 144.913 119.285 144.913 126.444V278.759C144.913 285.918 139.123 291.722 131.98 291.722H66.02C58.8771 291.722 53.0867 285.918 53.0867 278.759V126.444Z"/>
<path d="M75.0733 45.1018C75.0733 51.7242 69.8619 57.0926 63.4333 57.0926C57.0047 57.0926 51.7933 51.7242 51.7933 45.1018C51.7933 38.4795 57.0047 33.1111 63.4333 33.1111C69.8619 33.1111 75.0733 38.4795 75.0733 45.1018Z"/>
<path d="M145.56 45.1018C145.56 51.7242 140.349 57.0926 133.92 57.0926C127.491 57.0926 122.28 51.7242 122.28 45.1018C122.28 38.4795 127.491 33.1111 133.92 33.1111C140.349 33.1111 145.56 38.4795 145.56 45.1018Z"/>
<path d="M98.9967 68.4447C104.149 68.4447 109.017 66.2068 112.314 62.3215C113.662 60.7363 116.072 60.5343 117.673 61.8397C119.29 63.1607 119.512 65.5074 118.165 67.0926C113.408 72.6874 106.417 75.8889 98.9967 75.8889C91.5769 75.8889 84.5852 72.6874 79.8289 67.0926C78.4971 65.5074 78.7032 63.1607 80.3203 61.8397C81.9216 60.5343 84.3315 60.7363 85.6791 62.3215C88.9768 66.2223 93.8441 68.4447 98.9967 68.4447Z"/>
<path d="M233.2 352V328.8H251.6V235.2H233.2V212H290.8C309.6 212 323.867 216.8 333.6 226.4C343.467 235.867 348.4 250 348.4 268.8V295.2C348.4 314 343.467 328.2 333.6 337.8C323.867 347.267 309.6 352 290.8 352H233.2ZM278 328H291.2C301.867 328 309.667 325.2 314.6 319.6C319.533 314 322 306.133 322 296V268C322 257.733 319.533 249.867 314.6 244.4C309.667 238.8 301.867 236 291.2 236H278V328Z"/>
<path d="M416.403 354.8C406.536 354.8 397.803 352.733 390.203 348.6C382.736 344.333 376.87 338.4 372.603 330.8C368.47 323.067 366.403 314 366.403 303.6V301.2C366.403 290.8 368.47 281.8 372.603 274.2C376.736 266.467 382.536 260.533 390.003 256.4C397.47 252.133 406.136 250 416.003 250C425.736 250 434.203 252.2 441.403 256.6C448.603 260.867 454.203 266.867 458.203 274.6C462.203 282.2 464.203 291.067 464.203 301.2V309.8H392.003C392.27 316.6 394.803 322.133 399.603 326.4C404.403 330.667 410.27 332.8 417.203 332.8C424.27 332.8 429.47 331.267 432.803 328.2C436.136 325.133 438.67 321.733 440.403 318L461.003 328.8C459.136 332.267 456.403 336.067 452.803 340.2C449.336 344.2 444.67 347.667 438.803 350.6C432.936 353.4 425.47 354.8 416.403 354.8ZM392.203 291H438.603C438.07 285.267 435.736 280.667 431.603 277.2C427.603 273.733 422.336 272 415.803 272C409.003 272 403.603 273.733 399.603 277.2C395.603 280.667 393.136 285.267 392.203 291Z"/>
<path d="M527.833 354.8C514.899 354.8 504.299 352 496.033 346.4C487.766 340.8 482.766 332.8 481.033 322.4L504.233 316.4C505.166 321.067 506.699 324.733 508.833 327.4C511.099 330.067 513.833 332 517.033 333.2C520.366 334.267 523.966 334.8 527.833 334.8C533.699 334.8 538.033 333.8 540.833 331.8C543.633 329.667 545.033 327.067 545.033 324C545.033 320.933 543.699 318.6 541.033 317C538.366 315.267 534.099 313.867 528.233 312.8L522.633 311.8C515.699 310.467 509.366 308.667 503.633 306.4C497.899 304 493.299 300.733 489.833 296.6C486.366 292.467 484.633 287.133 484.633 280.6C484.633 270.733 488.233 263.2 495.433 258C502.633 252.667 512.099 250 523.833 250C534.899 250 544.099 252.467 551.433 257.4C558.766 262.333 563.566 268.8 565.833 276.8L542.433 284C541.366 278.933 539.166 275.333 535.833 273.2C532.633 271.067 528.633 270 523.833 270C519.033 270 515.366 270.867 512.833 272.6C510.299 274.2 509.033 276.467 509.033 279.4C509.033 282.6 510.366 285 513.033 286.6C515.699 288.067 519.299 289.2 523.833 290L529.433 291C536.899 292.333 543.633 294.133 549.633 296.4C555.766 298.533 560.566 301.667 564.033 305.8C567.633 309.8 569.433 315.267 569.433 322.2C569.433 332.6 565.633 340.667 558.033 346.4C550.566 352 540.499 354.8 527.833 354.8Z"/>
<path d="M591.516 352V252.8H616.716V352H591.516ZM604.116 241.2C599.582 241.2 595.716 239.733 592.516 236.8C589.449 233.867 587.916 230 587.916 225.2C587.916 220.4 589.449 216.533 592.516 213.6C595.716 210.667 599.582 209.2 604.116 209.2C608.782 209.2 612.649 210.667 615.716 213.6C618.782 216.533 620.316 220.4 620.316 225.2C620.316 230 618.782 233.867 615.716 236.8C612.649 239.733 608.782 241.2 604.116 241.2Z"/>
<path d="M639.841 302.8V299.6C639.841 289.2 641.907 280.333 646.041 273C650.174 265.533 655.641 259.867 662.441 256C669.374 252 676.907 250 685.041 250C694.107 250 700.974 251.6 705.641 254.8C710.307 258 713.707 261.333 715.841 264.8H719.441V252.8H744.241V369.6C744.241 376.4 742.241 381.8 738.241 385.8C734.241 389.933 728.907 392 722.241 392H655.841V370H713.441C717.174 370 719.041 368 719.041 364V338.2H715.441C714.107 340.333 712.241 342.533 709.841 344.8C707.441 346.933 704.241 348.733 700.241 350.2C696.241 351.667 691.174 352.4 685.041 352.4C676.907 352.4 669.374 350.467 662.441 346.6C655.641 342.6 650.174 336.933 646.041 329.6C641.907 322.133 639.841 313.2 639.841 302.8ZM692.241 330.4C699.974 330.4 706.441 327.933 711.641 323C716.841 318.067 719.441 311.133 719.441 302.2V300.2C719.441 291.133 716.841 284.2 711.641 279.4C706.574 274.467 700.107 272 692.241 272C684.507 272 678.041 274.467 672.841 279.4C667.641 284.2 665.041 291.133 665.041 300.2V302.2C665.041 311.133 667.641 318.067 672.841 323C678.041 327.933 684.507 330.4 692.241 330.4Z"/>
<path d="M772.18 352V252.8H796.98V265.8H800.58C802.18 262.333 805.18 259.067 809.58 256C813.98 252.8 820.646 251.2 829.58 251.2C837.313 251.2 844.046 253 849.78 256.6C855.646 260.067 860.18 264.933 863.38 271.2C866.58 277.333 868.18 284.533 868.18 292.8V352H842.98V294.8C842.98 287.333 841.113 281.733 837.38 278C833.78 274.267 828.58 272.4 821.78 272.4C814.046 272.4 808.046 275 803.78 280.2C799.513 285.267 797.38 292.4 797.38 301.6V352H772.18Z"/>
<path d="M233 144.8V4.8H282L306.2 126.8H309.8L334 4.8H383V144.8H357.4V24.2H353.8L329.8 144.8H286.2L262.2 24.2H258.6V144.8H233Z"/>
<path d="M410.167 144.8V45.6H435.367V144.8H410.167ZM422.767 34C418.234 34 414.367 32.5333 411.167 29.6C408.101 26.6667 406.567 22.8 406.567 18C406.567 13.2 408.101 9.33334 411.167 6.4C414.367 3.46667 418.234 2 422.767 2C427.434 2 431.301 3.46667 434.367 6.4C437.434 9.33334 438.967 13.2 438.967 18C438.967 22.8 437.434 26.6667 434.367 29.6C431.301 32.5333 427.434 34 422.767 34Z"/>
<path d="M463.292 144.8V45.6H488.092V58.6H491.692C493.292 55.1333 496.292 51.8667 500.692 48.8C505.092 45.6 511.759 44 520.692 44C528.426 44 535.159 45.8 540.892 49.4C546.759 52.8667 551.292 57.7333 554.492 64C557.692 70.1333 559.292 77.3333 559.292 85.6V144.8H534.092V87.6C534.092 80.1333 532.226 74.5333 528.492 70.8C524.892 67.0667 519.692 65.2 512.892 65.2C505.159 65.2 499.159 67.8 494.892 73C490.626 78.0667 488.492 85.2 488.492 94.4V144.8H463.292Z"/>
<path d="M586.534 144.8V45.6H611.734V144.8H586.534ZM599.134 34C594.601 34 590.734 32.5333 587.534 29.6C584.468 26.6667 582.934 22.8 582.934 18C582.934 13.2 584.468 9.33334 587.534 6.4C590.734 3.46667 594.601 2 599.134 2C603.801 2 607.668 3.46667 610.734 6.4C613.801 9.33334 615.334 13.2 615.334 18C615.334 22.8 613.801 26.6667 610.734 29.6C607.668 32.5333 603.801 34 599.134 34Z"/>
</mask>
<path d="M98.3639 269.037C75.5375 269.037 57.3792 287.645 57.8864 310.518C58.3935 333.392 77.3769 352 100.203 352C123.029 352 141.188 333.392 140.68 310.518C140.173 287.645 121.19 269.037 98.3639 269.037ZM99.9368 339.98C98.6171 339.98 97.3159 339.893 96.0385 339.725C90.5204 338.995 85.4484 336.742 81.269 333.401C79.6814 332.132 78.2227 330.706 76.9171 329.148C73.4338 324.989 71.0411 319.885 70.2036 314.29C70.0188 313.055 69.9097 311.796 69.8813 310.518C69.864 309.738 69.8772 308.964 69.9197 308.198C70.2534 302.194 72.3948 296.694 75.8179 292.239C77.0581 290.625 78.4665 289.148 80.0181 287.834C84.4028 284.12 89.9312 281.706 96.0385 281.17C96.8917 281.095 97.7561 281.056 98.6304 281.056C99.8083 281.056 100.972 281.126 102.116 281.261C108.048 281.96 113.482 284.42 117.868 288.103C119.424 289.41 120.848 290.87 122.116 292.46C125.637 296.875 127.954 302.293 128.544 308.198C128.621 308.964 128.668 309.738 128.685 310.518C128.714 311.796 128.661 313.055 128.53 314.29C127.901 320.262 125.476 325.675 121.794 329.975C120.513 331.471 119.081 332.832 117.519 334.035C113.209 337.355 107.916 339.474 102.116 339.901C101.397 339.954 100.67 339.98 99.9368 339.98Z" fill="#424242"/>
<path d="M91.7408 314.29L94.7798 311.244L91.7408 308.198H69.9197C69.8772 308.964 69.864 309.738 69.8813 310.518C69.9097 311.796 70.0188 313.055 70.2036 314.29H91.7408Z" fill="#424242"/>
<path d="M96.0385 308.198V303.994L80.0181 287.834C78.4665 289.148 77.0581 290.625 75.8179 292.239L91.7408 308.198H96.0385Z" fill="#424242"/>
<path d="M102.116 281.261C100.972 281.126 99.8083 281.056 98.6304 281.056C97.7561 281.056 96.8917 281.095 96.0385 281.17V303.994L99.0162 306.998L102.116 303.891V281.261Z" fill="#424242"/>
<path d="M106.414 308.198L122.116 292.46C120.848 290.87 119.424 289.41 117.868 288.103L102.116 303.891V308.198H106.414Z" fill="#424242"/>
<path d="M128.53 314.29C128.661 313.055 128.714 311.796 128.685 310.518C128.668 309.738 128.621 308.964 128.544 308.198H106.414L103.3 311.32L106.245 314.29H128.53Z" fill="#424242"/>
<path d="M117.519 334.035C119.081 332.832 120.513 331.471 121.794 329.975L106.245 314.29H102.116V318.598L117.519 334.035Z" fill="#424242"/>
<path d="M96.0385 339.725C97.3159 339.893 98.6171 339.98 99.9368 339.98C100.67 339.98 101.397 339.954 102.116 339.901L102.116 318.598L99.0774 315.552L96.0385 318.598V339.725Z" fill="#424242"/>
<path d="M76.9171 329.148C78.2227 330.706 79.6814 332.132 81.269 333.401L96.0385 318.598V314.29H91.7408L76.9171 329.148Z" fill="#424242"/>
<path d="M94.7798 311.244L91.7408 314.29H96.0385V312.506L94.7798 311.244Z" fill="#424242"/>
<path d="M91.7408 308.198L94.7798 311.244L96.0385 309.983V308.198H91.7408Z" fill="#424242"/>
<path d="M96.0385 303.994V308.198H97.8187L99.0162 306.998L96.0385 303.994Z" fill="#424242"/>
<path d="M102.116 303.891L99.0162 306.998L100.206 308.198H102.116V303.891Z" fill="#424242"/>
<path d="M106.414 308.198H102.116V310.125L103.3 311.32L106.414 308.198Z" fill="#424242"/>
<path d="M106.245 314.29L103.3 311.32L102.116 312.506V314.29H106.245Z" fill="#424242"/>
<path d="M102.116 318.598V314.29H100.336L99.0774 315.552L102.116 318.598Z" fill="#424242"/>
<path d="M96.0385 318.598L99.0774 315.552L97.8187 314.29H96.0385V318.598Z" fill="#424242"/>
<path d="M100.336 314.29H97.8187L99.0774 315.552L100.336 314.29Z" fill="#424242"/>
<path d="M102.116 312.506L100.336 314.29H102.116V312.506Z" fill="#424242"/>
<path d="M102.116 310.125V312.506L103.3 311.32L102.116 310.125Z" fill="#424242"/>
<path d="M96.0385 309.983V312.506L97.8187 314.29H100.336L102.116 312.506V310.125L100.206 308.198H97.8187L96.0385 309.983Z" fill="#424242"/>
<path d="M100.206 308.198L102.116 310.125V308.198H100.206Z" fill="#424242"/>
<path d="M97.8187 308.198H100.206L99.0162 306.998L97.8187 308.198Z" fill="#424242"/>
<path d="M96.0385 308.198V309.983L97.8187 308.198H96.0385Z" fill="#424242"/>
<path d="M94.7798 311.244L96.0385 312.506V309.983L94.7798 311.244Z" fill="#424242"/>
<path d="M96.0385 312.506V314.29H97.8187L96.0385 312.506Z" fill="#424242"/>
<path d="M106.446 311.164C106.446 315.009 103.336 318.126 99.5002 318.126C95.6639 318.126 92.554 315.009 92.554 311.164C92.554 307.319 95.6639 304.202 99.5002 304.202C103.336 304.202 106.446 307.319 106.446 311.164Z" fill="#D9D9D9"/>
<path d="M96.0385 290.793H102.985V310.383C102.985 311.099 102.406 311.679 101.691 311.679H97.3319C96.6176 311.679 96.0385 311.099 96.0385 310.383V290.793Z" fill="#D9D9D9"/>
<path d="M2 27.9259C2 13.6074 13.5809 2 27.8667 2H170.133C184.419 2 196 13.6074 196 27.9259V73.2963C196 87.6148 184.419 99.2222 170.133 99.2222H27.8667C13.5809 99.2222 2 87.6148 2 73.2963V27.9259Z" fill="#F5F5F7"/>
<path d="M18.8133 32.463C18.8133 25.3037 24.6038 19.5 31.7467 19.5H166.253C173.396 19.5 179.187 25.3037 179.187 32.463V69.4074C179.187 76.5667 173.396 82.3704 166.253 82.3704H31.7467C24.6038 82.3704 18.8133 76.5667 18.8133 69.4074V32.463Z" fill="#5246FF"/>
<path d="M88.0067 99.2222H109.347V113.481H88.0067V99.2222Z" fill="#F5F5F7"/>
<path d="M145.065 146.268L161.99 141.968L171.204 178.409L154.279 182.708L145.065 146.268Z" fill="#424242"/>
<path d="M156.898 195.973L174.339 195.148L176.107 232.699L158.666 233.524L156.898 195.973Z" fill="#424242"/>
<path fill-rule="evenodd" clip-rule="evenodd" d="M185.685 250.621C185.477 252.548 184.785 256.083 184.363 258.263L174.223 256.964C174.96 252.55 176.97 245.966 174.18 242.284C171.312 238.499 165.282 238.373 162.239 242.023C159.552 245.245 160.732 252.299 161.207 256.435L150.855 257.053C150.611 254.847 150.41 251.158 150.358 249.221C149.62 221.574 188.671 223.061 185.685 250.621Z" fill="#737373"/>
<path d="M164.78 131.899C166.623 139.185 162.223 146.59 154.953 148.436C147.682 150.283 140.295 145.873 138.453 138.586C136.61 131.299 141.01 123.895 148.28 122.048C155.551 120.202 162.938 124.612 164.78 131.899Z" fill="#737373"/>
<path d="M178.284 185.303C180.126 192.59 175.726 199.994 168.456 201.841C161.186 203.687 153.799 199.277 151.956 191.99C150.114 184.704 154.514 177.299 161.784 175.453C169.054 173.606 176.441 178.016 178.284 185.303Z" fill="#737373"/>
<path d="M53.0195 146.23L36.0946 141.93L26.8804 178.371L43.8053 182.67L53.0195 146.23Z" fill="#424242"/>
<path d="M41.1862 195.935L23.7456 195.11L21.9775 232.661L39.4181 233.486L41.1862 195.935Z" fill="#424242"/>
<path fill-rule="evenodd" clip-rule="evenodd" d="M12.3989 250.583C12.6075 252.51 13.2993 256.045 13.7213 258.225L23.8617 256.926C23.1247 252.512 21.1145 245.928 23.9047 242.246C26.7726 238.461 32.802 238.335 35.8449 241.985C38.5322 245.208 37.3521 252.261 36.8769 256.397L47.2297 257.015C47.4736 254.809 47.6742 251.12 47.7257 249.183C48.4643 221.536 9.4135 223.023 12.3989 250.583Z" fill="#737373"/>
<path d="M33.3039 131.861C31.4614 139.148 35.8614 146.552 43.1316 148.398C50.4018 150.245 57.789 145.835 59.6316 138.548C61.4741 131.261 57.0741 123.857 49.8039 122.01C42.5337 120.164 35.1464 124.574 33.3039 131.861Z" fill="#737373"/>
<path d="M19.8004 185.265C17.9579 192.552 22.3579 199.956 29.6281 201.803C36.8982 203.649 44.2855 199.239 46.1281 191.953C47.9706 184.666 43.5706 177.261 36.3004 175.415C29.0302 173.568 21.6429 177.978 19.8004 185.265Z" fill="#737373"/>
<path d="M53.0867 126.444C53.0867 119.285 58.8771 113.481 66.02 113.481H131.98C139.123 113.481 144.913 119.285 144.913 126.444V278.759C144.913 285.918 139.123 291.722 131.98 291.722H66.02C58.8771 291.722 53.0867 285.918 53.0867 278.759V126.444Z" fill="#F5F5F7"/>
<path d="M75.0733 45.1018C75.0733 51.7242 69.8619 57.0926 63.4333 57.0926C57.0047 57.0926 51.7933 51.7242 51.7933 45.1018C51.7933 38.4795 57.0047 33.1111 63.4333 33.1111C69.8619 33.1111 75.0733 38.4795 75.0733 45.1018Z" fill="white"/>
<path d="M145.56 45.1018C145.56 51.7242 140.349 57.0926 133.92 57.0926C127.491 57.0926 122.28 51.7242 122.28 45.1018C122.28 38.4795 127.491 33.1111 133.92 33.1111C140.349 33.1111 145.56 38.4795 145.56 45.1018Z" fill="white"/>
<path d="M98.9967 68.4447C104.149 68.4447 109.017 66.2068 112.314 62.3215C113.662 60.7363 116.072 60.5343 117.673 61.8397C119.29 63.1607 119.512 65.5074 118.165 67.0926C113.408 72.6874 106.417 75.8889 98.9967 75.8889C91.5769 75.8889 84.5852 72.6874 79.8289 67.0926C78.4971 65.5074 78.7032 63.1607 80.3203 61.8397C81.9216 60.5343 84.3315 60.7363 85.6791 62.3215C88.9768 66.2223 93.8441 68.4447 98.9967 68.4447Z" fill="white"/>
<path d="M233.2 352V328.8H251.6V235.2H233.2V212H290.8C309.6 212 323.867 216.8 333.6 226.4C343.467 235.867 348.4 250 348.4 268.8V295.2C348.4 314 343.467 328.2 333.6 337.8C323.867 347.267 309.6 352 290.8 352H233.2ZM278 328H291.2C301.867 328 309.667 325.2 314.6 319.6C319.533 314 322 306.133 322 296V268C322 257.733 319.533 249.867 314.6 244.4C309.667 238.8 301.867 236 291.2 236H278V328Z" fill="white"/>
<path d="M416.403 354.8C406.536 354.8 397.803 352.733 390.203 348.6C382.736 344.333 376.87 338.4 372.603 330.8C368.47 323.067 366.403 314 366.403 303.6V301.2C366.403 290.8 368.47 281.8 372.603 274.2C376.736 266.467 382.536 260.533 390.003 256.4C397.47 252.133 406.136 250 416.003 250C425.736 250 434.203 252.2 441.403 256.6C448.603 260.867 454.203 266.867 458.203 274.6C462.203 282.2 464.203 291.067 464.203 301.2V309.8H392.003C392.27 316.6 394.803 322.133 399.603 326.4C404.403 330.667 410.27 332.8 417.203 332.8C424.27 332.8 429.47 331.267 432.803 328.2C436.136 325.133 438.67 321.733 440.403 318L461.003 328.8C459.136 332.267 456.403 336.067 452.803 340.2C449.336 344.2 444.67 347.667 438.803 350.6C432.936 353.4 425.47 354.8 416.403 354.8ZM392.203 291H438.603C438.07 285.267 435.736 280.667 431.603 277.2C427.603 273.733 422.336 272 415.803 272C409.003 272 403.603 273.733 399.603 277.2C395.603 280.667 393.136 285.267 392.203 291Z" fill="white"/>
<path d="M527.833 354.8C514.899 354.8 504.299 352 496.033 346.4C487.766 340.8 482.766 332.8 481.033 322.4L504.233 316.4C505.166 321.067 506.699 324.733 508.833 327.4C511.099 330.067 513.833 332 517.033 333.2C520.366 334.267 523.966 334.8 527.833 334.8C533.699 334.8 538.033 333.8 540.833 331.8C543.633 329.667 545.033 327.067 545.033 324C545.033 320.933 543.699 318.6 541.033 317C538.366 315.267 534.099 313.867 528.233 312.8L522.633 311.8C515.699 310.467 509.366 308.667 503.633 306.4C497.899 304 493.299 300.733 489.833 296.6C486.366 292.467 484.633 287.133 484.633 280.6C484.633 270.733 488.233 263.2 495.433 258C502.633 252.667 512.099 250 523.833 250C534.899 250 544.099 252.467 551.433 257.4C558.766 262.333 563.566 268.8 565.833 276.8L542.433 284C541.366 278.933 539.166 275.333 535.833 273.2C532.633 271.067 528.633 270 523.833 270C519.033 270 515.366 270.867 512.833 272.6C510.299 274.2 509.033 276.467 509.033 279.4C509.033 282.6 510.366 285 513.033 286.6C515.699 288.067 519.299 289.2 523.833 290L529.433 291C536.899 292.333 543.633 294.133 549.633 296.4C555.766 298.533 560.566 301.667 564.033 305.8C567.633 309.8 569.433 315.267 569.433 322.2C569.433 332.6 565.633 340.667 558.033 346.4C550.566 352 540.499 354.8 527.833 354.8Z" fill="white"/>
<path d="M591.516 352V252.8H616.716V352H591.516ZM604.116 241.2C599.582 241.2 595.716 239.733 592.516 236.8C589.449 233.867 587.916 230 587.916 225.2C587.916 220.4 589.449 216.533 592.516 213.6C595.716 210.667 599.582 209.2 604.116 209.2C608.782 209.2 612.649 210.667 615.716 213.6C618.782 216.533 620.316 220.4 620.316 225.2C620.316 230 618.782 233.867 615.716 236.8C612.649 239.733 608.782 241.2 604.116 241.2Z" fill="white"/>
<path d="M639.841 302.8V299.6C639.841 289.2 641.907 280.333 646.041 273C650.174 265.533 655.641 259.867 662.441 256C669.374 252 676.907 250 685.041 250C694.107 250 700.974 251.6 705.641 254.8C710.307 258 713.707 261.333 715.841 264.8H719.441V252.8H744.241V369.6C744.241 376.4 742.241 381.8 738.241 385.8C734.241 389.933 728.907 392 722.241 392H655.841V370H713.441C717.174 370 719.041 368 719.041 364V338.2H715.441C714.107 340.333 712.241 342.533 709.841 344.8C707.441 346.933 704.241 348.733 700.241 350.2C696.241 351.667 691.174 352.4 685.041 352.4C676.907 352.4 669.374 350.467 662.441 346.6C655.641 342.6 650.174 336.933 646.041 329.6C641.907 322.133 639.841 313.2 639.841 302.8ZM692.241 330.4C699.974 330.4 706.441 327.933 711.641 323C716.841 318.067 719.441 311.133 719.441 302.2V300.2C719.441 291.133 716.841 284.2 711.641 279.4C706.574 274.467 700.107 272 692.241 272C684.507 272 678.041 274.467 672.841 279.4C667.641 284.2 665.041 291.133 665.041 300.2V302.2C665.041 311.133 667.641 318.067 672.841 323C678.041 327.933 684.507 330.4 692.241 330.4Z" fill="white"/>
<path d="M772.18 352V252.8H796.98V265.8H800.58C802.18 262.333 805.18 259.067 809.58 256C813.98 252.8 820.646 251.2 829.58 251.2C837.313 251.2 844.046 253 849.78 256.6C855.646 260.067 860.18 264.933 863.38 271.2C866.58 277.333 868.18 284.533 868.18 292.8V352H842.98V294.8C842.98 287.333 841.113 281.733 837.38 278C833.78 274.267 828.58 272.4 821.78 272.4C814.046 272.4 808.046 275 803.78 280.2C799.513 285.267 797.38 292.4 797.38 301.6V352H772.18Z" fill="white"/>
<path d="M233 144.8V4.8H282L306.2 126.8H309.8L334 4.8H383V144.8H357.4V24.2H353.8L329.8 144.8H286.2L262.2 24.2H258.6V144.8H233Z" fill="white"/>
<path d="M410.167 144.8V45.6H435.367V144.8H410.167ZM422.767 34C418.234 34 414.367 32.5333 411.167 29.6C408.101 26.6667 406.567 22.8 406.567 18C406.567 13.2 408.101 9.33334 411.167 6.4C414.367 3.46667 418.234 2 422.767 2C427.434 2 431.301 3.46667 434.367 6.4C437.434 9.33334 438.967 13.2 438.967 18C438.967 22.8 437.434 26.6667 434.367 29.6C431.301 32.5333 427.434 34 422.767 34Z" fill="white"/>
<path d="M463.292 144.8V45.6H488.092V58.6H491.692C493.292 55.1333 496.292 51.8667 500.692 48.8C505.092 45.6 511.759 44 520.692 44C528.426 44 535.159 45.8 540.892 49.4C546.759 52.8667 551.292 57.7333 554.492 64C557.692 70.1333 559.292 77.3333 559.292 85.6V144.8H534.092V87.6C534.092 80.1333 532.226 74.5333 528.492 70.8C524.892 67.0667 519.692 65.2 512.892 65.2C505.159 65.2 499.159 67.8 494.892 73C490.626 78.0667 488.492 85.2 488.492 94.4V144.8H463.292Z" fill="white"/>
<path d="M586.534 144.8V45.6H611.734V144.8H586.534ZM599.134 34C594.601 34 590.734 32.5333 587.534 29.6C584.468 26.6667 582.934 22.8 582.934 18C582.934 13.2 584.468 9.33334 587.534 6.4C590.734 3.46667 594.601 2 599.134 2C603.801 2 607.668 3.46667 610.734 6.4C613.801 9.33334 615.334 13.2 615.334 18C615.334 22.8 613.801 26.6667 610.734 29.6C607.668 32.5333 603.801 34 599.134 34Z" fill="white"/>
<path d="M69.8813 310.518L70.8811 310.496L70.8811 310.496L69.8813 310.518ZM128.685 310.518L127.686 310.541L127.686 310.541L128.685 310.518ZM91.7408 314.29L91.0329 313.584L89.3305 315.29H91.7408V314.29ZM91.7408 308.198V307.198H89.3305L91.0329 308.905L91.7408 308.198ZM96.0385 303.994L96.7487 303.29L95.0385 301.565V303.994H96.0385ZM102.116 303.891H103.116V301.473L101.408 303.185L102.116 303.891ZM106.414 308.198L107.122 308.905L108.824 307.198H106.414V308.198ZM106.245 314.29V315.29H108.644L106.955 313.586L106.245 314.29ZM102.116 318.598L101.408 319.304L103.116 321.016V318.598H102.116ZM96.0385 318.598H95.0385V321.016L96.7464 319.304L96.0385 318.598ZM99.9368 339.98V338.98C98.6612 338.98 97.4037 338.896 96.1695 338.733L96.0385 339.725L95.9075 340.716C97.228 340.89 98.5731 340.98 99.9368 340.98V339.98ZM81.269 333.401L81.8933 332.62C80.3577 331.393 78.9466 330.013 77.6837 328.506L76.9171 329.148L76.1505 329.79C77.4987 331.4 79.0051 332.872 80.6446 334.182L81.269 333.401ZM70.2036 314.29L71.1926 314.142C71.0139 312.949 70.9085 311.732 70.8811 310.496L69.8813 310.518L68.8816 310.541C68.9108 311.861 69.0236 313.162 69.2146 314.438L70.2036 314.29ZM69.8813 310.518L70.8811 310.496C70.8643 309.741 70.8771 308.994 70.9182 308.254L69.9197 308.198L68.9213 308.143C68.8773 308.934 68.8637 309.734 68.8816 310.541L69.8813 310.518ZM75.8179 292.239L76.6109 292.848C77.8078 291.291 79.167 289.865 80.6644 288.597L80.0181 287.834L79.3718 287.071C77.766 288.431 76.3084 289.959 75.0249 291.63L75.8179 292.239ZM96.0385 281.17L96.126 282.166C96.95 282.093 97.7853 282.056 98.6304 282.056V281.056V280.056C97.727 280.056 96.8333 280.096 95.9511 280.173L96.0385 281.17ZM98.6304 281.056V282.056C99.769 282.056 100.893 282.124 101.999 282.254L102.116 281.261L102.233 280.268C101.05 280.128 99.8476 280.056 98.6304 280.056V281.056ZM117.868 288.103L117.225 288.869C118.73 290.133 120.108 291.545 121.334 293.084L122.116 292.46L122.898 291.837C121.589 290.194 120.118 288.686 118.511 287.337L117.868 288.103ZM128.544 308.198L127.549 308.298C127.623 309.038 127.669 309.786 127.686 310.541L128.685 310.518L129.685 310.496C129.667 309.69 129.618 308.89 129.539 308.099L128.544 308.198ZM128.685 310.518L127.686 310.541C127.713 311.776 127.662 312.993 127.536 314.185L128.53 314.29L129.525 314.395C129.659 313.118 129.715 311.817 129.685 310.496L128.685 310.518ZM121.794 329.975L121.034 329.325C119.798 330.768 118.416 332.082 116.908 333.243L117.519 334.035L118.129 334.827C119.745 333.582 121.228 332.173 122.553 330.625L121.794 329.975ZM102.116 339.901L102.043 338.903C101.348 338.954 100.646 338.98 99.9368 338.98V339.98V340.98C100.695 340.98 101.446 340.953 102.19 340.898L102.116 339.901ZM91.7408 314.29L92.4488 314.996L95.4877 311.951L94.7798 311.244L94.0718 310.538L91.0329 313.584L91.7408 314.29ZM94.7798 311.244L95.4877 310.538L92.4487 307.492L91.7408 308.198L91.0329 308.905L94.0718 311.951L94.7798 311.244ZM96.0385 308.198H97.0385V303.994H96.0385H95.0385V308.198H96.0385ZM91.7408 308.198V309.198H96.0385V308.198V307.198H91.7408V308.198ZM96.0385 303.994L95.3283 304.698L98.306 307.702L99.0162 306.998L99.7264 306.294L96.7487 303.29L96.0385 303.994ZM99.0162 306.998L99.7241 307.704L102.824 304.597L102.116 303.891L101.408 303.185L98.3083 306.292L99.0162 306.998ZM102.116 303.891H101.116V308.198H102.116H103.116V303.891H102.116ZM102.116 308.198V309.198H106.414V308.198V307.198H102.116V308.198ZM106.414 308.198L105.706 307.492L102.592 310.613L103.3 311.32L104.008 312.026L107.122 308.905L106.414 308.198ZM103.3 311.32L102.59 312.024L105.535 314.994L106.245 314.29L106.955 313.586L104.01 310.615L103.3 311.32ZM106.245 314.29V313.29H102.116V314.29V315.29H106.245V314.29ZM102.116 314.29H101.116V318.598H102.116H103.116V314.29H102.116ZM102.116 318.598L102.824 317.891L99.7854 314.846L99.0774 315.552L98.3695 316.258L101.408 319.304L102.116 318.598ZM99.0774 315.552L98.3695 314.846L95.3306 317.891L96.0385 318.598L96.7464 319.304L99.7854 316.258L99.0774 315.552ZM96.0385 318.598H97.0385V314.29H96.0385H95.0385V318.598H96.0385ZM96.0385 314.29V313.29H91.7408V314.29V315.29H96.0385V314.29ZM96.0385 314.29H97.0385V312.506H96.0385H95.0385V314.29H96.0385ZM96.0385 312.506L96.7464 311.8L95.4877 310.538L94.7798 311.244L94.0718 311.951L95.3306 313.212L96.0385 312.506ZM94.7798 311.244L95.4877 311.951L96.7464 310.689L96.0385 309.983L95.3306 309.276L94.0718 310.538L94.7798 311.244ZM96.0385 309.983H97.0385V308.198H96.0385H95.0385V309.983H96.0385ZM96.0385 308.198V309.198H97.8187V308.198V307.198H96.0385V308.198ZM97.8187 308.198L98.5266 308.905L99.7241 307.704L99.0162 306.998L98.3083 306.292L97.1108 307.492L97.8187 308.198ZM99.0162 306.998L98.306 307.702L99.4959 308.902L100.206 308.198L100.916 307.494L99.7264 306.294L99.0162 306.998ZM100.206 308.198V309.198H102.116V308.198V307.198H100.206V308.198ZM102.116 308.198H101.116V310.125H102.116H103.116V308.198H102.116ZM102.116 310.125L101.406 310.829L102.59 312.024L103.3 311.32L104.01 310.616L102.827 309.421L102.116 310.125ZM103.3 311.32L102.592 310.613L101.408 311.8L102.116 312.506L102.824 313.212L104.008 312.026L103.3 311.32ZM102.116 312.506H101.116V314.29H102.116H103.116V312.506H102.116ZM102.116 314.29V313.29H100.336V314.29V315.29H102.116V314.29ZM100.336 314.29L99.6283 313.584L98.3695 314.846L99.0774 315.552L99.7854 316.258L101.044 314.996L100.336 314.29ZM99.0774 315.552L99.7854 314.846L98.5266 313.584L97.8187 314.29L97.1107 314.996L98.3695 316.258L99.0774 315.552ZM97.8187 314.29V313.29H96.0385V314.29V315.29H97.8187V314.29ZM100.336 314.29V313.29H97.8187V314.29V315.29H100.336V314.29ZM102.116 312.506L101.408 311.8L99.6283 313.584L100.336 314.29L101.044 314.996L102.824 313.212L102.116 312.506ZM102.116 310.125H101.116V312.506H102.116H103.116V310.125H102.116ZM96.0385 309.983H95.0385V312.506H96.0385H97.0385V309.983H96.0385ZM96.0385 312.506L95.3306 313.212L97.1107 314.996L97.8187 314.29L98.5266 313.584L96.7464 311.8L96.0385 312.506ZM102.116 310.125L102.827 309.421L100.916 307.494L100.206 308.198L99.4959 308.902L101.406 310.829L102.116 310.125ZM100.206 308.198V307.198H97.8187V308.198V309.198H100.206V308.198ZM97.8187 308.198L97.1108 307.492L95.3306 309.276L96.0385 309.983L96.7464 310.689L98.5266 308.905L97.8187 308.198ZM57.8864 310.518L55.8869 310.563L55.8869 310.563L57.8864 310.518ZM140.68 310.518L138.681 310.563L138.681 310.563L140.68 310.518ZM96.0385 339.725L95.7765 341.707L98.0385 342.006V339.725H96.0385ZM81.269 333.401L79.8531 331.988L78.276 333.569L80.0202 334.963L81.269 333.401ZM76.9171 329.148L75.3839 330.432L76.7883 332.109L78.3329 330.56L76.9171 329.148ZM70.2036 314.29V312.29H67.882L68.2257 314.586L70.2036 314.29ZM69.9197 308.198L67.9228 308.087L67.8055 310.198H69.9197V308.198ZM75.8179 292.239L77.2337 290.826L75.6222 289.211L74.232 291.02L75.8179 292.239ZM80.0181 287.834L78.7255 286.308L77.0749 287.706L78.5977 289.242L80.0181 287.834ZM96.0385 281.17H98.0385V278.986L95.8637 279.177L96.0385 281.17ZM102.116 281.261L102.351 279.275L100.116 279.011V281.261H102.116ZM117.868 288.103L119.284 289.516L120.823 287.973L119.154 286.571L117.868 288.103ZM122.116 292.46L123.68 291.213L122.283 289.461L120.701 291.048L122.116 292.46ZM128.544 308.198V310.198H130.754L130.534 308L128.544 308.198ZM128.53 314.29L130.519 314.5L130.752 312.29H128.53V314.29ZM121.794 329.975L120.373 331.383L121.901 332.925L123.313 331.276L121.794 329.975ZM117.519 334.035L118.739 335.62L120.54 334.232L118.935 332.623L117.519 334.035ZM102.116 339.901L100.116 339.901L100.116 342.053L102.263 341.895L102.116 339.901ZM91.7408 314.29L93.1567 315.703L96.5615 312.29H91.7408V314.29ZM91.7408 308.198V310.198H96.5614L93.1566 306.786L91.7408 308.198ZM96.0385 303.994L94.6182 305.402L98.0385 308.853V303.994H96.0385ZM102.116 303.891H100.116V308.727L103.532 305.303L102.116 303.891ZM106.414 308.198L104.998 306.786L101.593 310.198H106.414V308.198ZM106.245 314.29V312.29H101.446L104.825 315.698L106.245 314.29ZM102.116 318.598L103.532 317.185L100.116 313.761L100.116 318.598L102.116 318.598ZM96.0385 318.598H98.0385V313.761L94.6227 317.185L96.0385 318.598ZM96.0385 290.793V288.793H94.0385V290.793H96.0385ZM102.985 290.793H104.985V288.793H102.985V290.793ZM88.0067 99.2222V97.2222H86.0067V99.2222H88.0067ZM109.347 99.2222H111.347V97.2222H109.347V99.2222ZM109.347 113.481V115.481H111.347V113.481H109.347ZM88.0067 113.481H86.0067V115.481H88.0067V113.481ZM145.065 146.268L144.572 144.329L142.636 144.821L143.126 146.758L145.065 146.268ZM161.99 141.968L163.929 141.478L163.438 139.537L161.497 140.03L161.99 141.968ZM171.204 178.409L171.696 180.347L173.633 179.856L173.143 177.919L171.204 178.409ZM154.279 182.708L152.34 183.198L152.831 185.14L154.771 184.647L154.279 182.708ZM156.898 195.973L156.804 193.975L154.806 194.07L154.9 196.067L156.898 195.973ZM174.339 195.148L176.336 195.054L176.242 193.056L174.244 193.15L174.339 195.148ZM176.107 232.699L176.201 234.697L178.199 234.602L178.105 232.605L176.107 232.699ZM158.666 233.524L156.668 233.618L156.762 235.616L158.761 235.522L158.666 233.524ZM185.685 250.621L183.697 250.405L183.697 250.405L185.685 250.621ZM184.363 258.263L184.109 260.247L185.97 260.485L186.326 258.643L184.363 258.263ZM174.223 256.964L172.25 256.635L171.908 258.684L173.968 258.948L174.223 256.964ZM174.18 242.284L175.774 241.076L175.774 241.076L174.18 242.284ZM162.239 242.023L163.775 243.304L163.775 243.304L162.239 242.023ZM161.207 256.435L161.327 258.431L163.435 258.305L163.194 256.207L161.207 256.435ZM150.855 257.053L148.867 257.273L149.076 259.163L150.974 259.05L150.855 257.053ZM150.358 249.221L152.358 249.167L152.358 249.167L150.358 249.221ZM164.78 131.899L162.841 132.389L162.841 132.389L164.78 131.899ZM154.953 148.436L155.445 150.375L155.445 150.375L154.953 148.436ZM148.28 122.048L148.773 123.987L148.773 123.987L148.28 122.048ZM178.284 185.303L180.223 184.813L180.223 184.813L178.284 185.303ZM168.456 201.841L168.949 203.779L168.949 203.779L168.456 201.841ZM161.784 175.453L162.276 177.391L162.276 177.391L161.784 175.453ZM53.0195 146.23L54.9585 146.72L55.4482 144.783L53.5119 144.291L53.0195 146.23ZM36.0946 141.93L36.587 139.992L34.6464 139.499L34.1556 141.44L36.0946 141.93ZM26.8804 178.371L24.9414 177.881L24.4517 179.818L26.388 180.309L26.8804 178.371ZM43.8053 182.67L43.313 184.609L45.2535 185.102L45.7443 183.16L43.8053 182.67ZM41.1862 195.935L43.184 196.029L43.278 194.032L41.2807 193.937L41.1862 195.935ZM23.7456 195.11L23.8401 193.112L21.8419 193.018L21.7478 195.016L23.7456 195.11ZM21.9775 232.661L19.9797 232.567L19.8857 234.564L21.883 234.659L21.9775 232.661ZM39.4181 233.486L39.3236 235.484L41.3218 235.578L41.4159 233.58L39.4181 233.486ZM12.3989 250.583L14.3873 250.368L14.3873 250.367L12.3989 250.583ZM13.7213 258.225L11.7578 258.605L12.1144 260.447L13.9755 260.209L13.7213 258.225ZM23.8617 256.926L24.1159 258.91L26.1766 258.646L25.8344 256.597L23.8617 256.926ZM23.9047 242.246L22.3106 241.038L22.3106 241.038L23.9047 242.246ZM35.8449 241.985L34.3088 243.266L34.3089 243.266L35.8449 241.985ZM36.8769 256.397L34.89 256.169L34.6488 258.267L36.7577 258.393L36.8769 256.397ZM47.2297 257.015L47.1105 259.012L49.0087 259.125L49.2176 257.235L47.2297 257.015ZM47.7257 249.183L45.7265 249.129L45.7265 249.129L47.7257 249.183ZM33.3039 131.861L35.2429 132.351L35.2429 132.351L33.3039 131.861ZM43.1316 148.398L43.624 146.46L43.624 146.46L43.1316 148.398ZM59.6316 138.548L61.5705 139.039L61.5705 139.039L59.6316 138.548ZM49.8039 122.01L49.3115 123.949L49.3115 123.949L49.8039 122.01ZM19.8004 185.265L17.8614 184.775L17.8614 184.775L19.8004 185.265ZM29.6281 201.803L30.1205 199.864L30.1204 199.864L29.6281 201.803ZM36.3004 175.415L35.808 177.353L35.808 177.353L36.3004 175.415ZM112.314 62.3215L110.791 61.0261L110.79 61.0273L112.314 62.3215ZM117.673 61.8397L118.938 60.2908L118.937 60.2896L117.673 61.8397ZM118.165 67.0926L116.641 65.7972L116.641 65.7972L118.165 67.0926ZM79.8289 67.0926L78.2975 68.3791L78.3051 68.388L79.8289 67.0926ZM80.3203 61.8397L79.0566 60.2896L79.0551 60.2908L80.3203 61.8397ZM85.6791 62.3215L87.2064 61.0303L87.2029 61.0261L85.6791 62.3215ZM233.2 352H231.2V354H233.2V352ZM233.2 328.8V326.8H231.2V328.8H233.2ZM251.6 328.8V330.8H253.6V328.8H251.6ZM251.6 235.2H253.6V233.2H251.6V235.2ZM233.2 235.2H231.2V237.2H233.2V235.2ZM233.2 212V210H231.2V212H233.2ZM333.6 226.4L332.196 227.824L332.205 227.834L332.215 227.843L333.6 226.4ZM333.6 337.8L334.994 339.234L334.995 339.233L333.6 337.8ZM278 328H276V330H278V328ZM314.6 244.4L313.099 245.722L313.107 245.731L313.115 245.74L314.6 244.4ZM278 236V234H276V236H278ZM390.203 348.6L389.211 350.337L389.229 350.347L389.248 350.357L390.203 348.6ZM372.603 330.8L370.839 331.743L370.849 331.761L370.859 331.779L372.603 330.8ZM372.603 274.2L374.36 275.156L374.364 275.149L374.367 275.143L372.603 274.2ZM390.003 256.4L390.972 258.15L390.984 258.143L390.995 258.137L390.003 256.4ZM441.403 256.6L440.36 258.307L440.372 258.314L440.383 258.321L441.403 256.6ZM458.203 274.6L456.427 275.519L456.43 275.525L456.433 275.531L458.203 274.6ZM464.203 309.8V311.8H466.203V309.8H464.203ZM392.003 309.8V307.8H389.923L390.005 309.878L392.003 309.8ZM440.403 318L441.332 316.229L439.473 315.254L438.589 317.158L440.403 318ZM461.003 328.8L462.764 329.748L463.723 327.968L461.932 327.029L461.003 328.8ZM452.803 340.2L451.295 338.886L451.292 338.89L452.803 340.2ZM438.803 350.6L439.665 352.405L439.681 352.397L439.698 352.389L438.803 350.6ZM392.203 291L390.229 290.679L389.851 293H392.203V291ZM438.603 291V293H440.798L440.594 290.815L438.603 291ZM431.603 277.2L430.293 278.711L430.305 278.722L430.318 278.732L431.603 277.2ZM481.033 322.4L480.532 320.464L478.759 320.922L479.06 322.729L481.033 322.4ZM504.233 316.4L506.194 316.008L505.779 313.934L503.732 314.464L504.233 316.4ZM508.833 327.4L507.271 328.649L507.29 328.673L507.309 328.695L508.833 327.4ZM517.033 333.2L516.331 335.073L516.376 335.09L516.423 335.105L517.033 333.2ZM540.833 331.8L541.995 333.427L542.02 333.41L542.045 333.391L540.833 331.8ZM541.033 317L539.943 318.677L539.973 318.696L540.004 318.715L541.033 317ZM528.233 312.8L528.591 310.832L528.584 310.831L528.233 312.8ZM522.633 311.8L522.255 313.764L522.268 313.767L522.281 313.769L522.633 311.8ZM503.633 306.4L502.86 308.245L502.879 308.253L502.897 308.26L503.633 306.4ZM489.833 296.6L488.3 297.885L488.3 297.885L489.833 296.6ZM495.433 258L496.604 259.621L496.614 259.614L496.623 259.607L495.433 258ZM551.433 257.4L550.316 259.059L550.316 259.059L551.433 257.4ZM565.833 276.8L566.421 278.712L568.29 278.136L567.757 276.255L565.833 276.8ZM542.433 284L540.476 284.412L540.927 286.556L543.021 285.912L542.433 284ZM535.833 273.2L534.723 274.864L534.739 274.874L534.755 274.885L535.833 273.2ZM512.833 272.6L513.901 274.291L513.932 274.271L513.962 274.251L512.833 272.6ZM513.033 286.6L512.004 288.315L512.036 288.334L512.069 288.352L513.033 286.6ZM523.833 290L524.184 288.031L524.18 288.03L523.833 290ZM529.433 291L529.081 292.969L529.081 292.969L529.433 291ZM549.633 296.4L548.926 298.271L548.951 298.28L548.976 298.289L549.633 296.4ZM564.033 305.8L562.5 307.085L562.523 307.112L562.546 307.138L564.033 305.8ZM558.033 346.4L559.233 348L559.237 347.997L558.033 346.4ZM591.516 352H589.516V354H591.516V352ZM591.516 252.8V250.8H589.516V252.8H591.516ZM616.716 252.8H618.716V250.8H616.716V252.8ZM616.716 352V354H618.716V352H616.716ZM592.516 236.8L591.133 238.245L591.148 238.26L591.164 238.274L592.516 236.8ZM592.516 213.6L591.164 212.126L591.148 212.14L591.133 212.155L592.516 213.6ZM646.041 273L647.783 273.982L647.787 273.975L647.79 273.969L646.041 273ZM662.441 256L663.429 257.739L663.44 257.732L662.441 256ZM715.841 264.8L714.137 265.848L714.723 266.8H715.841V264.8ZM719.441 264.8V266.8H721.441V264.8H719.441ZM719.441 252.8V250.8H717.441V252.8H719.441ZM744.241 252.8H746.241V250.8H744.241V252.8ZM738.241 385.8L736.826 384.386L736.815 384.397L736.803 384.409L738.241 385.8ZM655.841 392H653.841V394H655.841V392ZM655.841 370V368H653.841V370H655.841ZM719.041 338.2H721.041V336.2H719.041V338.2ZM715.441 338.2V336.2H714.332L713.745 337.14L715.441 338.2ZM709.841 344.8L711.169 346.295L711.192 346.275L711.214 346.254L709.841 344.8ZM662.441 346.6L661.427 348.324L661.446 348.336L661.466 348.347L662.441 346.6ZM646.041 329.6L644.291 330.569L644.295 330.575L644.298 330.582L646.041 329.6ZM711.641 279.4L710.245 280.833L710.264 280.852L710.284 280.87L711.641 279.4ZM672.841 279.4L674.197 280.87L674.207 280.86L674.217 280.851L672.841 279.4ZM772.18 352H770.18V354H772.18V352ZM772.18 252.8V250.8H770.18V252.8H772.18ZM796.98 252.8H798.98V250.8H796.98V252.8ZM796.98 265.8H794.98V267.8H796.98V265.8ZM800.58 265.8V267.8H801.859L802.396 266.638L800.58 265.8ZM809.58 256L810.723 257.641L810.74 257.629L810.756 257.617L809.58 256ZM849.78 256.6L848.716 258.294L848.739 258.308L848.762 258.322L849.78 256.6ZM863.38 271.2L861.598 272.11L861.602 272.117L861.606 272.125L863.38 271.2ZM868.18 352V354H870.18V352H868.18ZM842.98 352H840.98V354H842.98V352ZM837.38 278L835.94 279.388L835.953 279.401L835.965 279.414L837.38 278ZM803.78 280.2L805.309 281.488L805.318 281.479L805.326 281.469L803.78 280.2ZM797.38 352V354H799.38V352H797.38ZM233 144.8H231V146.8H233V144.8ZM233 4.8V2.8H231V4.8H233ZM282 4.8L283.962 4.41086L283.642 2.8H282V4.8ZM306.2 126.8L304.238 127.189L304.558 128.8H306.2V126.8ZM309.8 126.8V128.8H311.442L311.762 127.189L309.8 126.8ZM334 4.8V2.8H332.358L332.038 4.41086L334 4.8ZM383 4.8H385V2.8H383V4.8ZM383 144.8V146.8H385V144.8H383ZM357.4 144.8H355.4V146.8H357.4V144.8ZM357.4 24.2H359.4V22.2H357.4V24.2ZM353.8 24.2V22.2H352.159L351.838 23.8096L353.8 24.2ZM329.8 144.8V146.8H331.441L331.762 145.19L329.8 144.8ZM286.2 144.8L284.238 145.19L284.559 146.8H286.2V144.8ZM262.2 24.2L264.162 23.8096L263.841 22.2H262.2V24.2ZM258.6 24.2V22.2H256.6V24.2H258.6ZM258.6 144.8V146.8H260.6V144.8H258.6ZM410.167 144.8H408.167V146.8H410.167V144.8ZM410.167 45.6V43.6H408.167V45.6H410.167ZM435.367 45.6H437.367V43.6H435.367V45.6ZM435.367 144.8V146.8H437.367V144.8H435.367ZM411.167 29.6L409.785 31.0453L409.8 31.06L409.816 31.0743L411.167 29.6ZM411.167 6.4L409.816 4.9257L409.8 4.94004L409.785 4.95472L411.167 6.4ZM463.292 144.8H461.292V146.8H463.292V144.8ZM463.292 45.6V43.6H461.292V45.6H463.292ZM488.092 45.6H490.092V43.6H488.092V45.6ZM488.092 58.6H486.092V60.6H488.092V58.6ZM491.692 58.6V60.6H492.972L493.508 59.4381L491.692 58.6ZM500.692 48.8L501.836 50.4408L501.852 50.4293L501.869 50.4175L500.692 48.8ZM540.892 49.4L539.829 51.0938L539.852 51.1081L539.875 51.1219L540.892 49.4ZM554.492 64L552.711 64.9096L552.715 64.9174L552.719 64.9251L554.492 64ZM559.292 144.8V146.8H561.292V144.8H559.292ZM534.092 144.8H532.092V146.8H534.092V144.8ZM528.492 70.8L527.052 72.1883L527.065 72.2014L527.078 72.2142L528.492 70.8ZM494.892 73L496.422 74.2883L496.43 74.2785L496.438 74.2686L494.892 73ZM488.492 144.8V146.8H490.492V144.8H488.492ZM586.534 144.8H584.534V146.8H586.534V144.8ZM586.534 45.6V43.6H584.534V45.6H586.534ZM611.734 45.6H613.734V43.6H611.734V45.6ZM611.734 144.8V146.8H613.734V144.8H611.734ZM587.534 29.6L586.152 31.0453L586.167 31.06L586.183 31.0743L587.534 29.6ZM587.534 6.4L586.183 4.92569L586.167 4.94004L586.152 4.95472L587.534 6.4ZM98.3639 269.037V267.037C74.4111 267.037 55.355 286.573 55.8869 310.563L57.8864 310.518L59.8859 310.474C59.4035 288.718 76.6638 271.037 98.3639 271.037V269.037ZM57.8864 310.518L55.8869 310.563C56.418 334.519 76.2854 354 100.203 354V352V350C78.4683 350 60.369 332.264 59.8859 310.474L57.8864 310.518ZM100.203 352V354C124.156 354 143.212 334.464 142.68 310.474L140.68 310.518L138.681 310.563C139.163 332.319 121.903 350 100.203 350V352ZM140.68 310.518L142.68 310.474C142.149 286.518 122.281 267.037 98.3639 267.037V269.037V271.037C120.098 271.037 138.198 288.773 138.681 310.563L140.68 310.518ZM96.0385 339.725L96.3005 337.742C91.1575 337.062 86.424 334.961 82.5177 331.839L81.269 333.401L80.0202 334.963C84.4729 338.522 89.8832 340.929 95.7765 341.707L96.0385 339.725ZM76.9171 329.148L78.4503 327.864C75.1943 323.976 72.9626 319.211 72.1816 313.994L70.2036 314.29L68.2257 314.586C69.1197 320.559 71.6733 326.002 75.3839 330.432L76.9171 329.148ZM69.9197 308.198L71.9166 308.309C72.2275 302.715 74.2208 297.6 77.4038 293.458L75.8179 292.239L74.232 291.02C70.5689 295.788 68.2793 301.672 67.9228 308.087L69.9197 308.198ZM80.0181 287.834L81.3107 289.36C85.3877 285.907 90.5278 283.661 96.2134 283.162L96.0385 281.17L95.8637 279.177C89.3346 279.75 83.418 282.333 78.7255 286.308L80.0181 287.834ZM102.116 281.261L101.882 283.247C107.411 283.899 112.482 286.192 116.582 289.635L117.868 288.103L119.154 286.571C114.481 282.648 108.686 280.022 102.351 279.275L102.116 281.261ZM122.116 292.46L120.553 293.707C123.843 297.834 126.004 302.89 126.554 308.397L128.544 308.198L130.534 308C129.904 301.695 127.431 295.917 123.68 291.213L122.116 292.46ZM128.53 314.29L126.541 314.081C125.956 319.641 123.699 324.675 120.275 328.674L121.794 329.975L123.313 331.276C127.253 326.674 129.847 320.883 130.519 314.5L128.53 314.29ZM117.519 334.035L116.298 332.451C112.292 335.538 107.37 337.509 101.97 337.906L102.116 339.901L102.263 341.895C108.462 341.439 114.127 339.173 118.739 335.62L117.519 334.035ZM91.7408 308.198V306.198H69.9197V308.198V310.198H91.7408V308.198ZM70.2036 314.29V316.29H91.7408V314.29V312.29H70.2036V314.29ZM96.0385 303.994L97.4589 302.586L81.4385 286.426L80.0181 287.834L78.5977 289.242L94.6182 305.402L96.0385 303.994ZM75.8179 292.239L74.4021 293.652L90.325 309.611L91.7408 308.198L93.1566 306.786L77.2337 290.826L75.8179 292.239ZM96.0385 281.17H94.0385V303.994H96.0385H98.0385V281.17H96.0385ZM102.116 303.891H104.116V281.261H102.116H100.116V303.891H102.116ZM106.414 308.198L107.83 309.611L123.532 293.873L122.116 292.46L120.701 291.048L104.998 306.786L106.414 308.198ZM117.868 288.103L116.452 286.69L100.701 302.478L102.116 303.891L103.532 305.303L119.284 289.516L117.868 288.103ZM128.544 308.198V306.198H106.414V308.198V310.198H128.544V308.198ZM106.245 314.29V316.29H128.53V314.29V312.29H106.245V314.29ZM121.794 329.975L123.214 328.567L107.665 312.882L106.245 314.29L104.825 315.698L120.373 331.383L121.794 329.975ZM102.116 318.598L100.701 320.01L116.103 335.448L117.519 334.035L118.935 332.623L103.532 317.185L102.116 318.598ZM102.116 339.901L104.116 339.901L104.116 318.598L102.116 318.598L100.116 318.598L100.116 339.901L102.116 339.901ZM96.0385 318.598H94.0385V339.725H96.0385H98.0385V318.598H96.0385ZM81.269 333.401L82.6848 334.814L97.4544 320.01L96.0385 318.598L94.6227 317.185L79.8531 331.988L81.269 333.401ZM91.7408 314.29L90.325 312.878L75.5013 327.735L76.9171 329.148L78.3329 330.56L93.1567 315.703L91.7408 314.29ZM106.446 311.164H104.446C104.446 313.909 102.227 316.126 99.5002 316.126V318.126V320.126C104.445 320.126 108.446 316.109 108.446 311.164H106.446ZM99.5002 318.126V316.126C96.7728 316.126 94.554 313.909 94.554 311.164H92.554H90.554C90.554 316.109 94.555 320.126 99.5002 320.126V318.126ZM92.554 311.164H94.554C94.554 308.419 96.7728 306.202 99.5002 306.202V304.202V302.202C94.555 302.202 90.554 306.219 90.554 311.164H92.554ZM99.5002 304.202V306.202C102.227 306.202 104.446 308.419 104.446 311.164H106.446H108.446C108.446 306.219 104.445 302.202 99.5002 302.202V304.202ZM96.0385 290.793V292.793H102.985V290.793V288.793H96.0385V290.793ZM102.985 290.793H100.985V310.383H102.985H104.985V290.793H102.985ZM102.985 310.383H100.985C100.985 309.999 101.297 309.679 101.691 309.679V311.679V313.679C103.514 313.679 104.985 312.199 104.985 310.383H102.985ZM101.691 311.679V309.679H97.3319V311.679V313.679H101.691V311.679ZM97.3319 311.679V309.679C97.7265 309.679 98.0385 309.999 98.0385 310.383H96.0385H94.0385C94.0385 312.199 95.5087 313.679 97.3319 313.679V311.679ZM96.0385 310.383H98.0385V290.793H96.0385H94.0385V310.383H96.0385ZM2 27.9259H4C4 14.7077 14.6898 4 27.8667 4V2V0C12.472 0 0 12.5072 0 27.9259H2ZM27.8667 2V4H170.133V2V0H27.8667V2ZM170.133 2V4C183.31 4 194 14.7077 194 27.9259H196H198C198 12.5072 185.528 0 170.133 0V2ZM196 27.9259H194V73.2963H196H198V27.9259H196ZM196 73.2963H194C194 86.5145 183.31 97.2222 170.133 97.2222V99.2222V101.222C185.528 101.222 198 88.715 198 73.2963H196ZM170.133 99.2222V97.2222H27.8667V99.2222V101.222H170.133V99.2222ZM27.8667 99.2222V97.2222C14.6898 97.2222 4 86.5145 4 73.2963H2H0C0 88.715 12.472 101.222 27.8667 101.222V99.2222ZM2 73.2963H4V27.9259H2H0V73.2963H2ZM18.8133 32.463H20.8133C20.8133 26.404 25.7127 21.5 31.7467 21.5V19.5V17.5C23.4949 17.5 16.8133 24.2035 16.8133 32.463H18.8133ZM31.7467 19.5V21.5H166.253V19.5V17.5H31.7467V19.5ZM166.253 19.5V21.5C172.287 21.5 177.187 26.404 177.187 32.463H179.187H181.187C181.187 24.2035 174.505 17.5 166.253 17.5V19.5ZM179.187 32.463H177.187V69.4074H179.187H181.187V32.463H179.187ZM179.187 69.4074H177.187C177.187 75.4664 172.287 80.3704 166.253 80.3704V82.3704V84.3704C174.505 84.3704 181.187 77.6669 181.187 69.4074H179.187ZM166.253 82.3704V80.3704H31.7467V82.3704V84.3704H166.253V82.3704ZM31.7467 82.3704V80.3704C25.7127 80.3704 20.8133 75.4664 20.8133 69.4074H18.8133H16.8133C16.8133 77.6669 23.4949 84.3704 31.7467 84.3704V82.3704ZM18.8133 69.4074H20.8133V32.463H18.8133H16.8133V69.4074H18.8133ZM88.0067 99.2222V101.222H109.347V99.2222V97.2222H88.0067V99.2222ZM109.347 99.2222H107.347V113.481H109.347H111.347V99.2222H109.347ZM109.347 113.481V111.481H88.0067V113.481V115.481H109.347V113.481ZM88.0067 113.481H90.0067V99.2222H88.0067H86.0067V113.481H88.0067ZM145.065 146.268L145.557 148.206L162.482 143.907L161.99 141.968L161.497 140.03L144.572 144.329L145.065 146.268ZM161.99 141.968L160.051 142.459L169.265 178.899L171.204 178.409L173.143 177.919L163.929 141.478L161.99 141.968ZM171.204 178.409L170.711 176.471L153.787 180.77L154.279 182.708L154.771 184.647L171.696 180.347L171.204 178.409ZM154.279 182.708L156.218 182.218L147.004 145.777L145.065 146.268L143.126 146.758L152.34 183.198L154.279 182.708ZM156.898 195.973L156.993 197.971L174.433 197.146L174.339 195.148L174.244 193.15L156.804 193.975L156.898 195.973ZM174.339 195.148L172.341 195.242L174.109 232.793L176.107 232.699L178.105 232.605L176.336 195.054L174.339 195.148ZM176.107 232.699L176.012 230.701L158.572 231.526L158.666 233.524L158.761 235.522L176.201 234.697L176.107 232.699ZM158.666 233.524L160.664 233.43L158.896 195.879L156.898 195.973L154.9 196.067L156.668 233.618L158.666 233.524ZM185.685 250.621L183.697 250.405C183.5 252.227 182.83 255.657 182.399 257.883L184.363 258.263L186.326 258.643C186.739 256.51 187.454 252.868 187.674 250.836L185.685 250.621ZM184.363 258.263L184.617 256.279L174.477 254.98L174.223 256.964L173.968 258.948L184.109 260.247L184.363 258.263ZM174.223 256.964L176.195 257.293C176.523 255.33 177.262 252.268 177.515 249.534C177.771 246.771 177.645 243.545 175.774 241.076L174.18 242.284L172.585 243.491C173.505 244.704 173.768 246.612 173.532 249.165C173.293 251.747 172.659 254.184 172.25 256.635L174.223 256.964ZM174.18 242.284L175.774 241.076C172.124 236.259 164.565 236.11 160.703 240.742L162.239 242.023L163.775 243.304C165.999 240.636 170.499 240.738 172.585 243.491L174.18 242.284ZM162.239 242.023L160.703 240.742C158.866 242.945 158.519 246.167 158.537 248.9C158.557 251.725 158.993 254.687 159.22 256.663L161.207 256.435L163.194 256.207C162.946 254.047 162.555 251.415 162.537 248.873C162.519 246.24 162.925 244.323 163.775 243.304L162.239 242.023ZM161.207 256.435L161.088 254.438L150.735 255.057L150.855 257.053L150.974 259.05L161.327 258.431L161.207 256.435ZM150.855 257.053L152.842 256.833C152.607 254.702 152.408 251.072 152.358 249.167L150.358 249.221L148.359 249.274C148.412 251.243 148.614 254.992 148.867 257.273L150.855 257.053ZM150.358 249.221L152.358 249.167C152.186 242.755 154.31 238.236 157.36 235.354C160.441 232.442 164.619 231.055 168.787 231.216C172.954 231.378 177.004 233.085 179.836 236.226C182.639 239.336 184.39 244.011 183.697 250.405L185.685 250.621L187.674 250.836C188.474 243.451 186.463 237.604 182.807 233.548C179.179 229.523 174.072 227.419 168.942 227.219C163.812 227.02 158.553 228.722 154.613 232.447C150.642 236.2 148.161 241.862 148.359 249.274L150.358 249.221ZM164.78 131.899L162.841 132.389C164.414 138.609 160.657 144.924 154.46 146.498L154.953 148.436L155.445 150.375C163.789 148.255 168.831 139.762 166.719 131.408L164.78 131.899ZM154.953 148.436L154.46 146.498C148.265 148.072 141.964 144.315 140.392 138.096L138.453 138.586L136.514 139.076C138.626 147.431 147.1 152.495 155.445 150.375L154.953 148.436ZM138.453 138.586L140.392 138.096C138.819 131.875 142.576 125.561 148.773 123.987L148.28 122.048L147.788 120.11C139.444 122.229 134.402 130.723 136.514 139.076L138.453 138.586ZM148.28 122.048L148.773 123.987C154.968 122.413 161.269 126.17 162.841 132.389L164.78 131.899L166.719 131.408C164.607 123.053 156.133 117.99 147.788 120.11L148.28 122.048ZM178.284 185.303L176.345 185.793C177.918 192.014 174.161 198.328 167.964 199.902L168.456 201.841L168.949 203.779C177.292 201.66 182.335 193.166 180.223 184.813L178.284 185.303ZM168.456 201.841L167.964 199.902C161.769 201.476 155.468 197.719 153.895 191.5L151.956 191.99L150.017 192.481C152.13 200.836 160.603 205.899 168.949 203.779L168.456 201.841ZM151.956 191.99L153.895 191.5C152.322 185.28 156.079 178.965 162.276 177.391L161.784 175.453L161.291 173.514C152.948 175.634 147.905 184.128 150.017 192.481L151.956 191.99ZM161.784 175.453L162.276 177.391C168.471 175.817 174.772 179.574 176.345 185.793L178.284 185.303L180.223 184.813C178.11 176.458 169.637 171.394 161.291 173.514L161.784 175.453ZM53.0195 146.23L53.5119 144.291L36.587 139.992L36.0946 141.93L35.6022 143.869L52.5271 148.168L53.0195 146.23ZM36.0946 141.93L34.1556 141.44L24.9414 177.881L26.8804 178.371L28.8194 178.861L38.0336 142.421L36.0946 141.93ZM26.8804 178.371L26.388 180.309L43.313 184.609L43.8053 182.67L44.2977 180.732L27.3728 176.433L26.8804 178.371ZM43.8053 182.67L45.7443 183.16L54.9585 146.72L53.0195 146.23L51.0805 145.739L41.8664 182.18L43.8053 182.67ZM41.1862 195.935L41.2807 193.937L23.8401 193.112L23.7456 195.11L23.6511 197.108L41.0917 197.933L41.1862 195.935ZM23.7456 195.11L21.7478 195.016L19.9797 232.567L21.9775 232.661L23.9753 232.755L25.7434 195.204L23.7456 195.11ZM21.9775 232.661L21.883 234.659L39.3236 235.484L39.4181 233.486L39.5126 231.488L22.072 230.663L21.9775 232.661ZM39.4181 233.486L41.4159 233.58L43.184 196.029L41.1862 195.935L39.1884 195.841L37.4203 233.392L39.4181 233.486ZM12.3989 250.583L10.4105 250.798C10.6305 252.83 11.3448 256.472 11.7578 258.605L13.7213 258.225L15.6848 257.845C15.2538 255.619 14.5845 252.189 14.3873 250.368L12.3989 250.583ZM13.7213 258.225L13.9755 260.209L24.1159 258.91L23.8617 256.926L23.6075 254.942L13.4671 256.241L13.7213 258.225ZM23.8617 256.926L25.8344 256.597C25.4252 254.146 24.7908 251.709 24.552 249.127C24.3158 246.574 24.5797 244.667 25.4988 243.453L23.9047 242.246L22.3106 241.038C20.4395 243.507 20.3134 246.733 20.569 249.496C20.8219 252.23 21.5612 255.292 21.889 257.255L23.8617 256.926ZM23.9047 242.246L25.4987 243.454C27.585 240.7 32.0849 240.598 34.3088 243.266L35.8449 241.985L37.3811 240.704C33.5191 236.072 25.9602 236.221 22.3106 241.038L23.9047 242.246ZM35.8449 241.985L34.3089 243.266C35.1591 244.285 35.5651 246.202 35.5469 248.835C35.5294 251.377 35.1381 254.009 34.89 256.169L36.8769 256.397L38.8638 256.625C39.0909 254.649 39.5273 251.687 39.5468 248.862C39.5656 246.129 39.218 242.907 37.3809 240.704L35.8449 241.985ZM36.8769 256.397L36.7577 258.393L47.1105 259.012L47.2297 257.015L47.349 255.019L36.9961 254.401L36.8769 256.397ZM47.2297 257.015L49.2176 257.235C49.4698 254.954 49.6726 251.206 49.725 249.236L47.7257 249.183L45.7265 249.129C45.6757 251.034 45.4775 254.664 45.2418 256.796L47.2297 257.015ZM47.7257 249.183L49.725 249.236C49.923 241.824 47.4425 236.162 43.4715 232.409C39.5309 228.684 34.2718 226.982 29.1422 227.181C24.0125 227.381 18.9055 229.485 15.2775 233.51C11.6215 237.566 9.61053 243.413 10.4106 250.798L12.3989 250.583L14.3873 250.367C13.6946 243.973 15.4454 239.298 18.2487 236.188C21.0801 233.047 25.1298 231.34 29.2973 231.178C33.465 231.017 37.6435 232.404 40.7239 235.316C43.7739 238.198 45.8978 242.717 45.7265 249.129L47.7257 249.183ZM33.3039 131.861L31.3649 131.37C29.2528 139.724 34.2956 148.218 42.6392 150.337L43.1316 148.398L43.624 146.46C37.4272 144.886 33.67 138.571 35.2429 132.351L33.3039 131.861ZM43.1316 148.398L42.6392 150.337C50.9844 152.457 59.458 147.393 61.5705 139.039L59.6316 138.548L57.6926 138.058C56.1201 144.277 49.8191 148.034 43.624 146.46L43.1316 148.398ZM59.6316 138.548L61.5705 139.039C63.6827 130.685 58.6399 122.191 50.2963 120.072L49.8039 122.01L49.3115 123.949C55.5083 125.523 59.2655 131.838 57.6926 138.058L59.6316 138.548ZM49.8039 122.01L50.2963 120.072C41.951 117.952 33.4775 123.016 31.3649 131.37L33.3039 131.861L35.2429 132.351C36.8153 126.132 43.1164 122.375 49.3115 123.949L49.8039 122.01ZM19.8004 185.265L17.8614 184.775C15.7493 193.128 20.7921 201.622 29.1357 203.741L29.6281 201.803L30.1204 199.864C23.9237 198.29 20.1665 191.976 21.7394 185.755L19.8004 185.265ZM29.6281 201.803L29.1357 203.741C37.4809 205.861 45.9545 200.798 48.067 192.443L46.1281 191.953L44.1891 191.462C42.6166 197.681 36.3156 201.438 30.1205 199.864L29.6281 201.803ZM46.1281 191.953L48.067 192.443C50.1792 184.09 45.1364 175.596 36.7928 173.476L36.3004 175.415L35.808 177.353C42.0048 178.927 45.762 185.242 44.1891 191.462L46.1281 191.953ZM36.3004 175.415L36.7928 173.476C28.4475 171.356 19.974 176.42 17.8614 184.775L19.8004 185.265L21.7394 185.755C23.3118 179.536 29.6129 175.78 35.808 177.353L36.3004 175.415ZM53.0867 126.444H55.0867C55.0867 120.385 59.986 115.481 66.02 115.481V113.481V111.481C57.7682 111.481 51.0867 118.185 51.0867 126.444H53.0867ZM66.02 113.481V115.481H131.98V113.481V111.481H66.02V113.481ZM131.98 113.481V115.481C138.014 115.481 142.913 120.385 142.913 126.444H144.913H146.913C146.913 118.185 140.232 111.481 131.98 111.481V113.481ZM144.913 126.444H142.913V278.759H144.913H146.913V126.444H144.913ZM144.913 278.759H142.913C142.913 284.818 138.014 289.722 131.98 289.722V291.722V293.722C140.232 293.722 146.913 287.019 146.913 278.759H144.913ZM131.98 291.722V289.722H66.02V291.722V293.722H131.98V291.722ZM66.02 291.722V289.722C59.986 289.722 55.0867 284.818 55.0867 278.759H53.0867H51.0867C51.0867 287.019 57.7682 293.722 66.02 293.722V291.722ZM53.0867 278.759H55.0867V126.444H53.0867H51.0867V278.759H53.0867ZM75.0733 45.1018H73.0733C73.0733 50.676 68.7018 55.0926 63.4333 55.0926V57.0926V59.0926C71.022 59.0926 77.0733 52.7723 77.0733 45.1018H75.0733ZM63.4333 57.0926V55.0926C58.1649 55.0926 53.7933 50.676 53.7933 45.1018H51.7933H49.7933C49.7933 52.7723 55.8446 59.0926 63.4333 59.0926V57.0926ZM51.7933 45.1018H53.7933C53.7933 39.5277 58.1649 35.1111 63.4333 35.1111V33.1111V31.1111C55.8446 31.1111 49.7933 37.4314 49.7933 45.1018H51.7933ZM63.4333 33.1111V35.1111C68.7018 35.1111 73.0733 39.5277 73.0733 45.1018H75.0733H77.0733C77.0733 37.4314 71.022 31.1111 63.4333 31.1111V33.1111ZM145.56 45.1018H143.56C143.56 50.676 139.188 55.0926 133.92 55.0926V57.0926V59.0926C141.509 59.0926 147.56 52.7723 147.56 45.1018H145.56ZM133.92 57.0926V55.0926C128.652 55.0926 124.28 50.676 124.28 45.1018H122.28H120.28C120.28 52.7723 126.331 59.0926 133.92 59.0926V57.0926ZM122.28 45.1018H124.28C124.28 39.5277 128.652 35.1111 133.92 35.1111V33.1111V31.1111C126.331 31.1111 120.28 37.4314 120.28 45.1018H122.28ZM133.92 33.1111V35.1111C139.188 35.1111 143.56 39.5277 143.56 45.1018H145.56H147.56C147.56 37.4314 141.509 31.1111 133.92 31.1111V33.1111ZM98.9967 68.4447V70.4447C104.729 70.4447 110.157 67.9544 113.839 63.6157L112.314 62.3215L110.79 61.0273C107.877 64.4592 103.57 66.4447 98.9967 66.4447V68.4447ZM112.314 62.3215L113.838 63.6169C114.473 62.8705 115.642 62.7643 116.409 63.3899L117.673 61.8397L118.937 60.2896C116.502 58.3042 112.851 58.6021 110.791 61.0261L112.314 62.3215ZM117.673 61.8397L116.408 63.3886C117.166 64.0083 117.256 65.0739 116.641 65.7972L118.165 67.0926L119.688 68.388C121.769 65.941 121.414 62.3132 118.938 60.2908L117.673 61.8397ZM118.165 67.0926L116.641 65.7972C112.27 70.9381 105.839 73.8889 98.9967 73.8889V75.8889V77.8889C106.994 77.8889 114.546 74.4367 119.688 68.388L118.165 67.0926ZM98.9967 75.8889V73.8889C92.1545 73.8889 85.7231 70.9381 81.3526 65.7972L79.8289 67.0926L78.3051 68.388C83.4473 74.4367 90.9994 77.8889 98.9967 77.8889V75.8889ZM79.8289 67.0926L81.3602 65.8061C80.7409 65.069 80.8382 63.9992 81.5856 63.3886L80.3203 61.8397L79.0551 60.2908C76.5682 62.3223 76.2533 65.9458 78.2975 68.3791L79.8289 67.0926ZM80.3203 61.8397L81.5841 63.3899C82.3514 62.7643 83.5208 62.8705 84.1553 63.6169L85.6791 62.3215L87.2029 61.0261C85.1422 58.6021 81.4919 58.3042 79.0566 60.2896L80.3203 61.8397ZM85.6791 62.3215L84.1517 63.6127C87.8375 67.9725 93.268 70.4447 98.9967 70.4447V68.4447V66.4447C94.4202 66.4447 90.1161 64.4721 87.2064 61.0303L85.6791 62.3215ZM233.2 352H235.2V328.8H233.2H231.2V352H233.2ZM233.2 328.8V330.8H251.6V328.8V326.8H233.2V328.8ZM251.6 328.8H253.6V235.2H251.6H249.6V328.8H251.6ZM251.6 235.2V233.2H233.2V235.2V237.2H251.6V235.2ZM233.2 235.2H235.2V212H233.2H231.2V235.2H233.2ZM233.2 212V214H290.8V212V210H233.2V212ZM290.8 212V214C309.275 214 322.959 218.714 332.196 227.824L333.6 226.4L335.004 224.976C324.775 214.886 309.925 210 290.8 210V212ZM333.6 226.4L332.215 227.843C341.559 236.809 346.4 250.335 346.4 268.8H348.4H350.4C350.4 249.665 345.374 234.925 334.985 224.957L333.6 226.4ZM348.4 268.8H346.4V295.2H348.4H350.4V268.8H348.4ZM348.4 295.2H346.4C346.4 313.663 341.56 327.264 332.205 336.367L333.6 337.8L334.995 339.233C345.373 329.136 350.4 314.337 350.4 295.2H348.4ZM333.6 337.8L332.206 336.366C322.97 345.349 309.282 350 290.8 350V352V354C309.917 354 324.764 349.184 334.994 339.234L333.6 337.8ZM290.8 352V350H233.2V352V354H290.8V352ZM278 328V330H291.2V328V326H278V328ZM291.2 328V330C302.188 330 310.647 327.112 316.101 320.922L314.6 319.6L313.099 318.278C308.686 323.288 301.546 326 291.2 326V328ZM314.6 319.6L316.101 320.922C321.455 314.844 324 306.445 324 296H322H320C320 305.822 317.611 313.156 313.099 318.278L314.6 319.6ZM322 296H324V268H322H320V296H322ZM322 268H324C324 257.434 321.461 249.017 316.085 243.06L314.6 244.4L313.115 245.74C317.606 250.716 320 258.033 320 268H322ZM314.6 244.4L316.101 243.078C310.647 236.888 302.188 234 291.2 234V236V238C301.546 238 308.686 240.712 313.099 245.722L314.6 244.4ZM291.2 236V234H278V236V238H291.2V236ZM278 236H276V328H278H280V236H278ZM416.403 354.8V352.8C406.823 352.8 398.426 350.796 391.159 346.843L390.203 348.6L389.248 350.357C397.18 354.671 406.25 356.8 416.403 356.8V354.8ZM390.203 348.6L391.195 346.864C384.048 342.779 378.439 337.11 374.347 329.821L372.603 330.8L370.859 331.779C375.301 339.69 381.425 345.888 389.211 350.337L390.203 348.6ZM372.603 330.8L374.367 329.857C370.415 322.463 368.403 313.732 368.403 303.6H366.403H364.403C364.403 314.268 366.524 323.67 370.839 331.743L372.603 330.8ZM366.403 303.6H368.403V301.2H366.403H364.403V303.6H366.403ZM366.403 301.2H368.403C368.403 291.067 370.415 282.408 374.36 275.156L372.603 274.2L370.846 273.244C366.524 281.192 364.403 290.533 364.403 301.2H366.403ZM372.603 274.2L374.367 275.143C378.324 267.74 383.852 262.091 390.972 258.15L390.003 256.4L389.034 254.65C381.221 258.976 375.149 265.194 370.839 273.257L372.603 274.2ZM390.003 256.4L390.995 258.137C398.118 254.067 406.432 252 416.003 252V250V248C405.84 248 396.822 250.2 389.011 254.664L390.003 256.4ZM416.003 250V252C425.426 252 433.52 254.126 440.36 258.307L441.403 256.6L442.446 254.893C434.886 250.274 426.047 248 416.003 248V250ZM441.403 256.6L440.383 258.321C447.248 262.388 452.592 268.104 456.427 275.519L458.203 274.6L459.979 273.681C455.815 265.629 449.958 259.345 442.423 254.879L441.403 256.6ZM458.203 274.6L456.433 275.531C460.257 282.797 462.203 291.333 462.203 301.2H464.203H466.203C466.203 290.8 464.149 281.603 459.973 273.669L458.203 274.6ZM464.203 301.2H462.203V309.8H464.203H466.203V301.2H464.203ZM464.203 309.8V307.8H392.003V309.8V311.8H464.203V309.8ZM392.003 309.8L390.005 309.878C390.291 317.186 393.041 323.243 398.274 327.895L399.603 326.4L400.932 324.905C396.565 321.023 394.248 316.014 394.002 309.722L392.003 309.8ZM399.603 326.4L398.274 327.895C403.471 332.514 409.822 334.8 417.203 334.8V332.8V330.8C410.717 330.8 405.335 328.819 400.932 324.905L399.603 326.4ZM417.203 332.8V334.8C424.501 334.8 430.295 333.225 434.157 329.672L432.803 328.2L431.449 326.728C428.644 329.308 424.038 330.8 417.203 330.8V332.8ZM432.803 328.2L434.157 329.672C437.664 326.445 440.363 322.836 442.217 318.842L440.403 318L438.589 317.158C436.977 320.63 434.609 323.821 431.449 326.728L432.803 328.2ZM440.403 318L439.474 319.771L460.074 330.571L461.003 328.8L461.932 327.029L441.332 316.229L440.403 318ZM461.003 328.8L459.242 327.852C457.467 331.148 454.832 334.825 451.295 338.886L452.803 340.2L454.311 341.514C457.974 337.308 460.806 333.385 462.764 329.748L461.003 328.8ZM452.803 340.2L451.292 338.89C448.033 342.65 443.595 345.968 437.909 348.811L438.803 350.6L439.698 352.389C445.745 349.365 450.64 345.75 454.314 341.51L452.803 340.2ZM438.803 350.6L437.942 348.795C432.428 351.426 425.282 352.8 416.403 352.8V354.8V356.8C425.657 356.8 433.444 355.374 439.665 352.405L438.803 350.6ZM392.203 291V293H438.603V291V289H392.203V291ZM438.603 291L440.594 290.815C440.016 284.596 437.454 279.497 432.888 275.668L431.603 277.2L430.318 278.732C434.018 281.836 436.124 285.937 436.612 291.185L438.603 291ZM431.603 277.2L432.913 275.689C428.47 271.838 422.701 270 415.803 270V272V274C421.972 274 426.737 275.629 430.293 278.711L431.603 277.2ZM415.803 272V270C408.662 270 402.75 271.826 398.293 275.689L399.603 277.2L400.913 278.711C404.456 275.641 409.344 274 415.803 274V272ZM399.603 277.2L398.293 275.689C393.904 279.493 391.23 284.531 390.229 290.679L392.203 291L394.177 291.321C395.043 286.002 397.302 281.841 400.913 278.711L399.603 277.2ZM527.833 354.8V352.8C515.182 352.8 505.005 350.062 497.154 344.744L496.033 346.4L494.911 348.056C503.594 353.938 514.617 356.8 527.833 356.8V354.8ZM496.033 346.4L497.154 344.744C489.369 339.47 484.655 331.965 483.006 322.071L481.033 322.4L479.06 322.729C480.878 333.635 486.163 342.13 494.911 348.056L496.033 346.4ZM481.033 322.4L481.534 324.336L504.734 318.336L504.233 316.4L503.732 314.464L480.532 320.464L481.033 322.4ZM504.233 316.4L502.272 316.792C503.244 321.656 504.875 325.654 507.271 328.649L508.833 327.4L510.395 326.151C508.524 323.812 507.088 320.477 506.194 316.008L504.233 316.4ZM508.833 327.4L507.309 328.695C509.79 331.615 512.804 333.75 516.331 335.073L517.033 333.2L517.735 331.327C514.861 330.25 512.409 328.519 510.357 326.105L508.833 327.4ZM517.033 333.2L516.423 335.105C519.973 336.241 523.781 336.8 527.833 336.8V334.8V332.8C524.151 332.8 520.759 332.293 517.642 331.295L517.033 333.2ZM527.833 334.8V336.8C533.853 336.8 538.691 335.788 541.995 333.427L540.833 331.8L539.67 330.173C537.374 331.812 533.546 332.8 527.833 332.8V334.8ZM540.833 331.8L542.045 333.391C545.258 330.943 547.033 327.789 547.033 324H545.033H543.033C543.033 326.345 542.008 328.391 539.621 330.209L540.833 331.8ZM545.033 324H547.033C547.033 320.219 545.32 317.24 542.062 315.285L541.033 317L540.004 318.715C542.078 319.96 543.033 321.648 543.033 324H545.033ZM541.033 317L542.123 315.323C539.116 313.369 534.53 311.912 528.591 310.832L528.233 312.8L527.875 314.768C533.669 315.821 537.617 317.165 539.943 318.677L541.033 317ZM528.233 312.8L528.584 310.831L522.984 309.831L522.633 311.8L522.281 313.769L527.881 314.769L528.233 312.8ZM522.633 311.8L523.01 309.836C516.182 308.523 509.97 306.755 504.368 304.54L503.633 306.4L502.897 308.26C508.762 310.578 515.217 312.411 522.255 313.764L522.633 311.8ZM503.633 306.4L504.405 304.555C498.921 302.26 494.598 299.169 491.365 295.315L489.833 296.6L488.3 297.885C492.001 302.298 496.878 305.741 502.86 308.245L503.633 306.4ZM489.833 296.6L491.365 295.315C488.261 291.613 486.633 286.766 486.633 280.6H484.633H482.633C482.633 287.5 484.471 293.32 488.3 297.885L489.833 296.6ZM484.633 280.6H486.633C486.633 271.293 489.988 264.399 496.604 259.621L495.433 258L494.262 256.379C486.478 262.001 482.633 270.174 482.633 280.6H484.633ZM495.433 258L496.623 259.607C503.386 254.598 512.396 252 523.833 252V250V248C511.803 248 501.88 250.735 494.242 256.393L495.433 258ZM523.833 250V252C534.602 252 543.388 254.398 550.316 259.059L551.433 257.4L552.549 255.741C544.811 250.535 535.197 248 523.833 248V250ZM551.433 257.4L550.316 259.059C557.284 263.747 561.779 269.831 563.909 277.345L565.833 276.8L567.757 276.255C565.353 267.769 560.248 260.92 552.549 255.741L551.433 257.4ZM565.833 276.8L565.245 274.888L541.845 282.088L542.433 284L543.021 285.912L566.421 278.712L565.833 276.8ZM542.433 284L544.39 283.588C543.248 278.165 540.823 274.019 536.911 271.515L535.833 273.2L534.755 274.885C537.509 276.647 539.484 279.701 540.476 284.412L542.433 284ZM535.833 273.2L536.942 271.536C533.34 269.135 528.929 268 523.833 268V270V272C528.336 272 531.925 272.999 534.723 274.864L535.833 273.2ZM523.833 270V268C518.84 268 514.709 268.893 511.703 270.949L512.833 272.6L513.962 274.251C516.024 272.84 519.226 272 523.833 272V270ZM512.833 272.6L511.765 270.909C508.666 272.866 507.033 275.763 507.033 279.4H509.033H511.033C511.033 277.171 511.932 275.534 513.901 274.291L512.833 272.6ZM509.033 279.4H507.033C507.033 283.278 508.714 286.341 512.004 288.315L513.033 286.6L514.062 284.885C512.019 283.659 511.033 281.922 511.033 279.4H509.033ZM513.033 286.6L512.069 288.352C515 289.964 518.835 291.149 523.485 291.97L523.833 290L524.18 288.03C519.764 287.251 516.399 286.169 513.997 284.848L513.033 286.6ZM523.833 290L523.481 291.969L529.081 292.969L529.433 291L529.784 289.031L524.184 288.031L523.833 290ZM529.433 291L529.081 292.969C536.448 294.284 543.06 296.055 548.926 298.271L549.633 296.4L550.34 294.529C544.206 292.212 537.351 290.382 529.784 289.031L529.433 291ZM549.633 296.4L548.976 298.289C554.838 300.328 559.309 303.28 562.5 307.085L564.033 305.8L565.565 304.515C561.823 300.053 556.694 296.739 550.29 294.511L549.633 296.4ZM564.033 305.8L562.546 307.138C565.729 310.675 567.433 315.614 567.433 322.2H569.433H571.433C571.433 314.919 569.536 308.925 565.519 304.462L564.033 305.8ZM569.433 322.2H567.433C567.433 332.039 563.876 339.487 556.828 344.803L558.033 346.4L559.237 347.997C567.389 341.847 571.433 333.161 571.433 322.2H569.433ZM558.033 346.4L556.833 344.8C549.817 350.062 540.219 352.8 527.833 352.8V354.8V356.8C540.78 356.8 551.315 353.938 559.233 348L558.033 346.4ZM591.516 352H593.516V252.8H591.516H589.516V352H591.516ZM591.516 252.8V254.8H616.716V252.8V250.8H591.516V252.8ZM616.716 252.8H614.716V352H616.716H618.716V252.8H616.716ZM616.716 352V350H591.516V352V354H616.716V352ZM604.116 241.2V239.2C600.058 239.2 596.681 237.905 593.867 235.326L592.516 236.8L591.164 238.274C594.751 241.562 599.106 243.2 604.116 243.2V241.2ZM592.516 236.8L593.898 235.355C591.279 232.85 589.916 229.533 589.916 225.2H587.916H585.916C585.916 230.467 587.619 234.884 591.133 238.245L592.516 236.8ZM587.916 225.2H589.916C589.916 220.867 591.279 217.55 593.898 215.045L592.516 213.6L591.133 212.155C587.619 215.516 585.916 219.933 585.916 225.2H587.916ZM592.516 213.6L593.867 215.074C596.681 212.495 600.058 211.2 604.116 211.2V209.2V207.2C599.106 207.2 594.751 208.838 591.164 212.126L592.516 213.6ZM604.116 209.2V211.2C608.323 211.2 611.677 212.505 614.333 215.045L615.716 213.6L617.098 212.155C613.621 208.828 609.241 207.2 604.116 207.2V209.2ZM615.716 213.6L614.333 215.045C616.952 217.55 618.316 220.867 618.316 225.2H620.316H622.316C622.316 219.933 620.613 215.516 617.098 212.155L615.716 213.6ZM620.316 225.2H618.316C618.316 229.533 616.952 232.85 614.333 235.355L615.716 236.8L617.098 238.245C620.613 234.884 622.316 230.467 622.316 225.2H620.316ZM615.716 236.8L614.333 235.355C611.677 237.895 608.323 239.2 604.116 239.2V241.2V243.2C609.241 243.2 613.621 241.572 617.098 238.245L615.716 236.8ZM639.841 302.8H641.841V299.6H639.841H637.841V302.8H639.841ZM639.841 299.6H641.841C641.841 289.464 643.854 280.953 647.783 273.982L646.041 273L644.298 272.018C639.961 279.714 637.841 288.936 637.841 299.6H639.841ZM646.041 273L647.79 273.969C651.762 266.793 656.978 261.407 663.429 257.739L662.441 256L661.452 254.261C654.303 258.326 648.585 264.273 644.291 272.031L646.041 273ZM662.441 256L663.44 257.732C670.064 253.911 677.252 252 685.041 252V250V248C676.562 248 668.683 250.089 661.441 254.268L662.441 256ZM685.041 250V252C693.926 252 700.322 253.578 704.51 256.449L705.641 254.8L706.772 253.151C701.626 249.622 694.288 248 685.041 248V250ZM705.641 254.8L704.51 256.449C709.03 259.549 712.196 262.694 714.137 265.848L715.841 264.8L717.544 263.752C715.219 259.973 711.585 256.451 706.772 253.151L705.641 254.8ZM715.841 264.8V266.8H719.441V264.8V262.8H715.841V264.8ZM719.441 264.8H721.441V252.8H719.441H717.441V264.8H719.441ZM719.441 252.8V254.8H744.241V252.8V250.8H719.441V252.8ZM744.241 252.8H742.241V369.6H744.241H746.241V252.8H744.241ZM744.241 369.6H742.241C742.241 375.984 740.377 380.835 736.826 384.386L738.241 385.8L739.655 387.214C744.104 382.765 746.241 376.816 746.241 369.6H744.241ZM738.241 385.8L736.803 384.409C733.241 388.091 728.459 390 722.241 390V392V394C729.355 394 735.24 391.776 739.678 387.191L738.241 385.8ZM722.241 392V390H655.841V392V394H722.241V392ZM655.841 392H657.841V370H655.841H653.841V392H655.841ZM655.841 370V372H713.441V370V368H655.841V370ZM713.441 370V372C715.652 372 717.669 371.401 719.103 369.865C720.512 368.354 721.041 366.275 721.041 364H719.041H717.041C717.041 365.725 716.635 366.646 716.178 367.135C715.746 367.599 714.962 368 713.441 368V370ZM719.041 364H721.041V338.2H719.041H717.041V364H719.041ZM719.041 338.2V336.2H715.441V338.2V340.2H719.041V338.2ZM715.441 338.2L713.745 337.14C712.525 339.092 710.78 341.162 708.467 343.346L709.841 344.8L711.214 346.254C713.702 343.904 715.69 341.575 717.137 339.26L715.441 338.2ZM709.841 344.8L708.512 343.305C706.35 345.227 703.389 346.915 699.552 348.322L700.241 350.2L700.929 352.078C705.092 350.551 708.532 348.64 711.169 346.295L709.841 344.8ZM700.241 350.2L699.552 348.322C695.847 349.681 691.033 350.4 685.041 350.4V352.4V354.4C691.314 354.4 696.635 353.652 700.929 352.078L700.241 350.2ZM685.041 352.4V350.4C677.24 350.4 670.043 348.55 663.415 344.853L662.441 346.6L661.466 348.347C668.705 352.384 676.575 354.4 685.041 354.4V352.4ZM662.441 346.6L663.455 344.876C656.979 341.067 651.755 335.666 647.783 328.618L646.041 329.6L644.298 330.582C648.593 338.201 654.302 344.133 661.427 348.324L662.441 346.6ZM646.041 329.6L647.79 328.631C643.853 321.519 641.841 312.935 641.841 302.8H639.841H637.841C637.841 313.465 639.961 322.747 644.291 330.569L646.041 329.6ZM692.241 330.4V332.4C700.442 332.4 707.415 329.766 713.017 324.451L711.641 323L710.264 321.549C705.467 326.101 699.506 328.4 692.241 328.4V330.4ZM711.641 323L713.017 324.451C718.709 319.051 721.441 311.538 721.441 302.2H719.441H717.441C717.441 310.729 714.972 317.082 710.264 321.549L711.641 323ZM719.441 302.2H721.441V300.2H719.441H717.441V302.2H719.441ZM719.441 300.2H721.441C721.441 290.742 718.716 283.209 712.997 277.93L711.641 279.4L710.284 280.87C714.966 285.191 717.441 291.525 717.441 300.2H719.441ZM711.641 279.4L713.036 277.967C707.552 272.628 700.565 270 692.241 270V272V274C699.65 274 705.596 276.305 710.245 280.833L711.641 279.4ZM692.241 272V270C684.039 270 677.067 272.634 671.464 277.949L672.841 279.4L674.217 280.851C679.015 276.3 684.975 274 692.241 274V272ZM672.841 279.4L671.484 277.93C665.766 283.209 663.041 290.742 663.041 300.2H665.041H667.041C667.041 291.525 669.515 285.191 674.197 280.87L672.841 279.4ZM665.041 300.2H663.041V302.2H665.041H667.041V300.2H665.041ZM665.041 302.2H663.041C663.041 311.538 665.772 319.051 671.464 324.451L672.841 323L674.217 321.549C669.509 317.082 667.041 310.729 667.041 302.2H665.041ZM672.841 323L671.464 324.451C677.067 329.766 684.039 332.4 692.241 332.4V330.4V328.4C684.975 328.4 679.015 326.101 674.217 321.549L672.841 323ZM772.18 352H774.18V252.8H772.18H770.18V352H772.18ZM772.18 252.8V254.8H796.98V252.8V250.8H772.18V252.8ZM796.98 252.8H794.98V265.8H796.98H798.98V252.8H796.98ZM796.98 265.8V267.8H800.58V265.8V263.8H796.98V265.8ZM800.58 265.8L802.396 266.638C803.798 263.599 806.503 260.582 810.723 257.641L809.58 256L808.436 254.359C803.857 257.551 800.561 261.068 798.764 264.962L800.58 265.8ZM809.58 256L810.756 257.617C814.657 254.78 820.821 253.2 829.58 253.2V251.2V249.2C820.471 249.2 813.302 250.82 808.403 254.383L809.58 256ZM829.58 251.2V253.2C836.992 253.2 843.345 254.921 848.716 258.294L849.78 256.6L850.843 254.906C844.748 251.079 837.634 249.2 829.58 249.2V251.2ZM849.78 256.6L848.762 258.322C854.291 261.589 858.565 266.169 861.598 272.11L863.38 271.2L865.161 270.29C861.794 263.698 857.001 258.544 850.797 254.878L849.78 256.6ZM863.38 271.2L861.606 272.125C864.631 277.922 866.18 284.793 866.18 292.8H868.18H870.18C870.18 284.274 868.528 276.744 865.153 270.275L863.38 271.2ZM868.18 292.8H866.18V352H868.18H870.18V292.8H868.18ZM868.18 352V350H842.98V352V354H868.18V352ZM842.98 352H844.98V294.8H842.98H840.98V352H842.98ZM842.98 294.8H844.98C844.98 287.025 843.035 280.827 838.794 276.586L837.38 278L835.965 279.414C839.191 282.64 840.98 287.642 840.98 294.8H842.98ZM837.38 278L838.819 276.612C834.735 272.376 828.946 270.4 821.78 270.4V272.4V274.4C828.213 274.4 832.824 276.157 835.94 279.388L837.38 278ZM821.78 272.4V270.4C813.548 270.4 806.94 273.196 802.234 278.931L803.78 280.2L805.326 281.469C809.153 276.804 814.545 274.4 821.78 274.4V272.4ZM803.78 280.2L802.25 278.912C797.58 284.457 795.38 292.111 795.38 301.6H797.38H799.38C799.38 292.689 801.446 286.076 805.309 281.488L803.78 280.2ZM797.38 301.6H795.38V352H797.38H799.38V301.6H797.38ZM797.38 352V350H772.18V352V354H797.38V352ZM233 144.8H235V4.8H233H231V144.8H233ZM233 4.8V6.8H282V4.8V2.8H233V4.8ZM282 4.8L280.038 5.18914L304.238 127.189L306.2 126.8L308.162 126.411L283.962 4.41086L282 4.8ZM306.2 126.8V128.8H309.8V126.8V124.8H306.2V126.8ZM309.8 126.8L311.762 127.189L335.962 5.18914L334 4.8L332.038 4.41086L307.838 126.411L309.8 126.8ZM334 4.8V6.8H383V4.8V2.8H334V4.8ZM383 4.8H381V144.8H383H385V4.8H383ZM383 144.8V142.8H357.4V144.8V146.8H383V144.8ZM357.4 144.8H359.4V24.2H357.4H355.4V144.8H357.4ZM357.4 24.2V22.2H353.8V24.2V26.2H357.4V24.2ZM353.8 24.2L351.838 23.8096L327.838 144.41L329.8 144.8L331.762 145.19L355.762 24.5904L353.8 24.2ZM329.8 144.8V142.8H286.2V144.8V146.8H329.8V144.8ZM286.2 144.8L288.162 144.41L264.162 23.8096L262.2 24.2L260.238 24.5904L284.238 145.19L286.2 144.8ZM262.2 24.2V22.2H258.6V24.2V26.2H262.2V24.2ZM258.6 24.2H256.6V144.8H258.6H260.6V24.2H258.6ZM258.6 144.8V142.8H233V144.8V146.8H258.6V144.8ZM410.167 144.8H412.167V45.6H410.167H408.167V144.8H410.167ZM410.167 45.6V47.6H435.367V45.6V43.6H410.167V45.6ZM435.367 45.6H433.367V144.8H435.367H437.367V45.6H435.367ZM435.367 144.8V142.8H410.167V144.8V146.8H435.367V144.8ZM422.767 34V32C418.71 32 415.332 30.7048 412.519 28.1257L411.167 29.6L409.816 31.0743C413.402 34.3619 417.758 36 422.767 36V34ZM411.167 29.6L412.55 28.1547C409.931 25.6497 408.567 22.3327 408.567 18H406.567H404.567C404.567 23.2673 406.27 27.6836 409.785 31.0453L411.167 29.6ZM406.567 18H408.567C408.567 13.6673 409.931 10.3503 412.55 7.84529L411.167 6.4L409.785 4.95472C406.27 8.31641 404.567 12.7327 404.567 18H406.567ZM411.167 6.4L412.519 7.87431C415.332 5.29522 418.71 4 422.767 4V2V0C417.758 0 413.402 1.63812 409.816 4.9257L411.167 6.4ZM422.767 2V4C426.975 4 430.329 5.30489 432.985 7.84529L434.367 6.4L435.75 4.95472C432.272 1.62844 427.893 0 422.767 0V2ZM434.367 6.4L432.985 7.84529C435.604 10.3503 436.967 13.6673 436.967 18H438.967H440.967C440.967 12.7327 439.264 8.3164 435.75 4.95472L434.367 6.4ZM438.967 18H436.967C436.967 22.3327 435.604 25.6497 432.985 28.1547L434.367 29.6L435.75 31.0453C439.264 27.6836 440.967 23.2673 440.967 18H438.967ZM434.367 29.6L432.985 28.1547C430.329 30.6951 426.975 32 422.767 32V34V36C427.893 36 432.272 34.3716 435.75 31.0453L434.367 29.6ZM463.292 144.8H465.292V45.6H463.292H461.292V144.8H463.292ZM463.292 45.6V47.6H488.092V45.6V43.6H463.292V45.6ZM488.092 45.6H486.092V58.6H488.092H490.092V45.6H488.092ZM488.092 58.6V60.6H491.692V58.6V56.6H488.092V58.6ZM491.692 58.6L493.508 59.4381C494.911 56.3987 497.615 53.3825 501.836 50.4408L500.692 48.8L499.549 47.1592C494.969 50.3509 491.673 53.8679 489.876 57.7619L491.692 58.6ZM500.692 48.8L501.869 50.4175C505.77 47.5803 511.934 46 520.692 46V44V42C511.584 42 504.415 43.6198 499.516 47.1825L500.692 48.8ZM520.692 44V46C528.104 46 534.457 47.7212 539.829 51.0938L540.892 49.4L541.956 47.7062C535.86 43.8789 528.747 42 520.692 42V44ZM540.892 49.4L539.875 51.1219C545.404 54.3891 549.677 58.969 552.711 64.9096L554.492 64L556.273 63.0905C552.907 56.4977 548.114 51.3442 541.91 47.6782L540.892 49.4ZM554.492 64L552.719 64.9251C555.744 70.7222 557.292 77.593 557.292 85.6H559.292H561.292C561.292 77.0736 559.641 69.5445 556.265 63.0749L554.492 64ZM559.292 85.6H557.292V144.8H559.292H561.292V85.6H559.292ZM559.292 144.8V142.8H534.092V144.8V146.8H559.292V144.8ZM534.092 144.8H536.092V87.6H534.092H532.092V144.8H534.092ZM534.092 87.6H536.092C536.092 79.8251 534.147 73.6265 529.906 69.3858L528.492 70.8L527.078 72.2142C530.304 75.4402 532.092 80.4416 532.092 87.6H534.092ZM528.492 70.8L529.932 69.4117C525.848 65.1764 520.059 63.2 512.892 63.2V65.2V67.2C519.326 67.2 523.937 68.957 527.052 72.1883L528.492 70.8ZM512.892 65.2V63.2C504.66 63.2 498.052 65.9959 493.346 71.7314L494.892 73L496.438 74.2686C500.266 69.6041 505.657 67.2 512.892 67.2V65.2ZM494.892 73L493.362 71.7117C488.692 77.2573 486.492 84.9107 486.492 94.4H488.492H490.492C490.492 85.4894 492.559 78.876 496.422 74.2883L494.892 73ZM488.492 94.4H486.492V144.8H488.492H490.492V94.4H488.492ZM488.492 144.8V142.8H463.292V144.8V146.8H488.492V144.8ZM586.534 144.8H588.534V45.6H586.534H584.534V144.8H586.534ZM586.534 45.6V47.6H611.734V45.6V43.6H586.534V45.6ZM611.734 45.6H609.734V144.8H611.734H613.734V45.6H611.734ZM611.734 144.8V142.8H586.534V144.8V146.8H611.734V144.8ZM599.134 34V32C595.077 32 591.699 30.7048 588.886 28.1257L587.534 29.6L586.183 31.0743C589.769 34.3619 594.125 36 599.134 36V34ZM587.534 29.6L588.917 28.1547C586.298 25.6497 584.934 22.3327 584.934 18H582.934H580.934C580.934 23.2673 582.637 27.6836 586.152 31.0453L587.534 29.6ZM582.934 18H584.934C584.934 13.6673 586.298 10.3503 588.917 7.84529L587.534 6.4L586.152 4.95472C582.637 8.31641 580.934 12.7327 580.934 18H582.934ZM587.534 6.4L588.886 7.87431C591.699 5.29522 595.077 4 599.134 4V2V0C594.125 0 589.769 1.63812 586.183 4.92569L587.534 6.4ZM599.134 2V4C603.342 4 606.696 5.30489 609.352 7.84529L610.734 6.4L612.117 4.95472C608.639 1.62845 604.26 0 599.134 0V2ZM610.734 6.4L609.352 7.84529C611.971 10.3503 613.334 13.6673 613.334 18H615.334H617.334C617.334 12.7327 615.631 8.31641 612.117 4.95472L610.734 6.4ZM615.334 18H613.334C613.334 22.3327 611.971 25.6497 609.352 28.1547L610.734 29.6L612.117 31.0453C615.631 27.6836 617.334 23.2673 617.334 18H615.334ZM610.734 29.6L609.352 28.1547C606.696 30.6951 603.342 32 599.134 32V34V36C604.26 36 608.639 34.3716 612.117 31.0453L610.734 29.6Z" fill="black" mask="url(#path-1-outside-1_140_45)"/>
</svg>
