<svg width="100" height="100" viewBox="0 0 100 100" fill="none" xmlns="http://www.w3.org/2000/svg">
<g clip-path="url(#clip0_130_39)">
<rect width="100" height="100" rx="50" fill="white"/>
<path d="M50 60C61.6025 60 71 50.6025 71 39C71 27.3975 61.6025 18 50 18C38.3975 18 29 27.3975 29 39C29 50.6025 38.3975 60 50 60ZM50 70.5C35.9825 70.5 8 77.535 8 91.5V96.75C8 99.6375 10.3625 102 13.25 102H86.75C89.6375 102 92 99.6375 92 96.75V91.5C92 77.535 64.0175 70.5 50 70.5Z" fill="#2E2E36"/>
</g>
<defs>
<clipPath id="clip0_130_39">
<rect width="100" height="100" rx="50" fill="white"/>
</clipPath>
</defs>
</svg>
